<?xml version="1.0" standalone="no"?>
<!DOCTYPE svg PUBLIC "-//W3C//DTD SVG 1.1//EN" "http://www.w3.org/Graphics/SVG/1.1/DTD/svg11.dtd" >
<svg xmlns="http://www.w3.org/2000/svg" xmlns:xlink="http://www.w3.org/1999/xlink" version="1.1">
<metadata>
Created by FontForge 20150318 at Fri Jul  3 12:34:49 2015
 By uniteet7
Copyright (c) 2015 by Emily Spadoni / Sweet Type. All rights reserved.
</metadata>
<defs>
<font id="SugarPlumsItalic" horiz-adv-x="458" >
  <font-face 
    font-family="Sugar Plums Italic"
    font-weight="400"
    font-style="italic"
    font-stretch="normal"
    units-per-em="1024"
    panose-1="0 0 0 0 0 0 0 0 0 0"
    ascent="819"
    descent="-205"
    x-height="461"
    cap-height="781"
    bbox="-30.9231 -359 2764.13 967.571"
    underline-thickness="1"
    underline-position="-2"
    unicode-range="U+000D-FFAD"
  />
<missing-glyph horiz-adv-x="543" 
 />
    <glyph glyph-name=".notdef" horiz-adv-x="543" 
 />
    <glyph glyph-name="NULL" horiz-adv-x="0" 
 />
    <glyph glyph-name="NULL" horiz-adv-x="0" 
 />
    <glyph glyph-name="nonmarkingreturn" unicode="&#xd;" horiz-adv-x="0" 
 />
    <glyph glyph-name="space" unicode=" " horiz-adv-x="287" 
 />
    <glyph glyph-name="exclam" unicode="!" horiz-adv-x="192" 
d="M142 240q-12 -22 -26 -22q-3 0 -7 1q-18 5 -16 41q9 50 17 110q9 60 16 120q5 39 9 77q5 37 8 70q7 62 11 103q3 41 3 43q4 24 33 24h6q34 -2 51 -25q5 -5 6 -12q2 -7 2 -15q-4 -1 -9 -14t-10 -36q-8 -40 -18 -106q-10 -65 -22 -137q-11 -59 -24 -117t-30 -105zM134 41
q2 -7 1 -15q-2 -11 -10 -24q-13 -24 -35 -30q-7 13 -25 12q-19 -1 -23 16q-3 9 -1 22q1 6 3 14q8 22 27 30q9 4 19 4t20 -6q19 -10 24 -23z" />
    <glyph glyph-name="quotedbl" unicode="&#x22;" horiz-adv-x="229" 
d="M164 784q11 17 35 17h1q24 0 34 -15q0 -14 -2 -27q-3 -16 -8 -30q-11 -27 -24 -58q-10 -15 -25 -26q-7 -6 -13 -6t-11 7q-4 10 -4 24t2 28v2q5 27 12 52q7 26 3 32zM306 678q-8 -28 -23 -35q-3 -1 -6 -1q-10 0 -15 20q12 29 3 59q-7 21 -3 43q1 10 5 20q10 10 32 20
q5 2 9 2q14 0 17 -24q2 -11 -2 -29q-2 -10 -5 -22q-7 -34 -12 -53z" />
    <glyph glyph-name="numbersign" unicode="#" horiz-adv-x="426" 
d="M347 149q-6 -18 -20 -19q-4 0 -8 2q-21 6 -28 23q2 22 7 56v1q5 29 10 63h-19q-30 -1 -59 -1q-10 -37 -17 -69q-16 -64 -8 -70q-9 -33 -27 -33h-1q-19 0 -29 16l1 6q4 23 14 69q9 37 19 80q-14 -1 -28 -1h-74q-19 3 -17 18q1 3 3 7q9 22 28 33q26 2 67 2h36l12 49
q1 6 3 13q-12 -1 -24 -1q-52 -2 -60 -15q-32 7 -29 24v2q5 19 24 26q19 2 46 4q26 2 54 3l4 16q18 67 32 123t20 82q14 13 33 13q3 0 5 -1q22 -1 20 -22q1 -1 1 -3q-1 -5 -5 -17q-3 -15 -10 -39q-13 -45 -33 -109q-7 -21 -13 -41q32 1 64 1q2 2 2 4q17 80 29 121q7 9 17 9
q2 0 4 -1q12 -2 17 -15q-3 -13 -14 -85l-5 -34q27 -1 49 -2q15 -11 13 -26l-1 -1q-3 -17 -28 -21q-8 -1 -41 1q-5 -32 -9 -66q18 -2 35 -3q31 -2 51 -4q13 -7 11 -18v-2q-5 -13 -24 -19q-8 1 -54 0q-13 -1 -27 -1q-4 -37 -9 -69l-5 -32q-3 -22 -5 -27zM295 394h-31
q-7 -22 -12 -43q-4 -11 -6 -21q37 -1 72 -3l14 66q-18 0 -37 1z" />
    <glyph glyph-name="dollar" unicode="$" horiz-adv-x="320" 
d="M297 778q11 26 23 26q2 0 5 -1q14 -7 21 -17q0 -12 -2 -25q-2 -22 -13 -45q-14 -29 -14 -53q18 -5 36 -16q32 -20 42 -52q4 -18 1 -37v-1q-4 -21 -18 -42q-27 -18 -42 -11q-16 7 -4 31q17 37 0 65q-18 29 -49 26q-29 -3 -62 -30t-38 -63q-3 -27 9 -49q13 -22 31 -43
q36 -38 75 -79q39 -40 29 -103q-11 -60 -64 -97q-32 -22 -63 -33q-1 -8 -2 -19l-4 -28q-3 -27 -4 -51q0 -23 4 -29q-16 -13 -31 -18q-4 -1 -7 -1q-10 0 -15 12q-1 20 3 45q2 11 5 24q7 31 17 57h-8h-9q-43 0 -70 33q-25 32 -19 70l1 9q10 18 24 21q13 3 15 -13
q-10 -28 9 -57q17 -29 52 -25q37 4 63 36q26 33 30 69q6 43 -31 76q-37 32 -67 76q-16 24 -25 52q-9 29 -3 67q8 50 58 88q47 35 94 41q1 19 5 54q2 16 4 28q3 21 8 32z" />
    <glyph glyph-name="percent" unicode="%" horiz-adv-x="550" 
d="M62 34q-5 -34 -35 -35h-3q-22 0 -20 13l1 5q4 17 39 64q36 48 89 113q29 35 61 73q32 39 65 79q42 49 83 98q42 49 79 94q69 85 114 148q46 63 43 80q13 12 36 12h7q27 -2 25 -22q1 -1 0 -3t-3 -4q-10 -17 -49 -66q-40 -48 -94 -113q-31 -36 -63 -74q-32 -39 -66 -78
l-82 -96q-40 -48 -76 -91q-68 -81 -112 -137q-43 -56 -39 -60zM219 730q21 12 33 12t16 -11q10 -22 -2 -36q-22 -16 -38 -38q-17 -22 -28 -46q-25 -55 -22 -106q4 -51 39 -52q24 -1 45 14q22 16 39 40q24 37 33 84t-6 79q-7 14 -18 24q-11 9 -28 13q-1 8 4 16q6 8 10 9
q31 -4 48 -27t20 -55q5 -28 0 -58q-3 -23 -12 -47q-20 -57 -61 -90q-19 -14 -40 -22t-46 -8t-43 10t-29 28t-17 42q-4 24 -1 51q0 8 1 16q7 42 29 83q27 49 74 75zM365 321q23 14 36 14q11 0 15 -10q10 -21 -1 -36q-24 -10 -41 -27q-18 -16 -29 -35q-11 -21 -17 -44
q-5 -23 -5 -45q0 -41 14 -71q15 -30 40 -29q21 1 39 11t31 25q34 37 43 93q10 56 -12 91q-8 13 -20 22q-12 8 -28 11q-3 7 4 23q7 15 11 16q51 -17 71 -66q21 -49 12 -102v-2q-5 -28 -16 -54q-12 -27 -31 -48q-18 -20 -44 -33q-24 -12 -56 -14h-8q-54 0 -77 48
q-26 53 -17 117l1 3q6 41 26 79q23 39 59 63z" />
    <glyph glyph-name="ampersand" unicode="&#x26;" horiz-adv-x="560" 
d="M407 346q28 2 72 3q45 2 75 2q7 -5 12 -15q4 -9 -10 -10q-11 -1 -32 -1h-38q-21 -77 -56 -137q17 -10 32 -17q23 -11 43 -11q20 -1 35 12q34 -7 30 -33l-2 -6q-9 -31 -47 -46q-12 -5 -27 -7q-14 -2 -31 1q-39 6 -76 40q-23 -28 -46 -50q-55 -51 -113 -69q-29 -9 -53 -9
q-27 0 -50 10t-42 32q-17 22 -28 56q-11 40 -7 75l1 8q5 30 18 58q29 59 85 112q38 36 76 74q-14 54 -19 102q-4 34 -2 65q2 30 9 52q16 44 40 74q25 31 53 49q42 27 85 27t68 -25q14 -14 20 -35t3 -49q-7 -49 -40 -100t-78 -101q-42 -48 -85 -94l12 -23q34 -66 79 -118
q18 -22 38 -38q1 3 4 7q32 49 49 115q-41 -2 -62 -3q-11 1 -7 10q6 8 12 13zM347 128q9 8 17 17q-37 43 -68 101q-26 49 -46 104q-54 -55 -87 -105q-18 -29 -28 -56q-9 -26 -4 -50q12 -70 79 -70q68 -1 137 59zM244 504q6 -29 13 -56l5 5q46 47 81 100q36 53 46 119
q8 53 -22 66q-29 14 -64 -14q-15 -12 -28 -31t-22 -46q-23 -67 -9 -143z" />
    <glyph glyph-name="quotesingle" unicode="'" horiz-adv-x="114" 
d="M155 812q13 17 36 18h1q24 -1 33 -16q1 -14 -1 -27q-2 -15 -9 -30q-11 -27 -24 -58q-9 -15 -25 -26q-7 -5 -12 -5q-7 0 -11 6q-4 10 -4 24q-1 14 2 29v1q4 28 11 53t3 31z" />
    <glyph glyph-name="parenleft" unicode="(" horiz-adv-x="235" 
d="M203 -128q-8 -26 -25 -29h-5q-14 0 -27 11q-23 59 -39 123q-15 65 -22 132q-13 126 -1 255q4 40 11 79q13 85 36 163q29 94 71 172q41 78 93 129q12 10 29 10q9 0 19 -3q30 -7 26 -29l-1 -2q-44 -37 -78 -87q-36 -50 -64 -108q-52 -108 -75 -235q-24 -126 -22 -247
q1 -99 21 -186q18 -88 53 -148z" />
    <glyph glyph-name="parenright" unicode=")" horiz-adv-x="270" 
d="M189 892q8 25 25 28h5q14 0 26 -11q37 -90 54 -193q16 -104 15 -209q-2 -69 -10 -137q-3 -25 -7 -49q-6 -43 -16 -84q-27 -119 -74 -219t-110 -161q-12 -11 -29 -10q-9 0 -19 2q-30 8 -26 29v2q68 58 116 144q48 85 77 184q35 119 44 246t-8 237q-9 59 -25 110t-38 91z
" />
    <glyph glyph-name="asterisk" unicode="*" horiz-adv-x="304" 
d="M408 747q2 -2 1 -9l-1 -10q-18 -22 -44 -25t-38 -8q-9 -9 -9 -44q-2 -35 -13 -55q-1 -2 -5 -3q-3 -2 -4 -2q-19 0 -33 34q-14 35 -26 42q-7 0 -45 -4q-39 -3 -58 0q-2 0 -5 4q-1 4 -1 6l1 3q2 18 40 39q39 23 41 32q-2 8 -10 37q-9 30 0 43q2 2 5 4q4 1 7 0q13 -3 30 -21
q17 -17 25 -20q9 6 36 31q26 25 29 32q1 9 6 9q2 0 3 -1q8 -4 10 -13q3 -11 -8 -45q-12 -34 -5 -41q1 -6 29 -6q27 1 42 -9z" />
    <glyph glyph-name="plus" unicode="+" horiz-adv-x="2089" 
d="M334 108q-53 -19 -99 -2q-45 17 -78 57q-48 61 -59 154q-6 45 0 86q7 45 30 87q17 34 45 61q27 28 66 48q57 28 115 19q59 -8 118 -40q62 -34 121 -88q61 -53 116 -113q67 -71 126 -140q59 -68 105 -109q24 -22 45 -33q19 -12 34 -8q28 6 39 44q11 37 10 91q-2 29 -6 61
q-2 21 -6 44q-43 46 -80 96q-61 84 -80 152q-11 36 -6 64q4 29 27 45q24 18 47 18h6q26 -3 50 -22q45 -35 78 -115q32 -79 45 -170q5 -40 6 -79v-18l5 -5q60 -55 123 -99q62 -45 118 -63q30 -10 57 -11q25 -1 47 8q45 22 57 93q8 61 3 130l-17 17q-58 57 -95 115
q-38 58 -39 104q0 25 13 46q12 20 40 34q51 27 94 -28q42 -56 62 -145q14 -67 14 -141q46 -40 98 -77q75 -54 138 -82q34 -15 63 -20q28 -6 48 2q23 9 15 46q-9 38 -35 81q-32 54 -78 99t-81 41q-8 20 2 38q10 17 22 20q31 -5 64 -20q32 -15 63 -38q56 -41 92 -100
q34 -55 26 -108l-1 -5q-6 -28 -27 -54q-21 -25 -61 -45q-18 -10 -51 -5q-31 5 -70 21q-73 29 -160 90q-38 26 -72 54q-7 -48 -23 -88q-14 -34 -36 -61q-21 -26 -52 -42q-26 -13 -57 -13q-31 -1 -65 8q-65 17 -136 63q-58 38 -112 84l-1 -3q-9 -68 -39 -118t-87 -64
q-10 -3 -20 -3q-29 0 -61 19q-44 25 -93 71q-32 30 -65 66q-34 36 -68 75q-64 71 -132 141q-67 69 -133 113q-53 34 -104 45q-50 11 -98 -13q-48 -25 -67 -91q-21 -67 -16 -139q2 -31 8 -60t16 -54q20 -47 54 -71q33 -25 80 -9q38 14 61 33t34 40q18 34 7 63q-10 29 -38 32
q-12 1 -27 -4q-14 -5 -30 -17q-23 2 -23 15q2 14 16 30q34 14 61 15q25 0 42 -10q33 -19 36 -66q1 -47 -27 -93q-16 -24 -40 -44q-24 -21 -57 -33zM1016 494q-23 72 -44 113q-12 22 -21 33q-11 10 -18 5q-14 -9 -11 -30q2 -21 15 -51q26 -55 85 -129l16 -20q-10 40 -22 79z
M1546 442q-8 34 -16 64q-17 55 -36 89q-20 33 -35 25q-12 -6 -14 -20q-2 -13 5 -32q13 -34 52 -81q21 -26 45 -53q-1 4 -1 8z" />
    <glyph glyph-name="comma" unicode="," horiz-adv-x="106" 
d="M27 37q12 16 33 16h1q22 -1 30 -14q1 -13 -1 -25q-2 -14 -9 -27q-9 -24 -21 -53q-9 -13 -23 -23q-6 -5 -11 -5t-9 6q-5 9 -5 21q0 13 2 27v1q4 25 11 47q6 24 2 29z" />
    <glyph glyph-name="hyphen" unicode="-" horiz-adv-x="316" 
d="M105 388q1 1 2 1q11 0 44 -8q36 -8 74 -14q31 -5 56 -5t32 11q32 -7 29 -25l-1 -1q-5 -19 -22 -27q-36 -3 -72 -4q-21 0 -42 2q-57 3 -117 9q-15 10 -11 34q3 24 28 27z" />
    <glyph glyph-name="period" unicode="." horiz-adv-x="110" 
d="M94 -6q-8 -18 -27 -26q-15 -7 -27 -7q-3 0 -6 1q-16 2 -15 19q2 17 -4 25q7 20 24 37q17 14 30 14h4q17 -3 23 -24q3 -13 1 -25q0 -7 -3 -14z" />
    <glyph glyph-name="slash" unicode="/" horiz-adv-x="574" 
d="M74 -1q-5 -33 -34 -34h-4q-22 0 -20 13q1 1 1 3q2 12 21 40q17 28 46 68q53 75 134 181l162 212q35 46 69 91q33 45 63 85q54 74 87 126t30 66q13 13 37 13h6q28 -2 27 -23q-2 -8 -38 -57q-37 -50 -95 -126q-31 -40 -67 -86q-35 -46 -72 -94q-45 -59 -92 -118
q-45 -59 -87 -114q-77 -101 -128 -171q-51 -71 -46 -75z" />
    <glyph glyph-name="zero" unicode="0" horiz-adv-x="530" 
d="M319 738q28 15 46 18q7 1 13 1q11 0 19 -3q23 -10 24 -37t-13 -45q-54 -40 -98 -116q-44 -75 -72 -158q-14 -44 -24 -88t-16 -83q-8 -73 4 -122t48 -50q73 -2 137 75q63 76 100 179q31 81 40 164q10 83 -9 141q-10 31 -30 53q-20 21 -49 28q-4 14 5 21q8 8 16 9
q31 -4 52 -21q22 -17 36 -43q26 -50 27 -125q2 -49 -6 -100q-5 -28 -11 -56q-21 -83 -62 -161t-98 -130q-35 -32 -77 -51q-41 -19 -87 -19h-1q-38 0 -66 17q-27 17 -45 45q-25 41 -33 101q-7 60 1 128l4 30q5 29 12 59q11 46 27 89q31 82 78 149q48 67 108 101z" />
    <glyph glyph-name="one" unicode="1" horiz-adv-x="314" 
d="M126 639q-12 3 -11 12v1q1 8 10 14q9 -3 34 12q25 14 51 35q14 11 26 23t20 23q6 21 31 21h1q26 -1 46 -22q7 -9 13 -22q5 -13 4 -29q-11 1 -26 -53q-14 -55 -27 -137q-8 -45 -15 -94q-6 -49 -13 -99q-13 -95 -25 -180q-11 -85 -18 -130q16 -1 30 -1q13 1 27 1
q7 -6 8 -10v-3q-1 -3 -4 -7q-80 1 -132 0q-53 -1 -115 -2q-2 2 -1 9t6 10q26 1 48 2t44 0q0 99 17 233q18 133 42 254q12 65 26 122q13 55 24 95q-4 -9 -23 -23q-21 -18 -48 -32q-13 -8 -27 -14q-13 -6 -23 -9z" />
    <glyph glyph-name="two" unicode="2" horiz-adv-x="574" 
d="M440 767q35 -7 54 -30q19 -24 27 -60q13 -66 -11 -162t-71 -191q-20 -42 -44 -82t-49 -74q-11 -14 -21 -28q28 -11 58 -24q62 -29 129 -25q21 -4 20 -20q-2 -8 -8 -18q-19 -31 -56 -40q-39 4 -70 19q-33 15 -62 34q-25 17 -49 33q-20 -19 -39 -35q-51 -40 -97 -40
q-28 0 -46 8q-19 7 -29 20q-17 20 -13 46q2 11 8 23q18 40 74 57q27 8 56 3q25 -5 53 -14q12 19 25 41q19 32 36 67q18 36 34 73q37 85 64 170q26 85 31 142q3 30 -2 50q-4 19 -19 22q-16 4 -34 -5t-34 -25q-24 -24 -39 -58q-14 -33 -9 -59q-8 -30 -40 -44t-51 2
q-7 5 -10 14q-4 9 -3 23q25 113 94 157q52 33 107 33q18 0 36 -3zM146 157q-45 -13 -43 -47q3 -34 52 -34q25 1 57 37q11 12 22 26q-43 30 -88 18z" />
    <glyph glyph-name="three" unicode="3" horiz-adv-x="424" 
d="M181 715q-15 5 -17 26q-2 22 18 29q151 -7 227 -10q14 -5 24 -19q10 -13 6 -27q-4 -12 -12 -24q-9 -13 -19 -26q-20 -23 -42 -42q-22 -20 -32 -25q73 8 112 -66q34 -68 15 -179l-3 -21q-23 -118 -86 -191t-132 -106q-37 -18 -72 -25q-26 -5 -48 -5h-15q-19 2 -31 12
q-13 9 -20 24q-19 34 -12 84l2 10q7 43 25 70q12 16 29 14q16 -3 12 -22q-9 -12 -17 -41q-9 -29 -10 -59q-1 -16 1 -30q1 -15 5 -24q4 -7 8 -11q6 -4 13 -4q40 -1 84 41t83 105q21 34 39 71q19 37 33 73q32 87 35 157q2 69 -48 76q-36 6 -71 -16q-34 -21 -49 -28
q-17 2 -14 14q2 12 14 33q29 20 67 50t65 57q15 15 24 27q10 12 13 21q-3 5 -37 5t-75 -1h-52q-25 1 -40 3z" />
    <glyph glyph-name="four" unicode="4" horiz-adv-x="574" 
d="M425 621q15 32 35 40q3 1 7 1q16 0 30 -32q-16 -12 -26 -64t-19 -123q-4 -34 -9 -71q29 0 58 1q41 1 74 1q8 -5 7 -13q-1 -3 -2 -5q-5 -12 -19 -25q-59 -1 -123 -5q-2 -24 -3 -47q-9 -81 -20 -155t-26 -121q-9 -38 -33 -38h-1q-24 1 -40 33q18 101 39 219q9 54 17 104
q-12 -1 -25 -2q-47 -4 -89 -4q-57 0 -104 8q-25 3 -35 23q-3 8 -2 18q2 14 16 31q37 58 90 126q53 67 92 126q21 31 34 58q14 27 17 46q26 24 48 24q9 0 18 -3q30 -14 33 -68q-17 -27 -51 -67q-33 -40 -70 -83q-55 -64 -102 -118q-48 -55 -46 -65q10 -2 77 -1q50 1 108 1
q7 34 13 67q10 55 18 102q7 47 14 81z" />
    <glyph glyph-name="five" unicode="5" horiz-adv-x="479" 
d="M492 708q-67 -18 -132 -13q-66 6 -102 8q-23 -129 -33 -193q85 26 150 22q63 -5 92 -63q15 -31 18 -79q4 -49 -8 -119v-1q-20 -129 -109 -202q-77 -64 -171 -64q-16 0 -32 2q-48 5 -78 41t-30 83q0 10 1 21q3 16 9 32q11 27 33 52q16 15 27 10t7 -25q-16 -21 -24 -42
q-8 -22 -8 -42q-1 -37 19 -62q21 -26 54 -25q29 1 55 13t49 33q35 33 60 81q26 48 39 99q19 76 6 139q-12 63 -65 67q-28 3 -55 -13q-29 -16 -52 -34q-12 -9 -23 -17t-18 -12q-18 0 -24 13q-6 14 -5 24q-1 14 0 48q2 35 6 77q7 63 21 122q14 60 36 71q9 4 16 4q10 0 15 -7
q11 -12 25 -13q78 -5 139 -9t89 13q34 16 36 -9q1 -26 -33 -31z" />
    <glyph glyph-name="six" unicode="6" horiz-adv-x="464" 
d="M405 742q21 12 55 14q5 1 10 1q26 0 35 -12q4 -5 3 -12t-7 -16q-11 -18 -52 -39q-41 -20 -90 -70q-26 -27 -52 -65q-28 -39 -50 -93q58 32 115 18q56 -13 87 -63q17 -26 24 -62t1 -80l-1 -6q-4 -29 -15 -59q-13 -32 -31 -62q-35 -56 -85 -95q-48 -36 -100 -36h-4
q-70 2 -106 55t-41 127q-3 39 3 81l2 15q6 34 16 66t25 69t36 76q37 71 93 139t129 109zM253 29h3q54 0 100 72q47 73 62 169l1 3q11 73 -29 123q-31 42 -80 42q-11 0 -22 -2t-21 -13q-10 -12 -19 -31q-19 -35 -32 -87q-7 -30 -12 -61q-3 -22 -6 -45q-5 -66 6 -118
q11 -51 49 -52z" />
    <glyph glyph-name="seven" unicode="7" horiz-adv-x="410" 
d="M169 769q8 -11 60 -6q53 4 118 7q26 2 52 2q10 0 20 -1q36 0 66 -6q13 0 18 -12q2 -7 1 -14q-1 -5 -4 -11q-9 -15 -36 -74q-27 -58 -62 -138q-19 -43 -38 -90q-20 -47 -39 -95q-30 -74 -55 -144t-40 -125q-2 -30 -23 -44q-10 -7 -20 -7q-8 0 -15 5t-11 16q-5 11 -5 28
q0 19 21 79q19 60 48 138q16 41 34 85q17 45 34 88q40 100 71 176t31 81q-5 1 -26 0q-20 -1 -46 -4q-41 -3 -86 -7q-46 -3 -72 1q-35 4 -35 33l1 5q3 25 38 34z" />
    <glyph glyph-name="eight" unicode="8" horiz-adv-x="372" 
d="M237 744q24 12 43 -3q18 -16 4 -31q-14 -2 -40 -25q-25 -23 -42 -59q-9 -19 -14 -41q-4 -22 -1 -45q2 -18 22 -38t47 -46q1 -1 1 -2q44 44 77 83q20 24 35 45q13 21 17 39q5 19 2 35q-2 17 -10 30q-13 25 -35 40t-38 17q-8 18 4 29q7 5 15 5t19 -5q41 -17 74 -51
q33 -35 16 -106q-5 -21 -20 -45q-15 -23 -35 -48q-38 -47 -91 -99q2 -2 4 -3q19 -19 34 -42q30 -42 44 -98q11 -40 3 -89q-3 -20 -10 -41q-11 -38 -30 -66q-20 -28 -45 -48t-55 -30q-29 -11 -57 -11h-1q-52 0 -90 35t-32 107q4 51 31 100q26 50 64 97q22 27 45 53
q-14 20 -28 39q-42 53 -48 91q-5 32 -1 60l1 7q4 23 12 44q17 43 48 71q32 29 61 45zM191 318q-37 -44 -63 -89q-27 -45 -30 -88q-4 -45 33 -60q38 -15 75 13q17 12 30 32q14 21 22 51q8 34 0 68q-7 34 -23 67q-9 18 -20 35q-12 -15 -24 -29z" />
    <glyph glyph-name="nine" unicode="9" horiz-adv-x="429" 
d="M216 33q-21 -13 -55 -18q-9 -1 -17 -1q-20 -1 -29 9q-4 5 -4 12q0 6 6 16q5 10 20 22q15 13 37 30q39 33 89 91t86 160q-30 -19 -63 -27q-32 -8 -61 -4q-55 6 -93 51q-38 44 -33 125q1 13 3 26q3 19 8 39q10 33 26 64q30 58 79 100q47 41 102 44h8q33 0 60 -13
q28 -15 49 -41q37 -49 46 -126q7 -59 -2 -117q-3 -16 -6 -33q-15 -60 -46 -136t-81 -145q-27 -37 -59 -70t-70 -58zM335 747q-32 -2 -64 -38t-53 -89q-11 -28 -18 -59l-2 -15q-4 -24 -4 -48q0 -60 40 -97q26 -25 63 -25q18 0 39 6q16 5 31 38q14 33 23 78l8 51q4 27 4 52
q1 60 -14 104q-14 43 -48 43q-2 -1 -5 -1z" />
    <glyph glyph-name="colon" unicode=":" horiz-adv-x="111" 
d="M52 75h4q13 0 24 -14q14 -16 13 -36q-8 -9 -12 -26q-3 -17 -21 -19h-6q-13 0 -25 6q-15 8 -18 26q0 7 1 14q2 13 10 26q12 20 30 23zM79 389q-1 2 0 4q2 12 17 28q18 17 37 16q1 -13 16 -17t14 -20l-1 -3q-2 -13 -12 -29q-11 -17 -29 -19h-4q-15 0 -26 13q-12 15 -12 27z
" />
    <glyph glyph-name="semicolon" unicode=";" horiz-adv-x="114" 
d="M30 29q12 16 33 16h1q23 0 31 -14q0 -13 -2 -25q-2 -15 -7 -28q-10 -25 -23 -54q-9 -14 -22 -24q-7 -5 -12 -5q-6 0 -10 6q-5 9 -5 22t3 27v2q4 25 11 48q5 23 2 29zM83 389l1 4q1 13 16 28q18 17 37 17q2 -14 17 -18t14 -20l-1 -3q-2 -13 -12 -29q-12 -17 -29 -18
q-2 -1 -4 -1q-16 0 -27 13q-12 15 -12 27z" />
    <glyph glyph-name="less" unicode="&#x3c;" horiz-adv-x="314" 
d="M378 463q-21 -14 -49 -31l-57 -34q-55 -32 -100 -60q-46 -28 -51 -37q6 -8 31 -42q24 -33 53 -71q17 -20 33 -40q15 -19 29 -34q4 -17 -4 -34q-6 -15 -19 -14h-6q-5 12 -29 45q-25 33 -55 72q-35 47 -65 90q-30 41 -28 51q2 9 35 34q34 26 77 58q54 38 105 77
q51 38 60 57q7 2 13 2q3 0 6 -1q7 -2 13 -7q13 -13 14 -39q0 -13 -1 -24q-2 -10 -5 -18z" />
    <glyph glyph-name="equal" unicode="=" horiz-adv-x="332" 
d="M102 343q-32 7 -29 24v2q5 19 23 26q58 7 135 9h43q52 0 95 -3q14 -10 12 -30q0 -2 -1 -4q-5 -23 -30 -27h-2q-13 0 -51 5q-43 6 -89 9q-38 3 -69 1t-37 -12zM66 232q-18 3 -16 18q1 3 2 7q10 22 29 33q44 4 95 4q21 0 44 -1q77 -2 133 -8q13 -7 11 -18q0 -1 -1 -3
q-4 -12 -23 -18q-9 0 -42 -2q-34 -2 -76 -4q-51 -3 -98 -6q-37 -2 -51 -2h-7z" />
    <glyph glyph-name="greater" unicode="&#x3e;" horiz-adv-x="325" 
d="M156 550q2 -15 30 -44q27 -29 61 -62q42 -39 78 -74q37 -35 36 -46h1q-1 -7 -31 -37q-31 -31 -72 -69q-49 -47 -99 -92q-48 -45 -58 -59q-3 -1 -5 -1q-14 0 -16 14q-2 18 8 35q18 14 40 34q21 19 44 39q41 38 77 72q35 33 43 42q-1 8 -39 36q-37 28 -80 60q-24 18 -47 34
q-22 17 -39 31q-1 8 1 18q1 11 7 25q9 25 26 38q7 6 15 8h6q6 0 13 -2z" />
    <glyph glyph-name="question" unicode="?" horiz-adv-x="383" 
d="M105 602q10 61 69 110q64 52 134 58q7 1 14 1q23 0 45 -7q27 -8 50 -30q29 -30 37 -66q7 -30 2 -61q-2 -8 -4 -15q-17 -72 -76 -137q-61 -65 -127 -89q-18 -6 -31 -19q-11 -13 -17 -28q-13 -29 -14 -61v-49q-9 -25 -30 -26q-4 0 -7 1q-27 5 -25 29q12 13 16 52
q5 38 21 78q8 21 21 39t35 30q27 15 60 45t60 66q42 55 62 110q18 55 -17 80q-26 19 -65 4q-39 -16 -72 -46q-21 -20 -36 -43q-14 -24 -15 -45q-5 -16 -13 -26q-9 -10 -18 -14q-23 -9 -43 7q-21 17 -17 45zM175 25q-7 -18 -26 -26q-14 -7 -26 -7q-3 0 -7 1q-15 2 -14 19
q2 17 -4 25q7 20 24 37q15 14 28 14h5q18 -3 24 -24q3 -13 1 -25q-1 -7 -5 -14z" />
    <glyph glyph-name="at" unicode="@" horiz-adv-x="701" 
d="M515 527q1 -3 -2 -11q-4 -8 -8 -9q-25 23 -52 7q-27 -17 -52 -55q-13 -20 -24 -44q-12 -24 -21 -48q-22 -58 -26 -106q-6 -47 18 -46q11 1 28 31t36 70q22 48 40 94q19 46 21 52q5 10 27 19q22 8 40 2q9 -3 15 -9q5 -6 7 -17q-6 -4 -21 -40q-15 -37 -31 -83
q-17 -56 -30 -108q-12 -51 -2 -56q19 -10 63 29q43 38 81 102q21 35 37 74q15 39 20 79q9 68 -15 134q-24 67 -78 107q-30 21 -69 31q-38 11 -86 6q-30 -2 -62 -16q-32 -13 -63 -36q-58 -43 -102 -121q-44 -77 -58 -188q-3 -28 -1 -59q1 -31 9 -62q13 -57 47 -109
q33 -51 87 -79q46 -23 107 -25t139 28q28 4 22 -14t-27 -31q-88 -23 -156 -23h-20q-75 4 -128 30q-64 31 -98 87q-36 55 -48 119q-5 35 -6 70q0 35 4 68l2 13q17 108 66 187q52 84 124 132q39 26 82 41t87 18q19 1 37 1q85 0 143 -31q71 -37 102 -103q17 -36 23 -79
q5 -42 -1 -89l-2 -11q-8 -48 -27 -91q-20 -47 -47 -86q-52 -73 -112 -110q-60 -38 -88 -25q-15 8 -23 22q-9 14 -11 31q-5 42 9 89q14 48 15 66q-4 -13 -16 -49q-14 -37 -34 -70q-12 -22 -27 -38q-14 -16 -30 -18q-43 -6 -76 18q-32 25 -35 64q-2 32 4 63q6 32 18 62
q24 55 61 98t66 59q35 18 74 16t54 -24z" />
    <glyph glyph-name="A" unicode="A" horiz-adv-x="450" 
d="M167 783q8 12 19 12q7 0 17 -5q21 -13 20 -28q2 -16 -1 -49q-2 -32 -6 -69q-6 -57 -11 -106q-6 -50 -3 -51q1 5 7 18t13 30q15 33 36 77q22 43 48 83q25 40 52 68t52 27q49 -2 67 -63q17 -61 16 -150q-1 -48 -6 -101q-6 -53 -13 -107q-6 -42 -12 -83l-12 -73
q-14 -75 -23 -126l-7 -48q-3 -20 -3 -28q-14 -20 -46 -20q-7 0 -15 1q-43 5 -53 35q-1 53 15 145q6 38 13 78q-5 0 -10 -1q-51 -6 -104 -19q-22 -5 -41 -10v-6q-4 -83 -16 -184q-10 -20 -55 -12q-44 8 -47 41q-3 96 5 187q7 75 18 142l5 30q27 151 57 252t24 113zM228 255
q52 10 105 16h1q9 46 18 94q11 52 20 104q10 52 18 99q15 87 20 145q7 58 -8 60q-16 1 -44 -38t-59 -94q-37 -66 -68 -134q-32 -69 -37 -93q-11 -97 -16 -171q24 6 50 12z" />
    <glyph glyph-name="B" unicode="B" horiz-adv-x="488" 
d="M168 761q8 31 30 23q22 -7 28 -21q7 -37 9 -74q1 -37 -1 -71q-2 -63 -8 -107q-6 -45 0 -49q5 5 27 69q21 63 53 130q22 45 48 80q26 36 54 46q16 6 31 6q34 0 61 -26q39 -38 28 -96q-9 -48 -29 -90q-22 -43 -48 -79q-49 -67 -99 -107q-49 -40 -56 -47q17 3 41 3
q24 -1 49 -6q47 -10 84 -43t29 -105l-3 -16q-15 -96 -77 -132q-68 -38 -164 -4q-17 6 -14 27q4 20 14 33h7q4 -1 6 -6q-9 -30 31 -34q39 -4 68 18q19 14 29 57q9 43 5 86q-2 29 -12 53q-11 24 -29 35q-30 18 -74 13t-64 -15q-10 -77 -19 -163q-9 -85 -20 -144
q-8 -14 -31 -14q-8 0 -19 2q-39 6 -57 28q-5 6 -7 12q-3 7 -3 14q3 163 25 304l3 17q24 149 46 249q13 54 21 91q7 37 7 53zM431 769q-1 1 -2 1q-16 0 -53 -54q-39 -59 -80 -150q-22 -49 -40 -104q-19 -56 -31 -113q6 -2 13 -2q8 0 18 3q16 6 23 15q28 33 55 83
q29 50 53 103q34 79 51 146q3 13 5 24q7 44 -12 48z" />
    <glyph glyph-name="C" unicode="C" horiz-adv-x="386" 
d="M445 583q-7 -13 -22 -19q-16 -6 -17 10q11 32 16 75q6 42 -6 72q-7 17 -18 27q-12 10 -32 12q-32 1 -61 -64q-30 -65 -51 -147q-12 -45 -20 -88q-9 -44 -15 -80q-5 -30 -6 -70q-1 -39 1 -80q4 -76 23 -137q19 -62 52 -62q17 0 32 28t26 64q8 23 13 47q4 24 6 42q6 8 16 6
q12 -3 12 -14q-4 -25 -16 -80q-11 -55 -39 -93q-12 -16 -29 -26q-15 -11 -35 -11h-6q-40 0 -71 15q-32 16 -57 45q-43 55 -57 144q-13 90 0 186l2 11q12 74 45 163q37 96 93 158q30 34 66 52q29 15 60 15q8 0 16 -1q71 -8 84 -64q15 -55 -5 -136z" />
    <glyph glyph-name="D" unicode="D" horiz-adv-x="506" 
d="M176 784q9 12 21 12q8 0 16 -5q23 -13 22 -28q3 -16 2 -49q-2 -33 -4 -72q-3 -57 -5 -108q-3 -51 -1 -52q6 13 29 67q24 54 58 112q18 31 38 58q20 28 41 46q15 13 30 20t29 6q61 -6 84 -60q24 -54 26 -131q0 -42 -4 -87q-5 -45 -12 -90v-5q-7 -44 -25 -106
q-17 -65 -47 -125q-16 -32 -35 -60q-20 -28 -42 -48q-28 -25 -60 -34q-33 -10 -70 2q-16 5 -17 25q-1 19 7 32q4 1 8 0q3 -1 6 -4q-3 -8 1 -18q5 -11 13 -12q38 -9 68 47q30 55 50 127q14 47 23 92q8 45 11 74q4 33 7 75q4 41 6 83q7 78 7 141t-13 64q-16 2 -46 -37
q-29 -39 -62 -94q-40 -66 -74 -134q-34 -69 -39 -93q-5 -116 -10 -212q-7 -97 -25 -197q-7 -14 -33 -14q-6 0 -12 1q-37 3 -58 23l-8 10q-3 6 -3 13q3 95 12 177q8 83 18 155l8 49q16 103 34 185q21 101 30 179z" />
    <glyph glyph-name="E" unicode="E" horiz-adv-x="364" 
d="M244 784q14 10 27 10q6 0 11 -2q18 -5 29 -16q16 -7 64 -6q49 1 88 6q7 0 9 -5l-1 -3q0 -3 -3 -6q-41 -17 -86 -20q-46 -2 -65 -7q-3 -4 -8 -21q-6 -16 -13 -40q-12 -46 -29 -114t-32 -137q-19 -86 -33 -155q-13 -69 -11 -79q7 -7 51 1q43 9 75 26q11 0 10 -11t-9 -19
q-35 -21 -73 -25q-39 -5 -52 -8q-5 -5 -6 -27q1 -22 4 -46q2 -19 8 -33q5 -15 11 -16q13 -1 58 14q44 15 76 29q2 -3 2 -8t-5 -11q-35 -19 -80 -36q-45 -18 -61 -21q-12 -2 -25 -2q-23 0 -49 6q-43 10 -53 34q-8 61 -7 128q2 66 12 135l3 20q19 117 58 233q44 126 105 232z
" />
    <glyph glyph-name="F" unicode="F" horiz-adv-x="330" 
d="M419 775q12 1 11 -7v-1q-2 -9 -13 -13q-28 -5 -72 0q-43 5 -56 -4q-5 -9 -12 -33q-7 -25 -14 -58q-13 -64 -27 -145q-15 -81 -28 -143q6 -7 48 2q41 9 61 18q15 5 21 -5q4 -11 -6 -15q-19 -11 -62 -18q-42 -7 -63 -11q-4 -6 -10 -54t-9 -106q-1 -38 2 -74q2 -36 10 -61
q-3 -16 -15 -29q-12 -12 -28 -20q-21 -9 -44 -9h-7q-28 2 -43 21q-8 60 -7 126t11 135q2 16 4 31q18 113 54 227q40 129 88 239q9 15 43 15h3q37 0 76 -5q26 -2 50 -4q23 -2 34 1z" />
    <glyph glyph-name="G" unicode="G" horiz-adv-x="455" 
d="M480 601q-2 -12 -14 -19q-12 -6 -17 7l8 72q6 48 -7 80q-6 15 -16 23q-11 9 -28 10q-33 1 -62 -43q-30 -43 -53 -112q-13 -37 -24 -80q-11 -42 -19 -86q-18 -101 -22 -201q-3 -99 13 -163q7 -34 22 -53t37 -19q13 1 29 40q15 40 28 92q16 63 26 121q11 58 10 61
q-9 2 -26 0t-31 -2q-25 -3 -21 13q2 17 25 22q35 6 68 3q32 -3 66 0q21 1 18 -15v-1q-3 -17 -22 -18q-13 -1 -31 0q-17 0 -23 -2q-1 -17 -8 -55q-8 -39 -18 -84q-17 -67 -38 -129q-19 -61 -36 -68q-11 -7 -33 -7q-4 0 -7 1q-28 1 -56 10q-14 4 -26 11q-13 7 -21 15
q-65 72 -79 173q-13 87 1 176q2 13 5 27q11 54 30 105q19 52 44 97q46 84 108 137q58 51 118 51h5q66 -2 78 -55q13 -52 -1 -135z" />
    <glyph glyph-name="H" unicode="H" horiz-adv-x="435" 
d="M483 775q9 11 23 10q6 0 13 -1q21 -6 18 -22v-4q-22 -69 -43 -151q-21 -81 -39 -162q-21 -98 -36 -187q-15 -88 -21 -147q-4 -32 -4 -53q-2 -21 1 -27q-9 -14 -29 -17h-4q-17 0 -25 21q4 64 12 125q3 29 8 59l2 14q-42 -10 -84 -11q-37 -2 -73 -5q-5 -94 -1 -180
q-2 -17 -37 -34q-23 -11 -42 -11q-10 0 -19 3t-15 10q-7 7 -9 19q-11 55 -12 111t5 109q2 27 7 53q11 71 31 137q28 89 56 158q24 57 42 96q19 40 22 56q11 13 26 13q9 0 20 -6q26 -15 23 -46q-66 -184 -85 -353q-7 -59 -11 -114q36 3 72 5q44 2 88 10l5 28q22 113 52 232
q30 118 63 262z" />
    <glyph glyph-name="I" unicode="I" horiz-adv-x="304" 
d="M340 779q12 0 8 -7t-10 -12q-29 -1 -47 1q-19 2 -24 0v-138q1 -66 1 -130q-2 -118 -12 -231t-41 -235q10 0 28 -3q20 -3 43 -6q6 -2 5 -7q0 -1 -1 -2q-3 -6 -10 -9q-94 6 -142 11q-49 5 -102 -1q-3 4 -2 10q0 5 5 9q16 0 32 2q17 2 33 0q8 75 19 152l25 154
q24 140 44 256q22 116 25 168q-14 -1 -35 0t-44 1q-5 3 -4 8t7 10q22 1 43 1q39 0 73 -1q53 -1 83 -1z" />
    <glyph glyph-name="J" unicode="J" horiz-adv-x="427" 
d="M79 322q4 17 20 9q16 -7 15 -25q-5 -14 -19 -57q-14 -44 -20 -90q-5 -32 -4 -60q2 -29 14 -46q10 -15 28 -20q19 -5 49 5q12 4 25 24t26 52q22 59 42 150q21 91 39 190q15 82 30 162q14 80 27 145q-18 1 -60 -1q-42 -1 -63 -4q-4 4 -7 13q-2 9 14 11q36 1 73 1
q43 0 88 -1q83 -2 118 -4q16 1 14 -6v-1q-2 -9 -14 -13q-33 1 -66 3q-34 2 -52 2q4 -47 5 -107q2 -60 -1 -126q-5 -124 -31 -250q-27 -127 -93 -208q-14 -18 -33 -30q-20 -13 -40 -21q-41 -16 -79 -18h-13q-27 0 -39 7q-13 9 -20 27q-6 19 -8 45q-3 45 7 106l1 8
q12 65 27 128z" />
    <glyph glyph-name="K" unicode="K" horiz-adv-x="540" 
d="M550 728q-2 -56 -23 -105q-21 -50 -51 -92q-21 -28 -43 -52t-44 -45q-40 -37 -70 -60q-32 -23 -36 -28q5 -8 14 -62q11 -55 30 -115q13 -40 31 -75t42 -52q21 -15 45 -14q25 1 55 26q23 11 23 -8v-6q-3 -15 -20 -25q-30 -16 -58 -16h-8q-31 3 -58 21q-43 28 -75 82
q-33 54 -55 112q-11 31 -19 61q-8 29 -12 54h-8q-10 -52 -23 -106q-21 -81 -61 -158q-17 -33 -50 -33h-7q-38 4 -36 43q20 53 40 136q19 84 36 172q16 86 26 165q12 78 15 128q1 26 -1 41q0 16 -5 16q3 36 32 45q9 2 16 2q16 0 24 -14q-2 -9 0 -29t3 -50q5 -54 7 -134
q2 -78 -7 -167q41 3 88 56q56 64 102 144q26 43 47 85t35 73q8 21 21 21q5 0 9 -3q20 -9 29 -34z" />
    <glyph glyph-name="L" unicode="L" horiz-adv-x="342" 
d="M217 779q10 13 23 13q11 0 26 -9q30 -20 31 -72q4 -51 -4 -121q-7 -70 -21 -145q-10 -48 -19 -97q-11 -48 -22 -93q-20 -83 -38 -145q-17 -61 -22 -78q43 6 91 11q49 5 64 -1q6 -5 5 -11t-6 -9q-10 0 -39 -1t-59 -4q-17 -1 -30 -4q-15 -2 -24 -6q-14 -7 -31 -11
q-17 -5 -33 -7q-10 -1 -19 -1q-19 0 -36 5q-23 7 -24 27q73 279 128 473q55 195 59 286z" />
    <glyph glyph-name="M" unicode="M" horiz-adv-x="689" 
d="M169 788q9 18 29 18q5 0 12 -1q30 -6 39 -34q-3 -35 -8 -85q-6 -50 -12 -102q-9 -78 -18 -141q-8 -63 -8 -69q6 22 32 86q27 64 59 130q21 44 42 80q19 37 35 55q10 12 32 12q21 0 37 -15q8 -8 13 -20q5 -13 4 -30q-3 -26 -11 -79q-8 -52 -16 -112q-5 -31 -9 -62l-10 -60
q-7 -52 -12 -88q-4 -36 -3 -37q2 2 8 14q5 13 14 34q15 40 41 102q27 62 60 127q35 67 77 126t88 89q25 16 51 0q27 -16 32 -48q1 -25 -6 -66q-2 -16 -6 -35q-13 -66 -32 -144q-11 -42 -21 -85q-11 -43 -21 -85q-19 -78 -32 -143q-13 -64 -9 -93q-2 -28 -34 -32
q-6 -1 -11 -1q-25 0 -44 17q-7 7 -11 17t-4 23q11 101 30 190t39 163q40 137 74 216q33 79 25 83q-17 5 -47 -29q-28 -35 -62 -91q-18 -30 -36 -65q-19 -34 -37 -70q-33 -69 -62 -137q-30 -68 -46 -115q-7 -15 -15 -23q-9 -9 -18 -13q-22 -8 -44 4q-20 13 -23 31
q-4 48 4 112q9 64 22 129q12 63 25 120q12 56 18 91q3 19 3 30q-1 11 -5 11q-11 2 -44 -57q-32 -60 -64 -131q-27 -59 -48 -111q-20 -53 -24 -72q-5 -51 -8 -93q-3 -43 -10 -92q-5 -15 -13 -27q-9 -13 -19 -23q-32 -30 -69 -34t-36 26q-1 58 11 135q2 22 6 45q8 55 20 112
q20 97 41 189q22 91 35 152q7 33 10 54q4 22 0 27z" />
    <glyph glyph-name="N" unicode="N" horiz-adv-x="465" 
d="M170 775q17 23 39 23q5 0 9 -1q28 -5 35 -32q-6 -106 -20 -200q-14 -93 -27 -143q4 6 13 23t23 42q26 46 70 109q45 64 111 126q13 11 25 15q14 3 25 1q24 -5 39 -26q16 -21 15 -46q-1 -36 -6 -77q-6 -40 -14 -83q-16 -79 -37 -160q-20 -80 -33 -146q-10 -54 -11 -93
q0 -40 17 -55q1 -6 0 -11t-4 -10q-3 -9 -10 -15q-17 -17 -46 -17h-9q-35 3 -47 26q-21 42 -12 123q10 81 32 172q22 90 48 175t41 139q8 29 10 46t-3 17q-23 4 -72 -57q-48 -60 -92 -133q-31 -49 -53 -93q-23 -45 -31 -70q-4 -20 -8 -48q-4 -29 -7 -61q-8 -60 -16 -118
q-7 -59 -19 -81q-16 -24 -57 -20t-47 40q-5 49 8 133l1 3q14 86 35 181q10 50 22 100q12 49 23 94q20 84 33 142q12 59 7 66z" />
    <glyph glyph-name="O" unicode="O" horiz-adv-x="481" 
d="M251 -2h-5q-57 0 -91 21q-38 22 -57 58q-14 24 -19 53q-6 28 -8 60q-3 58 7 121v11q10 57 21 106q11 51 27 100q16 48 36 90q39 78 99 125q51 38 122 38q16 0 32 -1q22 -3 40 -21q19 -18 32 -47q27 -55 35 -140q10 -85 -3 -173l-1 -7q-7 -44 -21 -90q-14 -50 -33 -96
q-36 -86 -91 -146q-55 -61 -122 -62zM469 402q1 1 2 3q4 34 6 73q3 41 0 83q-3 76 -18 136q-17 60 -45 63h-4q-33 0 -72 -53q-40 -57 -72 -134q-17 -42 -30 -85q-14 -43 -21 -82q-3 -14 -6 -30q-3 -22 -6 -47q-5 -43 -7 -88q-3 -82 9 -149q13 -67 55 -70h8q53 -1 92 59
q41 64 69 148q14 45 24 90t16 83z" />
    <glyph glyph-name="P" unicode="P" horiz-adv-x="486" 
d="M251 763q5 -37 4 -72q-1 -36 -5 -68q-6 -59 -16 -100q-9 -40 -4 -44q6 4 32 64q25 59 61 120q24 42 51 74q28 33 57 42q34 9 67 -11t50 -53q10 -19 13 -39q3 -16 0 -33q0 -3 -2 -7q-10 -45 -46 -96q-36 -50 -82 -95q-68 -69 -138 -115q-70 -47 -90 -41q-14 -76 -16 -148
q-3 -72 -16 -130q-5 -19 -26 -19q-22 0 -44 12q-17 9 -31 24q-13 14 -11 30q5 93 18 179l4 28q12 70 25 134q29 141 59 239q28 97 30 128q6 23 20 23q4 0 10 -2q21 -10 26 -24zM208 331q3 -9 12 -9q7 0 18 5q24 13 33 20q32 24 66 72q33 48 61 101q15 29 27 58q13 29 22 55
q11 35 16 63q2 12 2 22q3 36 -17 44h-2q-16 0 -59 -56q-46 -62 -93 -156q-26 -51 -48 -107q-23 -56 -38 -112z" />
    <glyph glyph-name="Q" unicode="Q" horiz-adv-x="466" 
d="M482 386l-4 -25q-6 -34 -14 -68q-12 -47 -27 -90q-30 -79 -71 -135l-6 -8q7 -9 13 -19q21 -32 48 -55q13 -13 13 -22q-1 -6 -10 -11q-10 -6 -18 -5q-7 0 -12 5q-14 10 -29 30q-16 20 -31 42q-1 2 -3 4q-23 -20 -46 -23q-18 -2 -36 -2q-63 0 -102 33q-49 42 -65 121
q-10 42 -10 93t8 108l3 16q6 36 14 76q12 49 28 98q33 90 92 159q58 70 153 73h3q34 0 56 -18q23 -19 37 -51q27 -60 26 -151q0 -92 -10 -175zM271 110q-6 10 -5 17q0 5 5 9q6 5 13 5t16 -5q8 -3 16 -13t17 -24q7 -10 14 -21q5 8 9 16q35 60 61 136q14 41 26 82q10 39 15 71
l1 4q10 69 11 151t-22 139q-13 30 -33 49q-20 18 -51 18h-1q-40 0 -67 -59q-29 -60 -47 -135q-12 -51 -20 -99l-13 -82q-5 -40 -4 -82q0 -43 6 -83q9 -74 31 -126q20 -50 42 -49h2q13 2 27 15q-14 22 -26 41q-18 27 -23 25z" />
    <glyph glyph-name="R" unicode="R" horiz-adv-x="550" 
d="M251 774q8 -67 0 -133q-9 -66 -17 -110q-5 -24 -6 -38q-3 -15 0 -18q6 5 32 61q28 56 67 115q25 39 54 70q28 31 56 40q34 9 67 -10q33 -20 50 -54q9 -18 13 -38q2 -16 0 -32l-1 -7q-9 -34 -31 -67q-22 -34 -53 -65q-25 -25 -55 -47q-28 -23 -57 -42q-37 -25 -72 -43
q26 -19 44 -56q23 -47 43 -96q10 -26 22 -50q11 -24 24 -41q17 -22 39 -30q20 -8 49 5q26 9 22 -16v-1q-5 -26 -42 -32q-16 -3 -30 -3q-27 0 -48 12q-32 17 -56 49q-30 38 -52 87q-23 48 -47 87q-13 20 -28 35q-10 10 -23 16q-7 -2 -12 -1q-13 -75 -12 -154q1 -78 -20 -138
q-4 -19 -26 -19t-44 12q-19 9 -31 24q-14 14 -12 30q1 85 12 168q3 26 7 51q9 55 20 107q31 141 64 243t34 132q7 23 20 23q4 0 10 -2q20 -9 26 -24zM210 352h8q12 0 26 5q19 7 28 14q32 24 66 67q34 44 62 92q44 72 64 137q6 16 8 29q5 39 -17 48q-2 1 -3 1q-8 0 -22 -12
q-19 -15 -43 -43q-45 -53 -97 -143q-52 -91 -80 -195z" />
    <glyph glyph-name="S" unicode="S" horiz-adv-x="436" 
d="M518 618q-14 -21 -32 -21q-18 -1 -18 22q10 25 12 58q2 34 -12 57q-7 13 -21 20q-13 8 -33 7q-21 0 -39 -8q-20 -9 -36 -23q-30 -25 -50 -62t-26 -66q-3 -21 0 -42q5 -21 15 -42q18 -40 48 -84q31 -43 56 -92q19 -41 29 -86q9 -46 -2 -98q-6 -28 -21 -52t-34 -44
q-37 -36 -85 -55q-47 -18 -88 -19q-2 0 -3 1q-82 1 -113 59q-21 38 -12 97q5 31 18 67q34 30 56 15q23 -16 4 -48q-18 -32 -21 -71q-4 -39 13 -66q9 -15 24 -24q16 -8 38 -9q19 0 37 8q17 8 32 22q29 25 46 62q19 37 26 66q6 24 1 47q-3 24 -13 47q-18 44 -50 88t-57 91
q-22 39 -32 81t1 88q21 87 94 131q72 43 147 43q68 0 94 -53q21 -41 13 -86q-2 -13 -6 -26z" />
    <glyph glyph-name="T" unicode="T" horiz-adv-x="342" 
d="M441 769l-1 -6q0 -4 -3 -7q-3 -5 -16 -6q-34 3 -101 9q-4 -196 -31 -390q-28 -195 -79 -352q-14 -13 -35 -13h-3q-23 1 -42 13q-12 8 -20 20t-8 26q7 2 14 20q7 19 14 49q15 57 33 145t37 180q18 94 35 176q17 83 29 124q-19 3 -55 0q-35 -3 -70 0q-4 5 -3 11q0 7 17 10
h56q50 0 100 -1q78 -1 132 -8z" />
    <glyph glyph-name="U" unicode="U" horiz-adv-x="515" 
d="M478 -4q-10 -12 -25 -12q-9 0 -21 5q-30 14 -25 29q-1 14 -2 33q-2 20 -3 42q-1 41 0 85q0 45 5 75q-8 -15 -37 -66q-30 -52 -69 -98q-26 -31 -54 -52q-27 -21 -53 -19q-22 1 -40 14q-17 13 -30 35q-21 41 -28 108q-5 67 -2 143q3 51 8 103t12 101q11 90 23 159
q11 69 10 88q12 23 35 28q8 1 16 1q14 0 27 -5q14 -5 25 -15q11 -11 15 -24q3 -57 -7 -147q-10 -89 -26 -184q-13 -92 -27 -178q-13 -85 -16 -138q-1 -28 1 -45q3 -16 11 -17q24 -1 68 48q45 49 82 108q26 39 44 75q18 35 21 56q3 12 8 37q5 26 12 58q13 62 31 138
q18 77 42 140q10 23 41 23q31 1 42 -28q-48 -182 -81 -312t-43 -224q-5 -50 -3 -92q2 -41 13 -76z" />
    <glyph glyph-name="V" unicode="V" horiz-adv-x="539" 
d="M147 744v7q3 9 6 16q4 9 12 15q15 12 36 12q8 0 16 -1q31 -6 56 -28q13 -11 21 -28q10 -16 11 -36q5 -45 4 -117q0 -71 -4 -149q-1 -40 -3 -80q-3 -40 -4 -77q-4 -68 -7 -115q-2 -48 -1 -57q3 0 12 16q7 16 19 44q20 51 52 132q30 80 68 165q38 88 80 167q43 78 85 121
q8 6 18 -2q4 -4 4 -9q-1 -7 -10 -17q-18 -4 -42 -46q-25 -42 -54 -105q-15 -34 -31 -72q-16 -39 -33 -79q-21 -49 -41 -99q-19 -50 -38 -96q-34 -85 -62 -145q-27 -60 -40 -65q-23 -9 -40 -9q-6 0 -11 1q-19 5 -29 19q-19 27 -17 73q4 46 0 70q-1 18 -1 75t1 129q0 38 -1 79
q0 41 -2 80q-2 74 -9 133t-21 78z" />
    <glyph glyph-name="W" unicode="W" horiz-adv-x="686" 
d="M141 785q15 28 52 28h1q37 0 58 -22q8 -8 11 -18t2 -22q-28 -82 -45 -163q-18 -81 -28 -155q-19 -136 -20 -228q0 -92 1 -92q5 0 11 10t13 29q12 34 30 91t40 119q22 65 48 127q27 63 57 106q12 18 38 23q28 6 45 -8q8 -6 11 -17q5 -10 2 -25q-9 -48 -18 -119
q-9 -70 -15 -143q-2 -38 -4 -74q-1 -37 0 -70q1 -60 9 -99q9 -40 28 -39q5 1 10 26q4 25 13 70q15 84 52 229q36 145 119 327q4 9 12 16q7 8 16 13q35 21 73 12q32 -8 28 -28q-1 -5 -4 -10q-18 -26 -42 -88q-23 -62 -49 -138q-14 -42 -28 -85t-29 -85q-27 -81 -52 -149
t-46 -101q-22 -30 -55 -38q-10 -2 -18 -3q-20 0 -30 15q-28 39 -35 104q-7 66 -4 136q3 69 12 133t14 106l6 35q1 13 0 15q-1 0 -5 -11q-6 -11 -14 -30q-14 -34 -37 -88q-22 -54 -45 -111q-24 -58 -45 -109t-32 -76q-6 -12 -15 -21q-10 -10 -22 -17q-36 -23 -76 -23
q-40 -1 -44 24q-7 37 -3 119q4 83 13 178q5 51 10 101q6 51 11 97q9 87 14 148t0 68z" />
    <glyph glyph-name="X" unicode="X" horiz-adv-x="515" 
d="M88 49q-11 -10 -21 -10q-5 0 -9 2q-11 4 -11 15q1 2 2 5q13 4 58 58t105 133q33 43 70 91q2 4 6 9q-17 67 -39 135q-42 121 -104 216q-4 11 -3 23q3 15 15 30q16 19 33 19q6 0 13 -3q7 -14 29 -50q23 -36 54 -89q36 -64 76 -150q4 -11 9 -21q48 63 94 124q56 72 100 128
q8 11 21 11q5 0 11 -2q17 -5 15 -18q0 -2 -1 -4q-54 -58 -100 -120q-47 -62 -91 -124q-16 -22 -30 -43q21 -55 38 -116q14 -53 22 -110q8 -56 8 -114q0 -6 -1 -11q-1 -9 -4 -16q-6 -11 -15 -20q-20 -19 -49 -22q-5 -1 -8 -1q-21 0 -25 12q-7 50 -17 109t-24 122
q-6 23 -11 46l-44 -60q-77 -108 -172 -184z" />
    <glyph glyph-name="Y" unicode="Y" horiz-adv-x="419" 
d="M274 -29q-6 -6 -20 -6q-16 0 -43 8q-47 16 -37 45q24 -4 49 42t49 109q18 50 33 101q15 52 26 90q5 20 9 35q3 14 4 20q-8 -16 -30 -47t-65 -31q-37 1 -60 38q-24 37 -38 91q-12 53 -17 113q-4 60 -3 109q2 26 4 46l2 14q2 12 4 20q18 29 51 39q10 3 18 3q16 0 18 -14
q-3 -41 -5 -97q-2 -57 -2 -114q0 -87 8 -155t28 -69q28 -1 59 39q30 39 38 71q6 16 20 56q15 40 34 86q10 25 19 49q11 25 21 46q14 30 44 34q29 3 29 -24q-22 -42 -45 -121q-23 -80 -46 -173q-12 -49 -25 -98q-13 -50 -26 -97q-24 -88 -50 -158t-55 -100z" />
    <glyph glyph-name="Z" unicode="Z" horiz-adv-x="437" 
d="M97 6q-8 -2 -16 -2q-24 0 -35 20q-11 21 -8 44q1 6 3 12q17 40 61 116q45 76 97 162l57 92q29 45 55 87q48 79 82 137q33 58 36 72q-17 5 -66 -11q-49 -15 -113 -19q-24 0 -24 24q-2 23 24 21q48 -10 104 4q55 14 124 18h1q17 0 37 -22q12 -13 9 -31q-2 -14 -14 -31
q-36 -49 -84 -128q-49 -79 -96 -165q-25 -45 -48 -89q-24 -45 -45 -86q-38 -75 -60 -129t-17 -64q2 -4 29 -3q26 2 61 7q43 5 84 12q42 7 52 10q6 -2 10 -10q4 -7 -8 -13q-69 -6 -146 -15t-146 -20z" />
    <glyph glyph-name="bracketleft" unicode="[" horiz-adv-x="2299" 
d="M1888 340q-39 13 -61 37q-23 24 -31 55q-14 56 17 123t96 114q33 23 73 38q42 15 88 18h13q35 0 68 -10q37 -12 66 -34q57 -43 85 -116q29 -73 24 -159q-2 -18 -5 -37q-8 -53 -31 -108q-31 -73 -91 -140q-74 -80 -184 -96q-39 -6 -82 -6q-75 0 -160 18q-137 29 -293 95
q-154 66 -310 144q-101 52 -199 104q-99 52 -191 99q-171 88 -307 141q-137 52 -211 29q-39 -12 -64 -33t-39 -46q-27 -50 -16 -109q10 -59 46 -100q19 -22 43 -37q25 -14 53 -16q21 -2 37 3q16 4 29 13q37 26 37 65q-1 40 -38 29q-27 0 -26 41q2 41 27 48q26 7 43 4
q19 -3 29 -13q23 -18 22 -56q-3 -38 -22 -77q-9 -21 -24 -39q-15 -19 -33 -33q-17 -13 -37 -21q-21 -7 -42 -6q-36 1 -69 15q-32 14 -58 38q-47 43 -67 108q-13 44 -6 87q3 21 11 41q16 41 53 76q38 35 102 58q37 13 84 11q49 -2 106 -16q106 -26 238 -85q132 -60 276 -132
q119 -60 243 -122q123 -62 243 -115q149 -65 284 -106q137 -41 245 -36q59 3 108 22t87 58q56 58 82 122q25 63 28 124q0 40 -7 77q-8 37 -23 69q-26 59 -74 95q-46 37 -99 35q-60 -1 -113 -39q-52 -37 -82 -87q-15 -26 -24 -54q-7 -27 -3 -51q4 -23 18 -42t41 -29
q14 -6 26 -6t22 4q29 13 31 48q3 34 -33 49q-19 21 -1 35q17 13 43 5q20 -7 33 -20q13 -14 19 -31q11 -31 0 -67t-43 -57q-22 -14 -51 -17q-31 -4 -69 9z" />
    <glyph glyph-name="backslash" unicode="\" horiz-adv-x="574" 
d="M147 840q4 21 32 23h7q23 0 32 -13q-4 -7 0 -26q3 -19 12 -48q17 -52 50 -130q33 -77 71 -164l94 -212q48 -106 78 -180q16 -41 25 -69q8 -28 6 -40q1 -2 1 -3q-2 -13 -24 -13h-3q-29 1 -25 34q4 2 -1 18q-4 16 -15 42q-18 50 -54 128q-34 79 -74 168q-27 58 -55 117
q-26 60 -52 115q-46 101 -77 174q-30 70 -28 79z" />
    <glyph glyph-name="bracketright" unicode="]" horiz-adv-x="1862" 
d="M213 290q6 -9 -6 -23q-14 -15 -26 -9q6 23 -13 31q-18 8 -32 -8q-25 -28 -24 -67q1 -38 25 -64q13 -14 32 -22q18 -9 43 -8q53 3 121 41t135 99l11 11q-5 19 -8 38q-17 96 -12 197q5 102 32 188q19 58 45 95q27 37 56 56q25 15 49 18q9 2 17 2q16 0 30 -5q39 -14 63 -62
q23 -48 10 -123q-12 -69 -45 -143q-34 -73 -81 -142q-37 -55 -82 -105q10 -43 25 -82q29 -79 77 -131q49 -52 116 -57q52 -5 105 18t103 64q19 16 39 36q-47 92 -57 189q-6 55 0 107t22 98q22 59 52 95t61 50q58 27 107 -14q47 -41 42 -135q-3 -60 -27 -127t-64 -131
q-27 -45 -60 -86q37 -65 94 -116q71 -63 164 -84q50 -11 106 -8q55 3 115 25q76 27 140 119q63 93 91 199q14 56 16 111q1 55 -16 99q-15 43 -47 72q-33 29 -86 39q-46 8 -87 -21q-43 -28 -44 -72q0 -42 35 -43q34 -2 73 38q7 6 13 6q5 1 8 -2q11 -8 6 -35q-5 -26 -24 -30
q-56 -38 -102 -16t-43 80q3 59 56 104q54 45 114 35q63 -10 104 -42t64 -78q15 -31 21 -68q7 -37 6 -76q-1 -31 -5 -61q-8 -45 -23 -90q-26 -77 -71 -143q-38 -54 -88 -96q-48 -43 -107 -63q-113 -41 -205 -41q-16 0 -32 1q-104 8 -178 54q-83 51 -131 133q-60 -59 -124 -93
q-39 -21 -78 -31q-39 -11 -76 -9q-73 5 -125 44q-54 39 -90 101q-24 40 -40 88q-3 7 -5 14q-67 -63 -136 -101q-41 -23 -81 -36t-78 -14q-39 -1 -67 11q-29 13 -47 34q-32 39 -25 94v3q9 54 60 93q27 21 57 16q30 -4 37 -33zM603 411q46 64 79 133t42 135q11 76 -24 107
q-34 32 -75 3q-17 -12 -33 -37q-16 -24 -27 -62q-21 -67 -27 -145q-7 -78 0 -155q2 -27 6 -54q30 36 59 75zM1097 228q48 69 78 146t34 146q2 40 -6 65q-7 25 -21 36q-25 21 -62 -6q-36 -27 -60 -101q-25 -75 -18 -154q5 -79 37 -149q0 -3 1 -5q9 11 17 22z" />
    <glyph glyph-name="asciicircum" unicode="^" horiz-adv-x="431" 
d="M106 569q19 3 59 43q42 39 81 81l60 60q27 27 35 26q9 0 31 -42q24 -42 48 -91q20 -40 38 -74q18 -33 28 -41l-1 -3q-2 -16 -19 -18q-18 -3 -33 6q-10 17 -20 38q-9 21 -18 43q-17 40 -30 74t-20 41q-9 -1 -35 -39q-26 -37 -60 -82q-18 -24 -37 -47q-19 -22 -38 -39
q-5 -1 -11 -1q-14 0 -30 6q-23 8 -32 25q-4 7 -3 15v3q1 7 7 16z" />
    <glyph glyph-name="underscore" unicode="_" horiz-adv-x="421" 
d="M31 -17q-24 4 -22 19v2q2 14 20 24q22 2 54 4q32 1 68 3q67 2 138 3h12q61 0 94 -4q16 -7 18 -25v-5q-2 -14 -33 -21q-5 7 -49 8q-43 1 -98 0q-67 -2 -130 -6q-50 -2 -66 -2h-6z" />
    <glyph glyph-name="grave" unicode="`" horiz-adv-x="157" 
d="M145 786v9q3 14 19 27q17 14 33 14h5q22 -18 32 -42t21 -53q2 -11 0 -23l-1 -10q-5 -15 -19 -15h-2q-10 3 -21 11q-10 9 -18 20q-17 20 -28 41q-13 20 -21 21z" />
    <glyph glyph-name="a" unicode="a" horiz-adv-x="528" 
d="M395 443q2 -4 0 -9q-1 -4 -7 -6q-15 18 -33 19t-37 -10q-34 -20 -70 -73q-34 -52 -60 -111q-33 -75 -44 -138q-10 -62 19 -62q13 0 39 42q25 43 53 98q35 68 63 132t31 71q9 15 42 20q35 6 47 -7q4 -3 4 -8q1 -4 -1 -10q-6 2 -27 -52q-20 -53 -42 -123q-18 -55 -34 -111
q-17 -55 -24 -91q-4 -19 -5 -30t2 -12q15 -2 51 45q38 48 76 105q31 47 58 89q25 41 36 56q7 2 15 1t15 -6q-9 -13 -36 -58q-26 -45 -61 -96q-43 -63 -88 -116q-43 -50 -69 -50h-3q-23 3 -35 17t-15 36q-3 18 -2 40q2 22 6 45q9 43 23 85l20 65q-5 -11 -14 -32
q-11 -24 -27 -53q-23 -43 -50 -82t-46 -41q-54 -5 -97 21t-35 83l2 11q11 70 43 134q35 68 78 117q23 26 46 45t44 29q9 5 23 8t30 4h12q23 0 45 -6q29 -7 39 -25z" />
    <glyph glyph-name="b" unicode="b" horiz-adv-x="511" 
d="M267 761q-5 -24 -12 -62q-8 -39 -17 -85q-18 -84 -36 -175q-19 -90 -31 -138q32 82 86 107q55 24 95 -10q22 -18 35 -53q13 -36 13 -88q-1 -61 -18 -112q-3 -12 -7 -24q29 21 59 47q44 39 77 91q9 5 17 5t16 -5q-39 -62 -85 -106q-45 -43 -90 -74q-10 -7 -20 -13
q-4 -6 -7 -12q-46 -75 -103 -103q-27 -13 -46 -13q-24 0 -37 18q-10 12 -7 22q4 11 17 22q24 20 72 43q4 2 8 3q6 16 13 35q11 32 19 68t8 69q0 113 -37 133q-37 21 -79 -90q-3 -11 -6 -29q-1 -17 -5 -39l-11 -88q-5 -47 -12 -87q-13 -29 -44 -21q-31 7 -29 42q1 63 10 138
q9 76 21 153q13 93 29 178q14 85 21 141q4 30 5 50q0 20 -4 25q-1 12 1 22l1 6q4 12 11 20q18 22 50 22q5 0 11 -1q40 -4 48 -32zM191 -12q-26 -10 -20 -19q13 -21 40 16q6 8 12 17q-18 -8 -32 -14z" />
    <glyph glyph-name="c" unicode="c" horiz-adv-x="467" 
d="M285 360q7 21 9 46q1 26 -15 28q-18 2 -46 -51q-27 -53 -49 -125q-17 -56 -25 -114t0 -97q3 -22 13 -36t26 -18q33 -8 85 40q50 47 98 107q26 33 47 64q22 32 38 56q8 5 16 5q8 -1 14 -8q-16 -27 -39 -62q-23 -34 -51 -70q-50 -65 -110 -116q-50 -42 -97 -42q-9 0 -18 1
q-46 8 -77 35q-31 28 -46 67q-27 68 -12 159l2 12q17 98 71 177q19 28 41 45q23 17 45 24q19 7 37 7q30 0 55 -19q39 -29 31 -89q-2 -11 -5 -21q-2 -10 -6 -20q-9 -8 -21 -2q-12 7 -11 17z" />
    <glyph glyph-name="d" unicode="d" horiz-adv-x="572" 
d="M534 735q0 -10 -5 -37q-6 -27 -16 -64q-19 -70 -51 -168q-31 -97 -62 -193q-15 -42 -27 -82q-13 -39 -24 -74q-20 -64 -32 -105q-10 -41 -5 -42q24 -8 73 44q48 52 94 114q30 41 54 76q25 36 35 52q8 5 16 4q9 -1 16 -7q-10 -15 -35 -53q-24 -38 -56 -83q-18 -24 -37 -48
q-18 -24 -38 -46q-36 -41 -72 -67q-29 -20 -52 -20q-7 0 -12 2q-16 4 -25 16q-8 13 -12 32q-7 35 -1 86l4 34q-18 -30 -39 -54q-28 -33 -52 -34q-63 -5 -97 35q-34 39 -33 106q0 20 3 41q3 18 8 37q11 42 33 89q19 40 46 66t55 39q52 23 98 5q45 -19 48 -69q6 19 19 62
q15 43 30 93q8 26 17 53q8 27 14 51q12 46 16 79t-6 39q11 28 40 39q11 4 22 5q14 0 27 -8q8 -6 14 -17q7 -11 7 -28zM278 174q12 53 26 98q13 45 19 66q-13 64 -47 61q-36 -2 -78 -101q-15 -33 -24 -65q-8 -31 -12 -60q-7 -53 0 -88q6 -35 21 -35q13 0 35 28q21 28 42 61
q8 15 16 28q0 3 2 7z" />
    <glyph glyph-name="e" unicode="e" 
d="M157 155q-6 -51 2 -90q9 -39 39 -46q32 -8 83 33q50 40 97 95q25 30 46 59q22 30 37 54q9 7 17 6q7 -1 14 -9q-17 -27 -39 -60q-23 -32 -50 -64q-50 -61 -109 -105q-49 -36 -95 -36q-9 0 -19 1q-47 9 -77 35t-45 64q-26 63 -13 146l3 15q18 93 70 165q23 32 49 50
q24 18 48 23q11 2 21 2q30 0 52 -22q29 -30 22 -85q-13 -87 -77 -134q-29 -22 -66 -38v-1q-6 -29 -10 -58zM228 282q48 47 57 97q8 50 -11 55q-17 4 -44 -45q-27 -50 -47 -117q-5 -15 -9 -30q32 18 54 40z" />
    <glyph glyph-name="f" unicode="f" horiz-adv-x="445" 
d="M126 96l-6 -22q42 7 93 22q62 18 119 54q31 19 59 44q28 26 49 58q9 5 17 5t15 -6q-27 -42 -58 -73t-64 -53q-58 -41 -113 -56q-53 -14 -81 -13q33 -20 51 -53t24 -72q10 -70 -15 -143q-26 -73 -72 -102q-21 -14 -53 -14h-3q-33 1 -60 14q-14 7 -24 18t-13 25
q-3 13 -2 41q1 27 6 66l7 51q8 55 22 122q20 100 46 205q28 106 60 203q31 98 62 159q20 48 68 67q24 9 44 9q21 0 38 -11q10 -7 18 -19q7 -12 8 -29q5 -46 -9 -109q-14 -62 -42 -124q-16 -34 -35 -65q-19 -32 -40 -59q-35 -41 -74 -68q-15 -10 -32 -17q-5 -28 -10 -55z
M148 183q27 14 49 36q37 35 63 86q27 51 43 103q25 79 28 143q2 64 -20 67q-26 4 -59 -72q-33 -77 -64 -190q-18 -61 -33 -127q-6 -24 -12 -49q3 2 5 3zM91 -94q-13 -88 -17 -142q-1 -29 1 -45t9 -15q15 1 33 42q20 42 30 97q6 31 6 62q1 31 -4 60q-6 27 -17 51
q-8 13 -18 24q-13 -70 -23 -134z" />
    <glyph glyph-name="g" unicode="g" horiz-adv-x="510" 
d="M506 253q7 5 15 4t16 -8q-65 -93 -127 -151q-51 -48 -92 -80l-1 -6q-13 -68 -32 -133q-18 -64 -43 -114q-24 -47 -57 -76q-31 -28 -71 -27h-2q-16 0 -26 8q-10 7 -14 20q-10 34 11 94q21 59 56 112q19 28 40 51q17 18 33 29q4 21 8 41q9 54 17 90q-12 -32 -30 -51
q-17 -19 -36 -25q-35 -13 -68 10q-34 24 -49 73q-7 26 -8 57q0 20 3 42q2 12 5 25q15 62 41 109t57 79q56 60 115 71q14 2 25 2q39 0 56 -29q0 -6 -4 -11t-11 -2q-20 15 -38 13q-18 -1 -35 -14q-31 -24 -57 -80q-25 -56 -39 -117q-20 -78 -19 -143q0 -64 28 -65q19 -1 40 47
q22 49 39 109q13 40 22 78q10 39 15 64q4 9 10 15q6 5 13 9q21 10 45 0q22 -9 23 -28q-5 -1 -9 -16q-5 -14 -10 -40q-8 -47 -18 -122q-9 -54 -18 -111q36 29 77 69q57 56 104 128zM181 -103q-21 -38 -36 -79q-21 -52 -29 -94q-9 -42 2 -42q26 1 46 70q20 68 35 153
q3 15 5 29q-11 -14 -23 -37z" />
    <glyph glyph-name="h" unicode="h" horiz-adv-x="518" 
d="M199 732q10 -6 13 -41q1 -35 -2 -85q-1 -27 -3 -56q-3 -30 -7 -59q-5 -55 -11 -104q-7 -48 -9 -72q9 23 36 62q26 38 59 66q17 15 34 24q19 9 35 8q18 -1 26 -15q9 -13 12 -36q4 -41 -8 -105t-28 -129q-22 -81 -40 -145q-18 -63 -8 -66q19 -6 57 39q39 45 78 101
q25 37 48 71q21 34 33 54q9 5 17 4q7 -2 16 -7q-14 -21 -37 -58q-22 -37 -50 -78q-43 -61 -89 -110q-41 -41 -72 -41q-6 0 -11 1q-49 12 -50 78q-3 67 15 147q7 34 17 68q9 35 19 66q17 58 30 97q12 39 5 40q-17 1 -46 -28q-27 -29 -53 -66q-14 -21 -27 -41q-13 -21 -20 -38
q-7 -37 -16 -81q-8 -44 -17 -78q-4 -17 -8 -30t-7 -18q-24 -32 -55 -31t-45 47q2 25 7 58q5 29 13 65q15 75 33 156l20 84q8 42 16 79q15 70 22 120q7 49 -3 58q13 26 30 29q4 1 9 1q12 -1 22 -5z" />
    <glyph glyph-name="i" unicode="i" horiz-adv-x="347" 
d="M108 415q10 20 39 30q15 5 26 5q12 0 19 -5q5 -4 8 -10q2 -6 1 -15q-2 -5 -20 -62t-36 -129q-16 -57 -28 -113q-13 -56 -16 -91q-2 -20 1 -31q2 -11 9 -12q15 -1 62 51q46 52 91 111q29 39 54 72q24 33 32 46q9 4 16 3t14 -8q-4 -7 -13 -21t-22 -32q-24 -33 -57 -77
t-67 -82q-36 -40 -67 -67q-30 -25 -49 -25h-3q-35 3 -53 22q-18 20 -23 51q-5 33 0 74l2 11q6 36 16 73q20 80 46 149q25 69 18 82zM147 612v5q3 16 22 34q21 21 44 21q2 -16 20 -22q20 -5 17 -25v-3q-3 -16 -16 -35q-13 -21 -34 -23q-3 -1 -6 -1q-19 0 -32 16
q-15 18 -15 33z" />
    <glyph glyph-name="j" unicode="j" horiz-adv-x="425" 
d="M425 252q8 3 15 3q8 -1 16 -7q-64 -93 -126 -149t-110 -89l-1 -1q-3 -16 -5 -34q-11 -55 -24 -106q-26 -93 -65 -156t-98 -64h-1q-22 1 -34 9t-18 22q-8 20 -3 49q3 19 11 43q22 58 57 112q25 36 51 65q19 21 36 34q13 95 27 201q7 60 16 122l20 122q4 10 10 16t13 9
q8 3 15 3q15 0 30 -11q24 -16 25 -35q-9 -1 -16 -46q-6 -45 -14 -114q-5 -37 -10 -80q-4 -42 -11 -86q-3 -19 -6 -37q43 29 88 72q30 28 58 61q29 33 54 72zM92 -95q-22 -40 -39 -85q-21 -55 -29 -101q-7 -46 9 -46q21 -1 36 34q15 34 28 93q13 63 25 147q-14 -15 -30 -42z
M271 680q3 1 6 1q16 0 34 -13q22 -15 22 -39q-15 -3 -21 -18q-4 -15 -11 -27q-3 -5 -6 -9q-4 -3 -10 -4q-4 -1 -8 -1q-15 0 -30 8q-18 10 -21 31q-1 9 1 18q2 13 9 27q14 23 35 26z" />
    <glyph glyph-name="k" unicode="k" horiz-adv-x="498" 
d="M203 700q8 -9 2 -56q-5 -48 -14 -106q-13 -71 -25 -134q-10 -62 -8 -65q5 9 23 38q18 30 44 58q15 15 31 28q16 12 33 18q36 11 75 0q37 -11 29 -61v-1q-4 -24 -17 -46q-14 -23 -33 -44q-46 -49 -105 -81q10 -11 15 -33q5 -32 6 -72q0 -61 -4 -118q-3 -57 14 -61
q13 -4 56 47q43 50 87 109q29 40 52 75q25 35 36 52q8 2 17 2q8 -1 13 -7q-15 -26 -42 -66q-26 -40 -57 -81q-46 -62 -95 -110q-44 -45 -71 -45q-2 0 -5 1q-25 4 -38 22q-14 18 -19 44q-9 39 -8 88q1 48 -4 84q-3 20 -10 33q-3 6 -6 10q-16 -4 -26 -2q-3 -18 -5 -39l-2 -40
q-2 -39 -5 -72q-2 -33 -10 -47q-11 -10 -37 -15q-11 -2 -19 -2q-17 0 -30 7q-8 5 -14 13q-5 8 -5 20q3 66 15 142l3 20q11 65 23 128q17 89 34 166q16 77 24 124q5 26 5 40q1 15 -4 16q14 41 43 43h4q25 1 34 -24zM152 249q2 -1 4 -1q10 0 27 6q20 6 25 11q19 16 37 36
t33 42q26 40 36 74q0 5 2 9q4 26 -17 28h-1q-17 0 -66 -54q-51 -56 -80 -151z" />
    <glyph glyph-name="l" unicode="l" horiz-adv-x="391" 
d="M177 291q-11 -41 -19 -79t-13 -73q-11 -63 -11 -106t16 -48q19 -7 62 38q43 44 86 99q29 37 53 71q25 35 38 56q9 4 17 4q7 -1 14 -7q-15 -25 -41 -63q-25 -39 -55 -79q-46 -60 -96 -106q-42 -37 -78 -37q-8 -1 -17 1q-27 7 -45 27q-17 20 -26 51q-16 56 -7 139l5 35
q11 66 31 136q27 90 65 173t78 137q19 20 47 27q24 6 38 6h6q44 -4 39 -69q-4 -66 -40 -142q-20 -42 -47 -81t-59 -68q-18 -17 -39 -30zM196 349q23 22 44 52q21 29 38 61q14 26 24 53q11 26 18 50q14 45 16 76t-10 33q-14 2 -40 -53q-26 -56 -54 -139q-14 -44 -29 -93
q-7 -23 -13 -45q2 2 6 5z" />
    <glyph glyph-name="m" unicode="m" horiz-adv-x="721" 
d="M171 375q19 23 53 61q33 36 63 36h1q30 0 46 -24q17 -24 23 -53q3 -16 4 -32q1 -15 1 -28q15 35 60 76q44 41 86 40q36 -1 43 -42q8 -40 1 -99q-4 -31 -12 -66q-7 -34 -16 -68q-19 -79 -35 -142q-16 -62 -3 -64q15 -4 58 44q41 48 86 109q23 32 45 64q22 33 38 58
q9 5 17 4t14 -6q-25 -41 -70 -108t-92 -119q-32 -35 -60 -57q-24 -17 -42 -17q-5 0 -9 1q-44 10 -45 74q-2 65 15 144q6 34 15 68q8 34 16 65q14 57 21 96q7 38 -6 39q-24 0 -66 -44q-41 -45 -58 -97q-9 -42 -14 -83q-6 -41 -13 -62q-10 -18 -47 -17q-37 0 -44 23
q5 28 12 67q6 39 13 79q10 60 13 107q4 48 -10 48q-12 -1 -34 -21t-41 -45q-12 -17 -22 -32q-9 -16 -11 -27q-3 -60 -13 -128l-20 -123q-28 -42 -63 -46q-35 -5 -46 23q-1 32 5 73q6 42 16 86q17 82 32 155q16 72 1 90v1q2 15 21 15t40 -21q10 -12 19 -30q9 -19 14 -45z" />
    <glyph glyph-name="n" unicode="n" horiz-adv-x="527" 
d="M164 493q10 -1 16 -10t7 -23q4 -27 -1 -67l-10 -78q10 23 36 62q26 38 59 66q17 15 35 24t35 8q41 -3 41 -67q0 -63 -17 -144q-7 -35 -16 -70q-8 -35 -17 -68q-16 -60 -26 -102q-9 -42 -2 -44q19 -6 59 39q39 45 78 100q26 37 49 71t35 54q9 4 17 4q8 1 16 -7
q-14 -21 -37 -58q-24 -38 -52 -79q-44 -61 -93 -111q-40 -42 -72 -42q-5 0 -11 1q-22 6 -33 23q-13 17 -18 43q-7 41 2 97q8 56 22 114q21 85 42 153q22 68 12 69q-17 1 -45 -28t-54 -67q-14 -20 -26 -40q-13 -21 -22 -39q-4 -19 -7 -41q-5 -22 -9 -43q-8 -40 -16 -72
q-9 -33 -14 -42q-30 -27 -62 -37q-31 -10 -46 35q1 22 5 45q3 21 8 42q11 45 23 88q24 79 43 140q18 62 3 76q12 16 29 22q13 4 25 4q5 0 9 -1z" />
    <glyph glyph-name="o" unicode="o" horiz-adv-x="507" 
d="M311 453q11 -4 3 -9t-15 -3q-40 14 -74 -21q-34 -36 -56 -90q-13 -29 -21 -60q-9 -31 -12 -60q-4 -21 -5 -46q0 -24 2 -47q4 -44 20 -76q17 -32 51 -31q15 1 32 11q16 10 32 27q24 25 45 65q-27 9 -51 36q-26 29 -43 65q-25 56 -23 114q3 58 45 81q72 38 109 -5
q38 -42 28 -165q-4 -54 -22 -102q6 0 12 1q19 4 36 13q34 16 62 45t40 50q10 3 18 2q8 0 15 -3q-19 -33 -54 -69q-33 -35 -74 -54q-23 -11 -45 -14q-12 -2 -23 -1q-22 -48 -54 -79q-20 -19 -44 -29q-22 -11 -47 -11h-1q-93 0 -132 61q-37 61 -20 171l1 1q13 87 55 149t95 86
q28 12 58 12q29 0 57 -15zM348 235q2 67 -31 97q-33 29 -66 12q-17 -8 -10 -49q7 -40 26 -81q13 -27 30 -47q15 -19 30 -25q18 44 21 93z" />
    <glyph glyph-name="p" unicode="p" horiz-adv-x="491" 
d="M89 432q11 41 44 41h2q35 -2 52 -25q2 -25 -1 -55q-4 -29 -5 -57q19 55 67 80q47 24 84 7q17 -7 29 -23q12 -15 18 -39q11 -52 2 -114q-7 -48 -23 -93q19 11 39 23q60 35 84 72q11 6 19 6t14 -4q-12 -23 -30 -41q-17 -17 -36 -31q-36 -27 -75 -46q-15 -7 -28 -14
q-11 -25 -22 -47q-15 -27 -31 -48q-29 -40 -61 -56q-31 -17 -57 5q-15 14 1 37q17 22 44 46q18 15 36 29q7 26 12 56q7 46 7 92q1 47 -9 81q-12 43 -33 49q-22 7 -51 -56q-15 -92 -21 -201q-6 -110 -8 -202q-1 -50 -2 -90q0 -41 -2 -67q-5 -24 -16 -42q-12 -18 -24 -29
q-20 -19 -39 -19q-3 0 -6 1q-21 3 -21 36q-2 66 7 159q9 94 20 190q11 94 21 180q10 85 11 140q1 30 -2 48t-10 21zM204 14q-18 -18 -9 -24q19 -15 39 34q5 11 10 24q-24 -18 -40 -34z" />
    <glyph glyph-name="q" unicode="q" horiz-adv-x="518" 
d="M367 419q1 -7 -5 -11q-6 -5 -15 -7q-18 34 -45 18q-29 -16 -58 -58q-16 -23 -31 -50q-16 -28 -29 -57q-31 -68 -45 -129q-12 -60 10 -66q34 -10 68 32t64 106q16 34 31 71q15 38 28 73q5 18 30 28q26 11 38 -1q4 -4 5 -11t-2 -17q-18 -49 -43 -131q-21 -70 -40 -144
q31 20 63 45q63 48 124 132q11 10 19 10q8 1 16 -7q-51 -80 -126 -142q-55 -45 -104 -68q-4 -18 -8 -35q18 -20 31 -48q20 -46 24 -97q4 -77 -25 -144q-30 -67 -91 -68h-2q-31 0 -42 34q-11 36 -9 91q1 30 5 63t10 67q13 65 29 127t29 101q-15 -25 -46 -63q-29 -37 -66 -39
q-76 -4 -99 53q-22 53 -13 112l2 8q8 44 28 84q19 40 46 72q41 49 90 77q48 29 88 29h1q21 -1 39 -10q16 -10 26 -30zM286 -127q-13 -80 -13 -130q0 -28 6 -43q5 -16 17 -17q13 0 18 38q6 38 3 89q-3 63 -17 124q0 3 -1 5q-7 -34 -13 -66z" />
    <glyph glyph-name="r" unicode="r" 
d="M209 420q28 1 57 -1q17 -1 30 -4q15 -3 24 -8q6 -4 10 -10q5 -5 4 -13q0 -5 -17 -38q-16 -34 -37 -80q-12 -25 -24 -52q-11 -28 -21 -54q-23 -63 -30 -112q-6 -49 28 -53q18 -3 61 47t85 107q27 38 51 72q22 33 32 49q9 3 16 3q8 0 15 -7q-12 -18 -35 -54t-52 -76
q-43 -60 -93 -112q-46 -47 -81 -48q-2 0 -5 1q-56 5 -72 69q-15 64 -2 140q10 51 31 100q20 48 48 80q-37 9 -62 23q-3 -7 -7 -13q-24 -40 -48 -77q-24 -36 -37 -58q-9 -3 -17 -4q-8 0 -15 7q15 22 37 57q23 35 46 73q9 17 19 33q-17 17 -23 37q-14 44 18 81q24 27 52 27
q9 0 19 -3q27 -8 6 -61q-13 -33 -33 -69q6 0 22 1zM205 532q-8 2 -17 -11t-16 -32q-9 -23 -10 -45q-1 -8 0 -14q15 26 28 50q25 49 15 52z" />
    <glyph glyph-name="s" unicode="s" horiz-adv-x="428" 
d="M249 396q-5 -9 -23 -14q-19 -5 -22 10q3 24 1 39q-3 15 -10 22q-15 17 -41 -2q-25 -18 -28 -59q-1 -16 6 -30t18 -27q22 -23 56 -44q32 -21 63 -48q25 -22 41 -50q6 -9 9 -20l14 8q57 30 91 81q9 3 16 3t15 -6q-13 -22 -31 -40q-17 -17 -37 -32q-30 -23 -60 -41
q1 -10 1 -21q1 -35 -11 -67q-11 -32 -31 -59q-15 -22 -34 -40q-20 -18 -41 -30q-39 -24 -77 -26h-6q-35 0 -57 25q-19 23 3 54q20 30 61 64q22 18 46 36l22 15v19q-3 36 -40 75q-36 38 -67 82q-17 23 -27 49q-10 25 -7 53l1 6q3 17 11 31q10 18 26 31q28 25 65 32q10 3 20 3
q23 0 41 -13q12 -10 19 -27q6 -16 4 -42zM160 28q-39 -31 -60 -54q-11 -12 -15 -22q-5 -9 1 -14q11 -12 37 10q27 23 49 60q12 21 20 46z" />
    <glyph glyph-name="t" unicode="t" horiz-adv-x="421" 
d="M111 583q-11 1 -10 8v2q4 9 11 17q42 1 83 2l4 12q7 26 11 43q3 17 -1 21q11 22 43 37q21 10 36 10q7 0 12 -3q6 -2 9 -8q2 -5 1 -15q0 -1 -5 -16q-3 -14 -10 -38l-11 -44q32 -2 65 -5q13 -5 11 -14v-1q-1 -8 -10 -8h-2q-26 3 -70 4q-5 -22 -11 -47q-17 -71 -36 -151
q-21 -98 -42 -194q-19 -96 -27 -158q-4 -33 -3 -53t6 -22q20 -4 63 44q44 48 88 107q36 48 66 91t39 58q8 3 15 3q8 -1 15 -8q-5 -7 -14 -22q-10 -15 -23 -34q-24 -37 -57 -85q-35 -47 -70 -89q-36 -43 -70 -71q-30 -24 -52 -24h-7q-33 7 -51 31q-18 25 -26 62q-10 59 2 142
l2 20q12 74 32 150q20 84 44 160q16 51 28 91q-41 -1 -78 -5z" />
    <glyph glyph-name="u" unicode="u" horiz-adv-x="555" 
d="M80 436q12 25 32 25h3q22 -3 41 -26q10 -12 18 -30t11 -40q-3 -26 -12 -67q-10 -41 -20 -85q-15 -65 -22 -120q-7 -54 17 -55q25 0 63 62t69 142q17 43 28 86q12 42 17 78q8 22 45 16q37 -7 34 -37q-6 -27 -19 -74q-14 -48 -28 -101q-8 -27 -14 -55q-6 -27 -11 -52
q-10 -47 -11 -79q0 -32 15 -36q17 -3 57 43q41 47 81 102q25 37 47 69q23 33 32 50q9 2 17 1q8 0 15 -6q-4 -7 -13 -20q-8 -13 -19 -31q-21 -33 -50 -76t-61 -80q-32 -38 -63 -62q-25 -20 -45 -20q-5 0 -9 1q-23 6 -35 23q-13 17 -18 39q-11 42 -3 90q7 48 10 71
q-7 -13 -24 -49q-19 -37 -44 -69q-18 -22 -36 -37q-18 -14 -35 -14q-36 1 -57 17q-19 16 -29 43q-10 28 -10 64q0 37 5 76q9 71 25 137q15 65 6 86z" />
    <glyph glyph-name="v" unicode="v" horiz-adv-x="382" 
d="M207 394q2 -26 3 -60t3 -68q2 -65 5 -119q2 -53 8 -55q6 4 36 68t68 142q20 43 42 84q21 41 39 73q6 10 14 10q3 0 8 -1q8 -3 7 -9q0 -3 -4 -7q-50 -102 -101 -208q-49 -105 -104 -202q-19 -32 -57 -46q-11 -4 -19 -4q-22 0 -26 28q-7 32 -12 73q-4 41 -7 84
q-7 81 -13 153q-6 73 -20 95q9 16 21 24q12 7 24 9q29 2 55 -21q25 -23 30 -43z" />
    <glyph glyph-name="w" unicode="w" horiz-adv-x="720" 
d="M325 -24q-16 3 -29 12t-22 23q-17 24 -23 57q-7 32 -2 56q-20 -35 -71 -72q-50 -36 -92 -30q-35 6 -39 62q-3 55 7 127l3 17q7 47 17 94q12 56 20 94l6 33q2 12 -1 15q4 9 11 14q7 6 14 8q9 4 18 4q14 -1 29 -8q24 -12 28 -30q-4 -39 -16 -86q-11 -47 -25 -94
q-26 -88 -46 -157q-21 -70 -4 -72q26 -4 73 37q49 41 72 95q15 42 26 85q11 42 21 63q13 18 50 13t42 -31q-9 -28 -20 -68t-22 -81q-15 -61 -23 -111q-8 -49 6 -52q16 -3 30 5t27 24q24 29 41 79q18 50 32 104q17 69 26 128q11 60 15 78q13 42 44 29q30 -13 24 -61
q-4 -32 8 -70q13 -39 35 -66q11 -14 24 -24q14 -9 28 -10q12 -1 26 7q13 8 26 27q9 3 18 3q11 1 14 -5q-25 -35 -48 -50t-44 -15q-14 -1 -27 5q-12 5 -24 14q-25 20 -41 49q-15 26 -16 34q-3 -31 -13 -68q-10 -38 -26 -75q-29 -69 -77 -119q-39 -41 -88 -41q-11 0 -22 1z
" />
    <glyph glyph-name="x" unicode="x" horiz-adv-x="636" 
d="M458 433q8 12 22 14q1 1 3 0q11 0 10 -21q-70 -105 -154 -213q2 -21 4 -41q3 -33 4 -62q4 -54 10 -91q4 -36 16 -37q15 -1 62 51q46 52 91 111q30 39 54 72t33 46q8 5 16 4q7 -2 13 -9q-4 -7 -13 -21t-22 -32q-25 -34 -57 -77q-33 -44 -67 -82q-36 -40 -67 -67
q-30 -26 -49 -26q-1 0 -2 1q-25 2 -44 16t-34 37q-19 31 -31 76q-2 10 -6 19q-58 -74 -114 -144q-11 -11 -31 -13h-4q-17 -1 -18 13v1q1 5 10 20q10 15 28 37q31 41 81 100q18 22 38 44q-2 8 -3 16q-8 58 -10 113q-3 55 -7 90q-1 19 -4 30q-2 11 -6 12q-10 2 -33 -29
q-23 -32 -44 -68l-27 -45q-13 -21 -17 -30q-9 -8 -20 -7q-10 1 -13 9q7 10 22 37t35 58q30 48 62 90q32 39 53 39h2q21 -3 38 -18q16 -16 28 -40q17 -34 27 -81q5 -32 9 -65q43 52 78 95q49 59 48 68z" />
    <glyph glyph-name="y" unicode="y" horiz-adv-x="506" 
d="M513 252q8 4 17 5q8 1 15 -9q-35 -50 -69 -90q-35 -39 -67 -70q-48 -45 -87 -74q-13 -63 -30 -127q-26 -96 -65 -156q-22 -33 -48 -51t-57 -18h-2q-16 1 -26 8q-9 8 -13 21q-11 34 10 94q22 59 56 111q20 29 40 51q22 23 42 35q3 2 6 5l14 70q10 59 15 94
q-19 -55 -51 -91t-66 -36q-72 0 -85 96q-11 72 11 214q8 48 19 104q11 30 47 38q5 1 10 1q29 1 40 -36q-13 -37 -27 -89q-15 -52 -25 -105q-16 -79 -15 -141t41 -61q24 1 56 57t57 126q16 47 27 92q12 46 15 78q4 13 9 21q6 8 14 11q16 8 33 -3q17 -12 18 -29q-9 -2 -17 -45
q-8 -44 -17 -111q-5 -36 -10 -77l-14 -85q-2 -14 -5 -28q38 31 81 73q57 55 103 127zM189 -103q-20 -37 -36 -79q-20 -51 -29 -93t3 -42q9 0 18 11q10 11 19 30q16 35 33 93q15 57 28 118l4 15l-2 -1q-18 -14 -38 -52z" />
    <glyph glyph-name="z" unicode="z" horiz-adv-x="466" 
d="M199 406q29 5 61 9q18 2 35 2t30 -2q14 -3 24 -8q9 -6 13 -16q1 -10 -6 -29q-7 -18 -19 -40q-21 -40 -55 -85q-33 -45 -63 -71q56 1 77 -67l2 -8q7 6 15 13q40 34 83 72q43 39 60 68q9 3 17 3t15 -4q-13 -21 -34 -43q-19 -23 -43 -46q-44 -42 -89 -80q-9 -8 -17 -14
q9 -54 3 -118q-4 -37 -13 -76q-9 -38 -23 -73q-26 -65 -67 -109q-39 -43 -91 -43h-2q-59 1 -56 67q5 67 50 153q25 46 59 93q20 29 43 54q1 45 -4 81q-8 42 -26 47q-15 5 -27 4q-11 0 -23 -2q-5 9 -6 24q1 16 13 26q14 8 28 20q14 11 30 26q27 26 48 57t22 57q-53 -2 -87 9
q-7 2 -12 4l-10 -20q-16 -29 -31 -53t-25 -39q-9 -4 -17 -4q-8 1 -16 4q15 21 36 57q19 33 37 70q-9 6 -16 14q-15 16 -22 37q-6 20 -5 40l2 10q5 32 28 58q26 29 65 29h1q14 0 22 -7q7 -7 9 -19q6 -32 -17 -88q-10 -24 -21 -47q6 1 15 3zM193 -66q-30 -42 -52 -83
q-42 -77 -53 -134q-10 -57 30 -55q24 1 44 60q21 59 33 136q5 33 9 67l2 28q-6 -9 -13 -19zM185 544q-9 0 -18 -18q-9 -17 -14 -41q-7 -28 -6 -55q0 -19 4 -26q23 47 36 88q18 51 -2 52z" />
    <glyph glyph-name="braceleft" unicode="{" horiz-adv-x="276" 
d="M47 -17q2 19 15 45q14 25 31 53q35 53 69 110t28 98q-2 13 -10 25q-9 12 -21 23q-23 20 -52 35q-27 16 -40 24q18 11 57 27q40 15 68 38q11 10 19 22q8 11 8 24q0 20 -6 36q-6 17 -15 33q-18 29 -36 62q-19 33 -16 83q6 81 57 144t126 67q28 -3 29 -17q2 -14 -14 -22
q-27 7 -59 -16q-31 -23 -53 -61q-12 -20 -20 -43q-9 -22 -9 -46q-2 -21 2 -39q5 -19 14 -37q13 -33 29 -67q16 -33 9 -80q-4 -32 -27 -53q-24 -21 -52 -33q-15 -7 -29 -12q-15 -5 -26 -9q32 -14 64 -36q31 -22 37 -55q5 -23 -1 -53q-7 -29 -20 -61q-23 -58 -54 -113t-34 -80
q-1 -15 5 -27q7 -12 18 -20q21 -16 53 -19q32 -4 57 5q1 -13 -1 -24q-5 -29 -30 -48q-21 -17 -50 -17q-19 -1 -38 6q-41 21 -65 53q-23 33 -17 75z" />
    <glyph glyph-name="bar" unicode="|" horiz-adv-x="1813" 
d="M1322 39q-12 -20 -28 -23q-16 -4 -23 21q12 25 3 50q-9 24 -31 20q-39 -9 -63 -54q-25 -46 -7 -85q10 -21 36 -35q26 -15 71 -16q21 -1 42 6t40 20q37 24 61 63q24 38 26 80q2 45 -29 86q-32 40 -85 73q-34 22 -76 40q-31 14 -64 25q-51 -38 -102 -70q-74 -46 -145 -71
q-71 -24 -134 -12q-43 8 -74 27q-31 18 -48 42q-27 37 -25 80q2 42 30 75q15 17 37 30q23 13 51 18q82 15 167 11q87 -4 169 -23q55 -13 106 -33q19 14 38 29q17 13 34 27l-52 14q-67 19 -134 39l-208 60q-105 30 -203 54q-120 28 -225 40t-183 -6q-42 -9 -75 -29
q-33 -19 -54 -51q-26 -38 -19 -75t36 -57q16 -11 37 -16q21 -4 47 1q34 6 42 40q9 34 -28 34q-24 0 -15 31q9 32 30 32q26 10 44 -6q17 -17 22 -45q2 -18 -2 -39q-5 -21 -18 -39q-10 -15 -27 -27q-17 -11 -41 -17q-66 -16 -112 10q-45 26 -54 76q-4 21 0 47l2 11q7 31 28 65
q49 76 131 106q80 29 179 29h11q111 -2 239 -31q130 -28 260 -68q86 -26 170 -53q84 -28 163 -52q40 -13 80 -25q3 2 6 5q103 78 197 134q93 56 170 50q38 -4 64 -19t41 -37q11 -18 15 -39q4 -22 1 -44l-1 -1q-6 -41 -36 -80q-32 -39 -84 -60q-61 -25 -156 -16
q-95 8 -211 35q-15 3 -31 7q-8 -6 -15 -12q-30 -24 -61 -49q18 -8 36 -17q86 -43 140 -102q29 -32 47 -67q18 -36 23 -74q9 -68 -25 -121q-33 -54 -87 -83q-30 -17 -63 -25q-30 -7 -61 -7h-6q-36 1 -63 11t-45 27q-36 33 -38 80q-4 48 24 87q15 21 37 37q24 17 55 24
q42 10 68 -24q26 -35 11 -74zM1553 447q117 -24 179 1q27 10 43 26t23 34q18 42 -11 83q-27 41 -86 45q-70 5 -166 -64q-60 -42 -123 -91q76 -20 141 -34zM992 354q-93 9 -175 -1q-63 -9 -81 -46q-17 -38 10 -68q11 -13 32 -22q19 -10 47 -13q75 -8 158 30q78 36 161 91
q-74 20 -152 29z" />
    <glyph glyph-name="braceright" unicode="}" horiz-adv-x="297" 
d="M355 782q-2 -19 -16 -44q-13 -25 -31 -54q-34 -53 -67 -109q-34 -57 -29 -99q2 -13 10 -24q9 -12 21 -23q23 -20 51 -36q28 -15 41 -24q-18 -10 -57 -26q-40 -15 -67 -39q-12 -9 -20 -21q-7 -11 -8 -25q0 -36 19 -63q19 -28 37 -62q8 -18 13 -40q6 -22 4 -49
q-5 -81 -57 -144q-51 -63 -126 -67q-27 4 -29 18q-3 14 14 21q15 -3 31 2q15 6 32 18q29 23 52 63q24 40 27 83q1 21 -4 40q-4 19 -12 36q-14 33 -30 67q-15 34 -9 80q2 17 10 31q9 14 21 25q22 21 52 33t51 18q-32 15 -63 37q-32 22 -39 55q-4 23 3 52q6 30 19 61
q24 59 54 114q31 55 33 79q2 16 -5 27q-6 12 -18 21q-20 15 -52 19t-56 -5q-1 13 0 24q5 28 30 48q22 17 51 17q17 0 38 -6q40 -21 64 -54q23 -32 17 -75z" />
    <glyph glyph-name="asciitilde" unicode="~" horiz-adv-x="441" 
d="M66 323l1 6q3 24 26 57q24 36 63 42q3 1 7 1q14 0 36 -8q28 -9 60 -23q47 -21 91 -42q44 -20 55 -15q17 8 6 26q-12 18 -19 25q-2 15 16 24q20 9 38 4q18 -9 26 -27q9 -18 10 -38q0 -12 -2 -23q-3 -19 -12 -38q-16 -29 -42 -38q-18 -7 -36 -7q-4 0 -8 1q-23 1 -44 9
q-43 16 -82 47q-38 30 -67 53q-15 13 -25 20q-12 7 -19 6q-15 -3 -30 -27q-14 -24 1 -33q-7 -21 -26 -21q-19 1 -24 19z" />
    <glyph glyph-name="exclamdown" unicode="&#xa1;" horiz-adv-x="151" 
d="M135 41q-2 -8 -6 -14q-4 -7 -10 -13q-25 -22 -59 -24q-4 -1 -6 -1q-29 1 -26 24q1 3 11 44q8 41 22 102q6 34 14 71q8 38 15 77q12 60 22 120q11 60 18 110q9 35 29 41h6q15 0 20 -21q2 -47 -4 -105q-5 -59 -13 -118l-23 -146q-10 -62 -14 -103q-5 -41 4 -44zM168 731
q-16 8 -16 29q0 8 1 15q2 12 8 22q9 17 27 16q19 -1 30 12q19 -7 25 -31q4 -13 3 -23q-2 -9 -7 -15q-8 -13 -30 -23q-12 -6 -23 -6q-9 0 -18 4z" />
    <glyph glyph-name="cent" unicode="&#xa2;" horiz-adv-x="281" 
d="M209 88q-16 -13 -30 -18q-5 -1 -8 -1q-10 0 -15 12q-1 20 3 44q2 12 5 25q7 30 17 55q-30 7 -49 23q-24 21 -36 51q-18 50 -8 116l3 20q18 79 60 144q17 26 38 42q20 16 41 22q13 4 25 5q2 18 5 50q1 16 3 28q4 21 8 32q13 26 24 26q3 0 4 -1q15 -7 23 -17q0 -12 -2 -25
q-4 -22 -14 -45q-13 -30 -15 -54q12 -4 24 -13q37 -29 29 -84q-2 -11 -6 -20q-2 -9 -6 -19q-9 -7 -20 0q-11 6 -9 15q7 20 7 47t-15 28q-25 2 -53 -39q-29 -42 -50 -98q-9 -24 -16 -49q-7 -24 -10 -47q-6 -42 2 -73q9 -30 37 -34q18 -3 45 17q25 20 28 33q10 6 21 6
q11 1 14 -11q-5 -25 -42 -53q-29 -21 -56 -25l-1 -7q-3 -14 -4 -28q-3 -27 -4 -51t3 -29z" />
    <glyph glyph-name="sterling" unicode="&#xa3;" horiz-adv-x="511" 
d="M145 359q-21 0 -25 14q-2 4 -1 8q1 8 12 14q33 5 83 7l20 1q8 64 18 127q11 65 28 117q16 49 40 83q25 33 62 41q17 4 32 4q31 0 53 -16q31 -24 39 -68q4 -23 1 -51q-3 -27 -14 -56q-3 -15 -10 -23q-6 -8 -14 -10q-14 -4 -28 6q-16 11 -20 24q6 10 12 24q6 13 10 29
q8 30 6 60q-1 30 -15 46q-7 8 -19 11q-11 3 -27 -2q-32 -9 -50 -61q-16 -51 -25 -124q-6 -40 -9 -83q-4 -38 -9 -77q11 1 21 1q27 0 53 1q25 0 47 1q14 -10 12 -24v-2q-5 -16 -27 -20q-10 -2 -43 1q-31 2 -67 4q-5 -56 -14 -110q-10 -66 -31 -119q47 -19 97 -38
q33 -13 69 -22q34 -8 70 -6q21 -4 18 -21q-1 -7 -6 -17q-19 -32 -57 -41q-38 4 -70 19t-61 35q-41 27 -76 52q-14 -28 -33 -50q-29 -35 -76 -44q-23 -5 -39 -2q-18 3 -28 11q-22 16 -22 45q0 7 1 13q3 22 19 43q11 14 27 26q15 11 36 17q38 11 80 1q9 34 17 76q7 38 11 80
q4 27 7 55q-20 1 -38 1q-43 0 -47 -11zM116 136q-33 -9 -41 -37q-7 -27 12 -40q6 -4 16 -5q9 -1 21 2q36 9 56 58q3 7 5 15q-34 16 -69 7z" />
    <glyph glyph-name="currency" unicode="&#xa4;" horiz-adv-x="486" 
d="M486 503h6q14 0 25 -4q10 -5 8 -17q0 -2 -2 -5q-17 -24 -47 -50q-23 -20 -44 -35q9 -10 15 -21q15 -28 15 -60q1 -14 -2 -27q-7 -46 -41 -91q-16 -22 -36 -39h1q9 -25 36 -46q27 -20 38 -47q-2 -13 -10 -27q-4 -6 -11 -6q-8 0 -22 9q-12 9 -31 41t-28 47q-1 4 -3 7
q-18 -11 -39 -18q-27 -9 -55 -9q-7 0 -13 1q-35 2 -70 23q-3 1 -6 3q-19 -20 -46 -50q-31 -34 -32 -45h-6q-14 0 -24 4q-10 5 -7 17v5q18 24 47 50q25 21 47 37q-7 8 -13 19q-13 25 -15 54q-2 21 2 43q5 33 22 68q18 35 44 59q-10 21 -33 38q-27 21 -39 48q3 13 12 27
q4 6 11 6q8 0 20 -9q13 -9 33 -41q18 -32 26 -47q4 2 7 4q26 15 58 19q8 1 17 1q24 0 50 -8q15 -5 17 -25v-1q1 3 4 7q12 19 26 7q6 -4 12 -9q18 19 44 48q31 34 32 45zM355 372q-6 -7 -15 -11q-9 -5 -22 -5q-13 9 -26 10q-12 1 -25 -4q-29 -12 -51 -52q-23 -40 -26 -80
q-2 -27 5 -50q8 -22 29 -32q36 -18 81 4q43 22 74 61q17 21 27 45q11 23 12 46q0 22 -10 42t-32 35q-8 4 -10 10q-2 -10 -11 -19z" />
    <glyph glyph-name="yen" unicode="&#xa5;" horiz-adv-x="455" 
d="M162 204q-23 4 -21 22v1q5 20 23 30q36 3 83 3h13h26q10 28 18 55q-40 1 -78 -1q-51 -2 -59 -15q-32 7 -29 24q0 1 1 2q5 19 22 26q20 2 48 4q26 2 56 3q26 1 53 2q16 58 19 73q-8 -15 -31 -39q-24 -23 -59 -17q-33 6 -56 39q-22 34 -35 80q-21 71 -23 148q-2 61 3 94
q2 9 4 16q16 27 47 36q9 3 16 3q15 0 16 -13q-1 -33 -2 -75v-85q1 -81 8 -148q9 -66 28 -69q29 -4 62 26q33 31 42 61q6 23 24 88q17 65 42 121q15 28 42 31t27 -22q-22 -39 -42 -112q-21 -74 -42 -160q-10 -37 -20 -75q54 0 90 -3q15 -11 13 -26v-2q-4 -16 -28 -20
q-9 -1 -45 2q-20 1 -42 2l-12 -46q-2 -5 -3 -11h7q28 -2 54 -4q25 -1 45 -4q13 -6 11 -17v-3q-4 -12 -24 -18q-8 0 -44 -1q-29 -1 -64 -2q-13 -48 -29 -89q-13 -34 -26 -61q-13 -26 -28 -41q-6 -5 -20 -5t-37 7q-45 14 -35 41q22 -3 46 40q25 43 47 102q1 2 2 3h-44
q-32 -1 -47 -1h-13z" />
    <glyph glyph-name="section" unicode="&#xa7;" horiz-adv-x="305" 
d="M374 664q-8 -17 -20 -21q-12 -5 -15 10q6 26 -9 56q-14 30 -57 23q-34 -5 -55 -44q-21 -38 -21 -71q-1 -39 37 -65q37 -26 70 -62q17 -19 29 -44q11 -25 9 -60q0 -4 -1 -8q-6 -38 -47 -77q-29 -28 -58 -43q11 -10 21 -21q17 -18 28 -41q10 -22 8 -53v-10q-6 -36 -37 -67
q-35 -36 -84 -43q-7 -1 -14 -1q-21 0 -43 10q-28 14 -39 39q-6 13 -6 30q2 17 12 35q21 18 34 13q13 -4 6 -25q-11 -31 1 -56t49 -21q35 4 57 34q24 31 25 60q0 22 -13 39q-13 16 -32 31q-36 28 -74 56q-39 29 -33 81v4q3 18 12 33q12 18 29 32q30 27 69 42q12 4 21 8
q-32 24 -61 52q-19 18 -32 41q-12 23 -10 54q0 6 1 13q7 47 48 81q46 39 94 46q9 2 17 2q34 0 59 -23q30 -29 25 -69zM201 417q-42 -25 -44 -65q-1 -35 34 -59q8 -6 17 -12q20 13 47 39q36 34 36 62q0 34 -23 58q-32 -2 -67 -23z" />
    <glyph glyph-name="dieresis" unicode="&#xa8;" horiz-adv-x="249" 
d="M295 809h4q13 0 23 -14q14 -17 14 -37q-9 -8 -12 -25q-4 -17 -21 -19q-4 -1 -7 -1q-12 0 -24 7q-16 8 -18 26q-1 7 0 14q2 12 10 25q12 21 31 24zM132 750l1 3q2 13 17 28q17 18 36 17q2 -13 17 -17q15 -5 14 -21v-2q-3 -14 -13 -29q-12 -17 -29 -19h-4q-16 0 -27 13
q-12 14 -12 27z" />
    <glyph glyph-name="copyright" unicode="&#xa9;" horiz-adv-x="552" 
d="M329 758q24 8 41 8h3q15 0 23 -3q19 -8 19 -27q-1 -18 -12 -33q-68 -17 -113 -50q-44 -34 -70 -75q-38 -63 -37 -132q2 -69 33 -114q17 -25 41 -39q24 -15 53 -14q40 0 79 20q39 19 73 51q63 59 97 143q33 84 6 147q-14 32 -47 55q-33 22 -89 27q-3 12 0 22q4 9 18 4
q57 -4 94 -27q37 -24 56 -58q27 -54 16 -122q-3 -19 -9 -39q-28 -93 -100 -159q-40 -36 -90 -57q-51 -22 -109 -22q-49 -1 -88 18q-38 19 -64 50q-48 59 -50 145q-1 24 2 47q10 61 49 115q28 38 71 69q43 32 104 50zM425 558q6 15 6 36t-12 21q-23 2 -50 -44
q-28 -47 -42 -100q-11 -44 -8 -79t30 -39q15 -1 35 14t22 25q7 5 16 5q8 0 11 -9q-3 -19 -33 -41q-27 -19 -51 -19h-7q-30 4 -48 20q-19 15 -28 39q-15 38 -6 90l2 14q13 61 47 111q13 20 28 32q16 12 32 17q12 4 24 4q23 0 42 -14q28 -23 22 -65q-2 -8 -4 -15q-2 -8 -5 -15
q-7 -5 -15 0t-8 12z" />
    <glyph glyph-name="guillemotleft" unicode="&#xab;" horiz-adv-x="526" 
d="M389 461q-22 -14 -49 -31q-28 -16 -58 -34q-54 -32 -99 -60q-47 -28 -50 -36q5 -9 29 -42q25 -34 54 -72l33 -39q15 -20 28 -34q5 -17 -3 -35q-6 -14 -19 -14q-3 0 -6 1q-4 11 -29 44t-54 72q-36 48 -67 90q-29 42 -28 51q3 11 51 46q47 35 102 74q44 33 80 62
q37 29 45 44q7 2 13 2h6q7 -2 12 -8q13 -13 15 -38q0 -14 -2 -25q-1 -10 -4 -18zM571 438q-25 -16 -61 -34q-36 -19 -73 -37q-57 -27 -103 -49t-50 -30q5 -8 34 -35q27 -27 59 -58q19 -17 35 -34q17 -17 31 -32q21 -16 6 -33q-14 -14 -27 -14q-4 0 -6 1q-7 10 -29 37
q-23 28 -49 60q-33 40 -60 75q-26 35 -25 44q2 9 38 36q35 27 81 60q55 39 108 75t62 45q10 3 17 3q19 0 20 -24q1 -16 -1 -30t-7 -26z" />
    <glyph glyph-name="" unicode="&#xad;" horiz-adv-x="286" 
d="M93 376h1q9 0 33 -5q26 -6 57 -12q38 -7 74 -9q34 -3 44 10q31 -7 28 -25l-1 -1q-5 -19 -22 -27q-36 -3 -72 -3q-21 0 -42 1q-57 3 -117 9q-15 10 -11 34q3 24 28 28z" />
    <glyph glyph-name="registered" unicode="&#xae;" horiz-adv-x="480" 
d="M309 762q33 10 50 10q15 0 18 -8q7 -17 -9 -37q-65 -14 -106 -43q-41 -30 -62 -67q-18 -31 -24 -64q-6 -34 -3 -66q5 -59 39 -102t82 -42q33 0 65 13q32 14 61 37q24 18 43 41q20 24 35 49q28 48 36 98q8 51 -13 89q-15 28 -47 46q-33 17 -86 19q-4 10 0 18q3 9 15 4
q51 -4 84 -24q32 -20 49 -51q27 -49 17 -113q-3 -14 -7 -29q-22 -82 -84 -140q-34 -32 -78 -51q-43 -20 -95 -20q-42 0 -77 17q-33 16 -56 44q-42 51 -44 127q0 21 3 41q8 52 42 100q24 34 62 61t90 43zM318 671q5 -37 -3 -71q-9 -34 -5 -36q2 2 14 31q11 29 31 51
q7 8 14 13q8 5 16 8q19 5 35 -13q14 -17 11 -36v-2q-4 -17 -16 -33q-13 -16 -30 -31q-19 -16 -39 -29q15 -11 20 -37q7 -33 19 -52q5 -8 12 -11t18 1q9 4 8 -6q-3 -9 -16 -11q-5 -1 -10 -1q-10 0 -18 4q-12 6 -20 17q-17 21 -28 49q-8 19 -20 28q-7 -2 -11 -2q-4 -27 -4 -52
q1 -26 -7 -47q-1 -7 -9 -7q-5 -1 -13 3q-20 9 -19 21q1 39 7 77q3 17 6 33q12 53 23 89q6 20 10 34q3 13 4 19q2 8 7 8h3q8 -4 10 -9zM311 527h4q2 0 5 1q4 1 8 3q28 22 50 62q11 19 13 30q2 14 -7 18h-2q-9 0 -31 -27q-25 -29 -40 -87z" />
    <glyph glyph-name="macron" unicode="&#xaf;" horiz-adv-x="460" 
d="M175 726q-31 7 -28 25l1 1q5 19 22 27q38 4 108 7q71 4 139 4q15 1 30 1q19 0 37 -1q32 0 52 -2q15 -10 13 -30l-2 -4q-5 -23 -29 -27q-8 0 -52 3q-43 4 -97 7q-65 3 -125 3q-59 -1 -69 -14z" />
    <glyph glyph-name="degree" unicode="&#xb0;" horiz-adv-x="226" 
d="M214 815q10 3 16 -7l1 2q1 13 10 14q2 0 4 -1q26 0 43 -10q18 -10 28 -26q17 -27 11 -65l-1 -4q-7 -41 -38 -69q-16 -15 -38 -24q-20 -9 -47 -9h-1q-19 0 -34 8t-25 21q-19 25 -20 62q0 9 1 19q4 25 20 47q11 15 28 26q18 11 42 16zM219 766q-22 -2 -29 -24
q-6 -22 -1 -46q5 -19 17 -33q10 -14 27 -13q38 4 57 48q20 44 0 73q-7 10 -19 16q-11 6 -29 6q-4 0 -6 1q3 -16 -17 -28z" />
    <glyph glyph-name="acute" unicode="&#xb4;" horiz-adv-x="156" 
d="M143 703h-2q-14 0 -14 16q0 5 1 9q3 12 7 23q21 29 39 53q17 24 44 42h6q16 0 29 -14q11 -12 10 -27q-1 -4 -3 -9q-8 -1 -27 -21q-19 -21 -41 -41q-13 -11 -25 -19q-13 -9 -24 -12z" />
    <glyph glyph-name="mu" unicode="&#xb5;" horiz-adv-x="407" 
d="M139 425q15 30 47 33t36 -18q7 -23 -12 -64q-20 -42 -24 -84v-54q2 -35 5 -74q7 -59 24 -109q18 -51 54 -51q4 0 8 10q2 11 5 29q6 35 12 91q5 56 14 115q9 60 26 116q16 55 42 85q15 18 42 20h8q21 0 30 -12q3 -5 4 -12l-1 -6q0 -5 -2 -10q-31 -21 -40 -80
q-10 -58 -20 -134q-6 -40 -13 -83q-8 -43 -21 -85q-9 -30 -41 -50t-52 -19q-27 0 -45 13q-19 12 -31 32q-23 38 -27 93q-4 47 -1 88q-3 -26 -13 -83q-15 -75 -30 -160l-14 -91q-6 -44 -9 -81q-2 -12 -25 -25q-6 -4 -12 -4q-15 0 -26 22q7 10 14 66q7 55 16 132q5 42 10 86
q5 45 11 90q8 63 17 120l6 38q13 74 28 110z" />
    <glyph glyph-name="paragraph" unicode="&#xb6;" horiz-adv-x="434" 
d="M371 483q9 -5 7 -19t-13 -14q-7 -2 -13 -4q-10 -68 -19 -136q-14 -94 -22 -167t0 -77q-7 -30 -24 -31h-2q-16 0 -24 12l2 33q3 23 6 55q6 57 14 136q9 79 18 155q0 6 1 12h-17q-11 0 -21 1q-45 5 -78 22q-61 32 -72 95q-4 20 -1 39q6 41 43 77q36 36 103 60q67 25 172 27
q18 -2 23 -22q1 -5 1 -9q-2 -13 -20 -20q-84 -3 -139 -21t-86 -44q-45 -40 -38 -85q7 -46 55 -69q25 -12 63 -15q7 -1 15 -1q6 50 12 94q7 63 11 86q13 12 34 12q20 0 19 -16q1 -4 -2 -22q-2 -17 -6 -44q-6 -43 -15 -103zM411 83q-5 -18 -19 -18h-5q-20 4 -27 19q0 11 1 35
q2 23 5 54q5 58 13 136q10 78 19 152q9 77 17 139q4 35 8 57q2 17 5 27q6 9 15 9h3q11 -2 15 -13q-1 -9 -7 -86q-6 -76 -15 -172l-7 -82q-2 -42 -5 -80q-7 -71 -10 -121q-5 -50 -6 -56z" />
    <glyph glyph-name="guillemotright" unicode="&#xbb;" horiz-adv-x="511" 
d="M341 548q4 -15 31 -44q28 -29 62 -62q40 -39 78 -74q36 -35 35 -46v0q-1 -7 -30 -37q-31 -31 -71 -69q-51 -47 -99 -92t-58 -59q-3 -1 -6 -1q-13 0 -15 14q-2 18 7 35q18 14 40 34q22 19 44 39q42 38 77 71q36 34 43 43q-1 8 -38 36t-81 60q-24 18 -46 34q-23 17 -39 31
q-2 8 -1 18q2 11 7 25q9 25 26 38q8 6 16 7q4 1 7 1q6 0 11 -2zM138 515q5 -7 35 -33q29 -26 65 -59q44 -39 82 -76q39 -37 38 -48h1q-1 -7 -27 -33q-27 -26 -63 -57q-45 -40 -88 -77q-42 -37 -53 -49q-4 -1 -8 -1q-14 0 -21 14q-11 17 16 33q18 15 40 32q23 17 45 34
q43 31 80 58q36 27 44 35q-2 8 -41 30q-40 22 -87 49q-32 18 -62 37q-30 18 -49 34q-1 12 1 26t8 30q10 24 29 24q7 0 15 -3z" />
    <glyph glyph-name="questiondown" unicode="&#xbf;" horiz-adv-x="380" 
d="M399 178q3 28 -17 45q-21 16 -43 7q-10 -4 -17 -14q-9 -9 -14 -26q-1 -21 -16 -45q-13 -23 -35 -43q-32 -30 -73 -46q-39 -15 -64 4q-35 25 -16 81q19 55 61 109q28 36 61 66q31 30 60 45q21 12 34 30q13 19 22 40q15 39 19 77q5 39 17 52q1 24 -25 29q-4 1 -7 1
q-20 0 -30 -26q-1 -17 -1 -48q0 -32 -13 -62q-6 -15 -18 -28t-30 -19q-66 -24 -126 -89t-78 -137l-2 -14q-5 -32 1 -61q7 -37 38 -67q21 -22 50 -30q22 -7 45 -6h13q70 6 133 58q61 49 71 110v7zM327 748q8 18 26 26q14 7 27 7h6q17 -3 15 -20t4 -25q-6 -20 -25 -36
q-15 -15 -28 -15q-2 0 -4 1q-18 2 -23 23q-4 13 -2 25q1 7 4 14z" />
    <glyph glyph-name="Agrave" unicode="&#xc0;" horiz-adv-x="450" 
d="M167 783q8 12 19 12q7 0 17 -5q21 -13 20 -28q2 -16 -1 -49q-2 -32 -6 -69q-6 -57 -11 -106q-6 -50 -3 -51q1 5 7 18t13 30q15 33 36 77q22 43 48 83q25 40 52 68t52 27q49 -2 67 -63q17 -61 16 -150q-1 -48 -6 -101q-6 -53 -13 -107q-6 -42 -12 -83l-12 -73
q-14 -75 -23 -126l-7 -48q-3 -20 -3 -28q-14 -20 -46 -20q-7 0 -15 1q-43 5 -53 35q-1 53 15 145q6 38 13 78q-5 0 -10 -1q-51 -6 -104 -19q-22 -5 -41 -10v-6q-4 -83 -16 -184q-10 -20 -55 -12q-44 8 -47 41q-3 96 5 187q7 75 18 142l5 30q27 151 57 252t24 113zM228 255
q52 10 105 16h1q9 46 18 94q11 52 20 104q10 52 18 99q15 87 20 145q7 58 -8 60q-16 1 -44 -38t-59 -94q-37 -66 -68 -134q-32 -69 -37 -93q-11 -97 -16 -171q24 6 50 12zM347 894q-1 5 0 11q1 13 15 26q18 17 36 17h2q23 -15 36 -38q12 -22 27 -49q3 -15 1 -31v-1
q-3 -18 -19 -18q-10 2 -19 8q-8 6 -17 14q-19 18 -35 40t-27 21z" />
    <glyph glyph-name="Aacute" unicode="&#xc1;" horiz-adv-x="450" 
d="M167 783q8 12 19 12q7 0 17 -5q21 -13 20 -28q2 -16 -1 -49q-2 -32 -6 -69q-6 -57 -11 -106q-6 -50 -3 -51q1 5 7 18t13 30q15 33 36 77q22 43 48 83q25 40 52 68t52 27q49 -2 67 -63q17 -61 16 -150q-1 -48 -6 -101q-6 -53 -13 -107q-6 -42 -12 -83l-12 -73
q-14 -75 -23 -126l-7 -48q-3 -20 -3 -28q-14 -20 -46 -20q-7 0 -15 1q-43 5 -53 35q-1 53 15 145q6 38 13 78q-5 0 -10 -1q-51 -6 -104 -19q-22 -5 -41 -10v-6q-4 -83 -16 -184q-10 -20 -55 -12q-44 8 -47 41q-3 96 5 187q7 75 18 142l5 30q27 151 57 252t24 113zM228 255
q52 10 105 16h1q9 46 18 94q11 52 20 104q10 52 18 99q15 87 20 145q7 58 -8 60q-16 1 -44 -38t-59 -94q-37 -66 -68 -134q-32 -69 -37 -93q-11 -97 -16 -171q24 6 50 12zM378 810q-17 0 -14 18v1q2 16 12 31q22 27 41 49q20 23 48 38h2q18 0 31 -17q10 -13 8 -26
q-1 -6 -5 -12q-11 2 -33 -20q-24 -22 -49 -40q-10 -9 -21 -14q-11 -6 -20 -8z" />
    <glyph glyph-name="Acircumflex" unicode="&#xc2;" horiz-adv-x="450" 
d="M167 783q8 12 19 12q7 0 17 -5q21 -13 20 -28q2 -16 -1 -49q-2 -32 -6 -69q-6 -57 -11 -106q-6 -50 -3 -51q1 5 7 18t13 30q15 33 36 77q22 43 48 83q25 40 52 68t52 27q49 -2 67 -63q17 -61 16 -150q-1 -48 -6 -101q-6 -53 -13 -107q-6 -42 -12 -83l-12 -73
q-14 -75 -23 -126l-7 -48q-3 -20 -3 -28q-14 -20 -46 -20q-7 0 -15 1q-43 5 -53 35q-1 53 15 145q6 38 13 78q-5 0 -10 -1q-51 -6 -104 -19q-22 -5 -41 -10v-6q-4 -83 -16 -184q-10 -20 -55 -12q-44 8 -47 41q-3 96 5 187q7 75 18 142l5 30q27 151 57 252t24 113zM228 255
q52 10 105 16h1q9 46 18 94q11 52 20 104q10 52 18 99q15 87 20 145q7 58 -8 60q-16 1 -44 -38t-59 -94q-37 -66 -68 -134q-32 -69 -37 -93q-11 -97 -16 -171q24 6 50 12zM301 853q8 2 25 16q16 14 34 31q22 22 42 41q18 18 24 18q4 0 17 -21q12 -21 26 -46q11 -20 20 -37
q10 -17 15 -21l-1 -1q-1 -8 -17 -8q-17 1 -24 6q-16 26 -24 52q-8 25 -13 31q-6 -3 -20 -36t-42 -58q-3 -1 -7 -1q-13 0 -37 8q-22 7 -22 19q1 4 4 7z" />
    <glyph glyph-name="Atilde" unicode="&#xc3;" horiz-adv-x="450" 
d="M167 783q8 12 19 12q7 0 17 -5q21 -13 20 -28q2 -16 -1 -49q-2 -32 -6 -69q-6 -57 -11 -106q-6 -50 -3 -51q1 5 7 18t13 30q15 33 36 77q22 43 48 83q25 40 52 68t52 27q49 -2 67 -63q17 -61 16 -150q-1 -48 -6 -101q-6 -53 -13 -107q-6 -42 -12 -83l-12 -73
q-14 -75 -23 -126l-7 -48q-3 -20 -3 -28q-14 -20 -46 -20q-7 0 -15 1q-43 5 -53 35q-1 53 15 145q6 38 13 78q-5 0 -10 -1q-51 -6 -104 -19q-22 -5 -41 -10v-6q-4 -83 -16 -184q-10 -20 -55 -12q-44 8 -47 41q-3 96 5 187q7 75 18 142l5 30q27 151 57 252t24 113zM228 255
q52 10 105 16h1q9 46 18 94q11 52 20 104q10 52 18 99q15 87 20 145q7 58 -8 60q-16 1 -44 -38t-59 -94q-37 -66 -68 -134q-32 -69 -37 -93q-11 -97 -16 -171q24 6 50 12zM247 850q-1 8 1 17q2 15 9 34q11 31 40 39q12 4 29 -2q17 -5 36 -13q27 -13 52 -26q26 -12 34 -7
q12 7 1 19q-10 12 -18 16q-2 11 15 22q15 10 28 10h4q15 -5 23 -19q9 -14 13 -32q4 -21 1 -42l-2 -11q-7 -27 -27 -37q-17 -9 -33 -9q-2 0 -4 1q-19 1 -36 8q-26 12 -48 32q-23 21 -38 35q-9 7 -15 12q-7 4 -11 2q-13 -4 -20 -20q-9 -17 3 -22q-2 -16 -18 -18q-14 -2 -19 11
z" />
    <glyph glyph-name="Adieresis" unicode="&#xc4;" horiz-adv-x="450" 
d="M167 783q8 12 19 12q7 0 17 -5q21 -13 20 -28q2 -16 -1 -49q-2 -32 -6 -69q-6 -57 -11 -106q-6 -50 -3 -51q1 5 7 18t13 30q15 33 36 77q22 43 48 83q25 40 52 68t52 27q49 -2 67 -63q17 -61 16 -150q-1 -48 -6 -101q-6 -53 -13 -107q-6 -42 -12 -83l-12 -73
q-14 -75 -23 -126l-7 -48q-3 -20 -3 -28q-14 -20 -46 -20q-7 0 -15 1q-43 5 -53 35q-1 53 15 145q6 38 13 78q-5 0 -10 -1q-51 -6 -104 -19q-22 -5 -41 -10v-6q-4 -83 -16 -184q-10 -20 -55 -12q-44 8 -47 41q-3 96 5 187q7 75 18 142l5 30q27 151 57 252t24 113zM228 255
q52 10 105 16h1q9 46 18 94q11 52 20 104q10 52 18 99q15 87 20 145q7 58 -8 60q-16 1 -44 -38t-59 -94q-37 -66 -68 -134q-32 -69 -37 -93q-11 -97 -16 -171q24 6 50 12zM476 911h5q13 0 24 -14q12 -17 12 -36q-9 -9 -11 -26q-4 -17 -21 -19q-3 -1 -7 -1q-12 0 -24 7
q-16 8 -18 26q-1 7 0 14q2 12 10 25q12 21 30 24zM314 852v4q2 13 18 28q17 17 36 17q1 -14 16 -18q16 -4 14 -20v-3q-2 -13 -13 -29q-10 -16 -28 -18q-3 -1 -5 -1q-15 0 -26 13q-11 15 -12 27z" />
    <glyph glyph-name="Aring" unicode="&#xc5;" horiz-adv-x="450" 
d="M167 783q8 12 19 12q7 0 17 -5q21 -13 20 -28q2 -16 -1 -49q-2 -32 -6 -69q-6 -57 -11 -106q-6 -50 -3 -51q1 5 7 18t13 30q15 33 36 77q22 43 48 83q25 40 52 68t52 27q49 -2 67 -63q17 -61 16 -150q-1 -48 -6 -101q-6 -53 -13 -107q-6 -42 -12 -83l-12 -73
q-14 -75 -23 -126l-7 -48q-3 -20 -3 -28q-14 -20 -46 -20q-7 0 -15 1q-43 5 -53 35q-1 53 15 145q6 38 13 78q-5 0 -10 -1q-51 -6 -104 -19q-22 -5 -41 -10v-6q-4 -83 -16 -184q-10 -20 -55 -12q-44 8 -47 41q-3 96 5 187q7 75 18 142l5 30q27 151 57 252t24 113zM228 255
q52 10 105 16h1q9 46 18 94q11 52 20 104q10 52 18 99q15 87 20 145q7 58 -8 60q-16 1 -44 -38t-59 -94q-37 -66 -68 -134q-32 -69 -37 -93q-11 -97 -16 -171q24 6 50 12zM410 938q7 1 12 -9v3q1 13 9 12h6q42 0 49 -38q3 -15 1 -28q-4 -25 -25 -45q-10 -10 -25 -18
q-15 -7 -34 -9q-4 -1 -8 -1q-12 0 -20 4q-14 4 -22 14q-16 16 -16 42q-1 6 0 12q3 19 17 35q10 10 23 17q14 7 33 9zM415 899q-24 1 -19 -31t29 -27q20 4 30 30q11 26 0 40q-4 5 -11 8q-6 2 -16 1q-3 -1 -4 0q3 -15 -9 -21z" />
    <glyph glyph-name="AE" unicode="&#xc6;" horiz-adv-x="694" 
d="M170 783q9 12 20 12q7 0 17 -5q21 -13 20 -28q2 -16 -1 -49q-2 -32 -6 -69q-6 -57 -11 -106q-6 -50 -4 -51q2 5 8 18t13 30q15 33 36 77q22 43 48 83q25 40 52 68t52 27q40 -2 58 -44t20 -109q1 -10 0 -20q10 24 21 47q27 63 60 120q14 10 27 10q6 0 11 -2q18 -5 29 -16
q16 -7 64 -6q49 1 88 6q7 0 9 -5l-1 -3q0 -3 -3 -6q-41 -17 -86 -20q-46 -2 -65 -7q-5 -8 -19 -54q-13 -47 -28 -111q-9 -34 -18 -72q-8 -37 -17 -75q-19 -86 -32 -155q-14 -69 -12 -79q7 -7 51 1q43 9 75 26q11 0 10 -11t-9 -19q-35 -21 -73 -25q-39 -5 -52 -8
q-5 -5 -5 -27t3 -46q2 -19 8 -33q5 -15 11 -16q13 -1 58 14q44 15 76 29q2 -3 2 -8t-5 -11q-35 -19 -80 -36q-45 -18 -61 -21q-10 -2 -20 -2q-24 0 -53 9q-37 13 -48 33q-4 -24 -4 -33q-16 -17 -39 -17q-8 0 -16 2q-32 7 -43 37q0 53 16 145q6 38 13 78q-5 0 -10 -1
q-51 -6 -105 -19q-21 -5 -40 -10v-6q-4 -83 -16 -184q-10 -20 -55 -12q-44 8 -47 41q-3 96 5 187q7 75 18 142l5 30q27 151 57 252t23 113zM232 255q52 10 105 16h1q9 46 18 94l20 104t18 99q15 87 20 145q7 58 -8 60q-16 1 -44 -38t-59 -94q-37 -66 -68 -134
q-32 -69 -38 -93q-10 -97 -15 -171q24 6 50 12z" />
    <glyph glyph-name="Ccedilla" unicode="&#xc7;" horiz-adv-x="386" 
d="M164 -123q5 19 38 25q32 5 31 -22q-8 -26 1 -48t34 -6q19 12 17 36t-14 47q-7 12 -16 23q-9 10 -19 17q-8 7 -8 30v20q-16 4 -30 11q-32 16 -57 45q-43 55 -57 144q-13 90 0 186l2 11q12 74 45 163q37 96 93 158q30 34 66 52q29 15 60 15q8 0 16 -1q71 -8 84 -64
q15 -55 -5 -136q-7 -13 -22 -19q-16 -6 -17 10q11 32 16 75q6 42 -6 72q-7 17 -18 27q-12 10 -32 12q-32 1 -61 -64q-30 -65 -51 -147q-12 -45 -20 -88q-9 -44 -15 -80q-5 -30 -6 -70q-1 -39 1 -80q4 -76 23 -137q19 -62 52 -62q17 0 32 28t26 64q8 23 13 47q4 24 6 42
q6 8 16 6q12 -3 12 -14q-4 -25 -16 -80q-11 -55 -39 -93q-12 -16 -29 -26q-15 -11 -35 -11h-1q-1 -2 -1 -5q-2 -9 5 -12q15 -7 27 -19q13 -13 20 -29q16 -30 10 -65v-1q-6 -35 -42 -60q-14 -11 -30 -14q-10 -3 -19 -3q-5 0 -10 1q-33 4 -55 30q-21 24 -16 53z" />
    <glyph glyph-name="Egrave" unicode="&#xc8;" horiz-adv-x="364" 
d="M244 784q14 10 27 10q6 0 11 -2q18 -5 29 -16q16 -7 64 -6q49 1 88 6q7 0 9 -5l-1 -3q0 -3 -3 -6q-41 -17 -86 -20q-46 -2 -65 -7q-7 -10 -26 -79q-18 -69 -38 -155q-9 -37 -17 -75q-9 -37 -16 -72q-14 -64 -22 -110q-8 -47 -7 -55q7 -7 51 1q43 9 75 26q11 -1 10 -11
q-1 -11 -9 -19q-35 -21 -73 -25q-39 -5 -52 -8q-4 -4 -4 -20q-2 -16 0 -36q2 -23 8 -44q5 -21 13 -22q13 -1 58 14q44 15 76 28q2 -2 2 -7t-5 -11q-35 -19 -80 -36q-45 -18 -61 -21q-12 -2 -25 -2q-23 0 -49 6q-43 10 -53 34q-8 61 -7 128q2 66 12 135l3 20q19 117 58 233
q44 126 105 232zM288 891q-1 6 -1 11q3 14 15 26q18 17 36 17h2q25 -15 37 -37q13 -23 26 -50q5 -14 1 -31v-1q-3 -18 -19 -18q-9 2 -17 8q-9 6 -18 14q-19 19 -35 40q-16 22 -27 21z" />
    <glyph glyph-name="Eacute" unicode="&#xc9;" horiz-adv-x="364" 
d="M244 784q14 10 27 10q6 0 11 -2q18 -5 29 -16q16 -7 64 -6q49 1 88 6q7 0 9 -5l-1 -3q0 -3 -3 -6q-41 -17 -86 -20q-46 -2 -65 -7q-3 -4 -8 -21q-6 -16 -13 -40q-12 -46 -29 -114t-32 -137q-19 -86 -33 -155q-13 -69 -11 -79q7 -7 51 1q43 9 75 26q11 0 10 -11t-9 -19
q-35 -21 -73 -25q-39 -5 -52 -8q-5 -5 -6 -27q1 -22 4 -46q2 -19 8 -33q5 -15 11 -16q13 -1 58 14q44 15 76 29q2 -3 2 -8t-5 -11q-35 -19 -80 -36q-45 -18 -61 -21q-12 -2 -25 -2q-23 0 -49 6q-43 10 -53 34q-8 61 -7 128q2 66 12 135l3 20q19 117 58 233q44 126 105 232z
M312 811q-16 0 -13 17v1q2 17 11 31q23 27 43 50q19 23 47 37q2 1 3 1q18 0 30 -18q9 -12 7 -25q-1 -6 -4 -12q-11 1 -34 -20q-23 -22 -48 -41q-11 -8 -22 -14q-10 -6 -20 -7z" />
    <glyph glyph-name="Ecircumflex" unicode="&#xca;" horiz-adv-x="364" 
d="M244 784q14 10 27 10q6 0 11 -2q18 -5 29 -16q16 -7 64 -6q49 1 88 6q7 0 9 -5l-1 -3q0 -3 -3 -6q-41 -17 -86 -20q-46 -2 -65 -7q-3 -4 -8 -21q-6 -16 -13 -40q-12 -46 -29 -114t-32 -137q-19 -86 -33 -155q-13 -69 -11 -79q7 -7 51 1q43 9 75 26q11 0 10 -11t-9 -19
q-35 -21 -73 -25q-39 -5 -52 -8q-5 -5 -6 -27q1 -22 4 -46q2 -19 8 -33q5 -15 11 -16q13 -1 58 14q44 15 76 29q2 -3 2 -8t-5 -11q-35 -19 -80 -36q-45 -18 -61 -21q-12 -2 -25 -2q-23 0 -49 6q-43 10 -53 34q-8 61 -7 128q2 66 12 135l3 20q19 117 58 233q44 126 105 232z
M260 851q9 2 25 16t34 31l41 41q20 19 25 18q4 0 13 -14q9 -15 20 -35q14 -24 26 -47q13 -24 19 -29v-1q-1 -8 -17 -8q-17 1 -25 6q-15 26 -23 52q-8 25 -14 31q-7 -3 -20 -36q-14 -32 -42 -58h-6q-14 -1 -37 7q-24 7 -22 19q1 4 3 7z" />
    <glyph glyph-name="Edieresis" unicode="&#xcb;" horiz-adv-x="364" 
d="M244 784q14 10 27 10q6 0 11 -2q18 -5 29 -16q16 -7 64 -6q49 1 88 6q7 0 9 -5l-1 -3q0 -3 -3 -6q-41 -17 -86 -20q-46 -2 -65 -7q-3 -4 -8 -21q-6 -16 -13 -40q-12 -46 -29 -114t-32 -137q-19 -86 -33 -155q-13 -69 -11 -79q7 -7 51 1q43 9 75 26q11 0 10 -11t-9 -19
q-35 -21 -73 -25q-39 -5 -52 -8q-5 -5 -6 -27q1 -22 4 -46q2 -19 8 -33q5 -15 11 -16q13 -1 58 14q44 15 76 29q2 -3 2 -8t-5 -11q-35 -19 -80 -36q-45 -18 -61 -21q-12 -2 -25 -2q-23 0 -49 6q-43 10 -53 34q-8 61 -7 128q2 66 12 135l3 20q19 117 58 233q44 126 105 232z
M340 859q-8 -18 -27 -26q-15 -7 -27 -7q-3 0 -6 1q-16 2 -15 19q2 17 -4 25q7 20 24 37q17 14 30 14h4q17 -3 23 -24q3 -13 2 -25q-1 -7 -4 -14zM407 823q-17 2 -23 19q-6 15 -4 29l1 3q3 15 20 20q17 4 23 17q19 1 30 -16q11 -16 9 -28l-1 -4q-4 -12 -20 -27
q-15 -13 -31 -13h-4z" />
    <glyph glyph-name="Igrave" unicode="&#xcc;" horiz-adv-x="304" 
d="M340 779q12 0 8 -7t-10 -12q-29 -1 -47 1q-19 2 -24 0v-138q1 -66 1 -130q-2 -118 -12 -231t-41 -235q10 0 28 -3q20 -3 43 -6q6 -2 5 -7q0 -1 -1 -2q-3 -6 -10 -9q-94 6 -142 11q-49 5 -102 -1q-3 4 -2 10q0 5 5 9q16 0 32 2q17 2 33 0q8 75 19 152l25 154
q24 140 44 256q22 116 25 168q-14 -1 -35 0t-44 1q-5 3 -4 8t7 10q22 1 43 1q39 0 73 -1q53 -1 83 -1zM194 886q-1 6 0 12q1 13 15 26q18 17 36 17h2q23 -15 36 -38q12 -22 27 -49q3 -15 1 -32v-1q-3 -17 -19 -17q-10 2 -19 8q-8 5 -17 14q-19 18 -35 40t-27 20z" />
    <glyph glyph-name="Iacute" unicode="&#xcd;" horiz-adv-x="304" 
d="M340 779q12 0 8 -7t-10 -12q-29 -1 -47 1q-19 2 -24 0v-138q1 -66 1 -130q-2 -118 -12 -231t-41 -235q10 0 28 -3q20 -3 43 -6q6 -2 5 -7q0 -1 -1 -2q-3 -6 -10 -9q-94 6 -142 11q-49 5 -102 -1q-3 4 -2 10q0 5 5 9q16 0 32 2q17 2 33 0q8 75 19 152l25 154
q24 140 44 256q22 116 25 168q-14 -1 -35 0t-44 1q-5 3 -4 8t7 10q22 1 43 1q39 0 73 -1q53 -1 83 -1zM211 812q-16 0 -14 17v1q3 17 12 31q22 28 42 50q19 23 49 38h2q18 0 30 -17q9 -13 7 -26q-1 -6 -4 -12q-12 2 -34 -20q-23 -22 -48 -41q-11 -8 -22 -14q-11 -5 -20 -7z
" />
    <glyph glyph-name="Icircumflex" unicode="&#xce;" horiz-adv-x="304" 
d="M340 779q12 0 8 -7t-10 -12q-29 -1 -47 1q-19 2 -24 0v-138q1 -66 1 -130q-2 -118 -12 -231t-41 -235q10 0 28 -3q20 -3 43 -6q6 -2 5 -7q0 -1 -1 -2q-3 -6 -10 -9q-94 6 -142 11q-49 5 -102 -1q-3 4 -2 10q0 5 5 9q16 0 32 2q17 2 33 0q8 75 19 152l25 154
q24 140 44 256q22 116 25 168q-14 -1 -35 0t-44 1q-5 3 -4 8t7 10q22 1 43 1q39 0 73 -1q53 -1 83 -1zM149 852q9 1 25 16q17 14 35 31q21 22 41 40q19 19 24 19q4 0 14 -15q8 -15 19 -34l27 -48q12 -23 18 -28v-1q-1 -9 -17 -8q-17 0 -24 5q-16 27 -24 52q-8 26 -13 32
q-6 -3 -21 -36q-13 -33 -42 -58q-2 -1 -6 -1q-13 0 -37 7q-23 8 -22 20q1 3 3 7z" />
    <glyph glyph-name="Idieresis" unicode="&#xcf;" horiz-adv-x="304" 
d="M340 779q12 0 8 -7t-10 -12q-29 -1 -47 1q-19 2 -24 0v-138q1 -66 1 -130q-2 -118 -12 -231t-41 -235q10 0 28 -3q20 -3 43 -6q6 -2 5 -7q0 -1 -1 -2q-3 -6 -10 -9q-94 6 -142 11q-49 5 -102 -1q-3 4 -2 10q0 5 5 9q16 0 32 2q17 2 33 0q8 75 19 152l25 154
q24 140 44 256q22 116 25 168q-14 -1 -35 0t-44 1q-5 3 -4 8t7 10q22 1 43 1q39 0 73 -1q53 -1 83 -1zM296 870q8 18 26 26q15 7 27 7h7q15 -3 13 -20q-1 -17 4 -25q-6 -20 -23 -36q-16 -15 -29 -15q-3 0 -5 1q-17 2 -23 23q-3 13 -1 25q1 7 4 14zM228 906q18 -2 23 -19
q6 -15 4 -28l-1 -3q-3 -16 -20 -21q-17 -4 -22 -17q-19 0 -31 17q-11 15 -9 28l1 3q4 13 21 27q15 13 30 13h4z" />
    <glyph glyph-name="Ntilde" unicode="&#xd1;" horiz-adv-x="465" 
d="M170 775q17 23 39 23q5 0 9 -1q28 -5 35 -32q-6 -106 -20 -200q-14 -93 -27 -143q4 6 13 23t23 42q26 46 70 109q45 64 111 126q13 11 25 15q14 3 25 1q24 -5 39 -26q16 -21 15 -46q-1 -36 -6 -77q-6 -40 -14 -83q-16 -79 -37 -160q-20 -80 -33 -146q-10 -54 -11 -93
q0 -40 17 -55q1 -6 0 -11t-4 -10q-3 -9 -10 -15q-17 -17 -46 -17h-9q-35 3 -47 26q-21 42 -12 123q10 81 32 172q22 90 48 175t41 139q8 29 10 46t-3 17q-23 4 -72 -57q-48 -60 -92 -133q-31 -49 -53 -93q-23 -45 -31 -70q-4 -20 -8 -48q-4 -29 -7 -61q-8 -60 -16 -118
q-7 -59 -19 -81q-16 -24 -57 -20t-47 40q-5 49 8 133l1 3q14 86 35 181q10 50 22 100q12 49 23 94q20 84 33 142q12 59 7 66zM294 827q0 7 1 17q2 14 9 33q12 31 42 40q11 3 27 -2q18 -5 36 -14q28 -12 53 -25t33 -8q12 8 2 20q-11 12 -17 16q-3 10 14 22q16 10 29 10
q2 0 3 -1q14 -5 24 -19q8 -14 12 -31q4 -21 1 -42q-1 -6 -3 -12q-6 -27 -26 -37q-17 -8 -33 -8h-4q-19 1 -36 9q-26 12 -48 32t-38 34q-9 8 -15 12q-8 4 -12 3q-11 -4 -20 -21q-8 -16 5 -21q-4 -17 -18 -18q-15 -2 -21 11z" />
    <glyph glyph-name="Ograve" unicode="&#xd2;" horiz-adv-x="481" 
d="M251 -2h-5q-57 0 -91 21q-38 22 -57 58q-14 24 -19 53q-6 28 -8 60q-3 58 7 121v11q10 57 21 106q11 51 27 100q16 48 36 90q39 78 99 125q51 38 122 38q16 0 32 -1q22 -3 40 -21q19 -18 32 -47q27 -55 35 -140q10 -85 -3 -173l-1 -7q-7 -44 -21 -90q-14 -50 -33 -96
q-36 -86 -91 -146q-55 -61 -122 -62zM469 402q1 1 2 3q4 34 6 73q3 41 0 83q-3 76 -18 136q-17 60 -45 63h-4q-33 0 -72 -53q-40 -57 -72 -134q-17 -42 -30 -85q-14 -43 -21 -82q-3 -14 -6 -30q-3 -22 -6 -47q-5 -43 -7 -88q-3 -82 9 -149q13 -67 55 -70h8q53 -1 92 59
q41 64 69 148q14 45 24 90t16 83zM332 893q-1 6 0 12q2 13 15 25q18 18 36 18q1 0 1 -1q24 -14 38 -37q12 -23 26 -50q3 -14 1 -31v-1q-3 -17 -19 -17q-10 1 -18 7q-9 6 -18 14q-19 19 -34 41q-17 21 -28 20z" />
    <glyph glyph-name="Oacute" unicode="&#xd3;" horiz-adv-x="481" 
d="M251 -2h-5q-57 0 -91 21q-38 22 -57 58q-14 24 -19 53q-6 28 -8 60q-3 58 7 121v11q10 57 21 106q11 51 27 100q16 48 36 90q39 78 99 125q51 38 122 38q16 0 32 -1q22 -3 40 -21q19 -18 32 -47q27 -55 35 -140q10 -85 -3 -173l-1 -7q-14 -85 -48 -173q-35 -91 -89 -151
q-28 -32 -61 -51t-69 -19zM469 402q1 1 2 3q4 34 6 73q3 41 0 83q-3 76 -18 136q-17 60 -45 63h-4q-33 0 -72 -53q-40 -57 -72 -134q-17 -42 -30 -85q-14 -44 -21 -82q-3 -14 -6 -30q-3 -22 -6 -47q-5 -43 -7 -88q-3 -82 9 -149q13 -67 55 -70h7q27 -1 51 16q27 19 48 52
q40 61 67 151q25 90 36 161zM354 804q-16 0 -13 18v1q3 17 11 31q23 27 43 49q19 23 48 38h2q18 0 30 -17q9 -13 7 -26q-1 -6 -4 -11q-11 1 -34 -21t-48 -40q-11 -8 -22 -14q-10 -6 -20 -8z" />
    <glyph glyph-name="Ocircumflex" unicode="&#xd4;" horiz-adv-x="481" 
d="M251 -2h-5q-57 0 -91 21q-38 22 -57 58q-14 24 -19 53q-6 28 -8 60q-3 58 7 121v11q10 57 21 106q11 51 27 100q16 48 36 90q39 78 99 125q51 38 122 38q16 0 32 -1q22 -3 40 -21q19 -18 32 -47q27 -55 35 -140q10 -85 -3 -173l-1 -7q-7 -44 -21 -90q-14 -50 -33 -96
q-36 -86 -91 -146q-55 -61 -122 -62zM469 402q1 1 2 3q4 34 6 73q3 41 0 83q-3 76 -18 136q-17 60 -45 63h-4q-33 0 -72 -53q-40 -57 -72 -134q-17 -42 -30 -85q-14 -43 -21 -82q-3 -14 -6 -30q-3 -22 -6 -47q-5 -43 -7 -88q-3 -82 9 -149q13 -67 55 -70h8q53 -1 92 59
q41 64 69 148q14 45 24 90t16 83zM288 833q11 2 32 22q22 20 43 41q18 17 32 30t18 13t14 -14q9 -15 19 -35q14 -24 27 -47q12 -24 18 -29v-1q-1 -8 -17 -8q-17 1 -24 6q-16 26 -24 52q-8 25 -13 31q-6 -3 -21 -36q-13 -33 -42 -58q-2 -1 -6 -1q-13 0 -37 8q-23 7 -22 19
q1 3 3 7z" />
    <glyph glyph-name="Otilde" unicode="&#xd5;" horiz-adv-x="481" 
d="M251 -2h-5q-57 0 -91 21q-38 22 -57 58q-14 24 -19 53q-6 28 -8 60q-3 58 7 121v11q10 57 21 106q11 51 27 100q16 48 36 90q39 78 99 125q51 38 122 38q16 0 32 -1q22 -3 40 -21q19 -18 32 -47q27 -55 35 -140q10 -85 -3 -173l-1 -7q-7 -44 -21 -90q-14 -50 -33 -96
q-36 -86 -91 -146q-55 -61 -122 -62zM469 402q1 1 2 3q4 34 6 73q3 41 0 83q-3 76 -18 136q-17 60 -45 63h-4q-33 0 -72 -53q-40 -57 -72 -134q-17 -42 -30 -85q-14 -43 -21 -82q-3 -14 -6 -30q-3 -22 -6 -47q-5 -43 -7 -88q-3 -82 9 -149q13 -67 55 -70h8q53 -1 92 59
q41 64 69 148q14 45 24 90t16 83zM242 842q-1 8 1 17q2 15 9 34q12 31 41 39q11 4 28 -2q17 -5 36 -13q28 -13 53 -26q25 -12 33 -7q12 7 2 19q-12 12 -18 16q-3 11 15 22q15 10 28 10h3q14 -5 24 -19q9 -14 12 -32q5 -21 1 -42q-1 -6 -2 -11q-7 -27 -27 -37q-17 -9 -33 -9
h-5q-17 2 -34 9q-26 12 -49 32q-22 21 -38 35q-8 7 -15 12q-7 4 -11 2q-12 -4 -21 -20q-7 -17 5 -22q-4 -16 -18 -18t-20 11z" />
    <glyph glyph-name="Odieresis" unicode="&#xd6;" horiz-adv-x="481" 
d="M251 -2h-5q-57 0 -91 21q-38 22 -57 58q-14 24 -19 53q-6 28 -8 60q-3 58 7 121v11q10 57 21 106q11 51 27 100q16 48 36 90q39 78 99 125q51 38 122 38q16 0 32 -1q22 -3 40 -21q19 -18 32 -47q27 -55 35 -140q10 -85 -3 -173q-1 -4 -1 -7q-7 -44 -21 -90
q-14 -50 -33 -96q-36 -86 -91 -146q-55 -61 -122 -62zM469 402q1 1 2 3q4 34 6 73q3 41 0 83q-3 76 -18 136q-17 60 -45 63h-4q-33 0 -72 -53q-40 -57 -72 -134q-17 -42 -30 -85q-14 -43 -21 -82q-3 -14 -6 -30q-3 -22 -6 -47q-5 -43 -7 -88q-3 -82 9 -149q13 -67 55 -70h8
q53 -1 92 59q41 64 69 148q14 45 24 90t16 83zM304 865v3q1 13 16 28q18 17 37 17q2 -13 17 -18q16 -4 14 -20v-3q-2 -13 -13 -28q-12 -17 -29 -19h-4q-16 0 -27 12q-12 15 -11 28zM466 923q2 1 4 1q13 -1 23 -15q14 -16 14 -36q-9 -9 -12 -25q-4 -17 -21 -20h-6
q-12 0 -25 6q-16 9 -18 26q-1 7 0 15q2 12 10 25q12 20 31 23z" />
    <glyph glyph-name="multiply" unicode="&#xd7;" horiz-adv-x="408" 
d="M109 155q-18 -17 -30 -17q-5 0 -9 4q-13 11 -10 29q15 19 51 54q37 35 81 76q67 62 135 124q69 62 96 91q6 1 11 1q12 0 22 -6q8 -6 7 -14q-1 -6 -7 -13q-2 -3 -13 -14q-11 -10 -27 -24q-30 -28 -77 -68l-90 -80q-57 -51 -100 -92q-43 -42 -40 -51zM135 451q-4 8 -3 14
q2 10 14 16q14 6 26 6q7 0 13 -2q13 -14 32 -38t41 -54q40 -54 81 -114q40 -60 58 -92q4 -9 3 -16q-2 -5 -4 -8q-3 -6 -9 -6q-5 0 -14 5q-5 9 -36 45q-30 37 -68 82q-46 55 -87 105q-42 50 -47 57z" />
    <glyph glyph-name="Oslash" unicode="&#xd8;" horiz-adv-x="481" 
d="M252 3h-5q-57 0 -92 21q-37 22 -56 59q-14 23 -19 52q-7 29 -9 60q-2 59 8 122q-1 5 0 11q9 56 21 105q11 51 27 100q16 48 36 90q39 79 99 125q51 39 122 39q16 0 32 -2q21 -3 40 -20q19 -18 32 -48q26 -55 35 -140t-4 -173l-1 -7q-7 -44 -20 -90q-14 -50 -33 -96
q-37 -86 -91 -146q-55 -61 -122 -62zM470 407l2 4q4 33 6 72q2 41 0 83q-3 76 -18 136q-17 61 -45 63q-2 1 -4 1q-33 0 -72 -54q-40 -57 -72 -134q-18 -42 -30 -85q-14 -43 -21 -82q-4 -14 -6 -30q-4 -22 -7 -47q-4 -43 -6 -87q-3 -82 9 -150q13 -67 55 -70h8q53 -1 92 59
q41 64 69 148q14 45 24 90t16 83z" />
    <glyph glyph-name="Ugrave" unicode="&#xd9;" horiz-adv-x="515" 
d="M478 -4q-10 -12 -25 -12q-9 0 -21 5q-30 14 -25 29q-1 14 -2 33q-2 20 -3 42q-1 41 0 85q0 45 5 75q-8 -15 -37 -66q-30 -52 -69 -98q-26 -31 -54 -52q-27 -21 -53 -19q-22 1 -40 14q-17 13 -30 35q-21 41 -28 108q-5 67 -2 143q3 51 8 103t12 101q11 90 23 159
q11 69 10 88q12 23 35 28q8 1 16 1q14 0 27 -5q14 -5 25 -15q11 -11 15 -24q3 -57 -7 -147q-10 -89 -26 -184q-13 -92 -27 -178q-13 -85 -16 -138q-1 -28 1 -45q3 -16 11 -17q24 -1 68 48q45 49 82 108q26 39 44 75q18 35 21 56q3 12 8 37q5 26 12 58q13 62 31 138
q18 77 42 140q10 23 41 23q31 1 42 -28q-48 -182 -81 -312t-43 -224q-5 -50 -3 -92q2 -41 13 -76zM351 882q-2 6 -1 12q2 13 15 25q19 18 37 18q1 0 2 -1q24 -14 36 -37t26 -50q5 -14 2 -31v-1q-3 -17 -20 -17q-9 1 -18 7t-16 14q-20 19 -36 41q-16 21 -27 20z" />
    <glyph glyph-name="Uacute" unicode="&#xda;" horiz-adv-x="515" 
d="M478 -4q-10 -12 -25 -12q-9 0 -21 5q-30 14 -25 29q-1 14 -2 33q-2 20 -3 42q-1 41 0 85q0 45 5 75q-8 -15 -37 -66q-30 -52 -69 -98q-26 -31 -54 -52q-27 -21 -53 -19q-22 1 -40 14q-17 13 -30 35q-21 41 -28 108q-5 67 -2 143q3 51 8 103t12 101q11 90 23 159
q11 69 10 88q12 23 35 28q8 1 16 1q14 0 27 -5q14 -5 25 -15q11 -11 15 -24q3 -57 -7 -147q-10 -89 -26 -184q-13 -92 -27 -178q-13 -85 -16 -138q-1 -28 1 -45q3 -16 11 -17q24 -1 68 48q45 49 82 108q26 39 44 75q18 35 21 56q3 12 8 37q5 26 12 58q13 62 31 138
q18 77 42 140q10 23 41 23q31 1 42 -28q-48 -182 -81 -312t-43 -224q-5 -50 -3 -92q2 -41 13 -76zM381 806q-16 0 -13 17v1q3 17 11 32q23 27 43 49q19 23 48 38h2q18 0 30 -17q9 -13 7 -26q-1 -6 -4 -12q-11 2 -33 -20q-24 -22 -48 -40q-12 -9 -22 -15q-11 -5 -21 -7z" />
    <glyph glyph-name="Ucircumflex" unicode="&#xdb;" horiz-adv-x="515" 
d="M478 -4q-10 -12 -25 -12q-9 0 -21 5q-30 14 -25 29q-1 14 -2 33q-2 20 -3 42q-1 41 0 85q0 45 5 75q-8 -15 -37 -66q-30 -52 -69 -98q-26 -31 -54 -52q-27 -21 -53 -19q-22 1 -40 14q-17 13 -30 35q-21 41 -28 108q-5 67 -2 143q3 51 8 103t12 101q11 90 23 159
q11 69 10 88q12 23 35 28q8 1 16 1q14 0 27 -5q14 -5 25 -15q11 -11 15 -24q3 -57 -7 -147q-10 -89 -26 -184q-13 -92 -27 -178q-13 -85 -16 -138q-1 -28 1 -45q3 -16 11 -17q24 -1 68 48q45 49 82 108q26 39 44 75q18 35 21 56q3 12 8 37q5 26 12 58q13 62 31 138
q18 77 42 140q10 23 41 23q31 1 42 -28q-48 -182 -81 -312t-43 -224q-5 -50 -3 -92q2 -41 13 -76zM302 842q10 2 31 21q21 20 44 41q17 18 31 31t19 13q4 0 12 -15q10 -15 20 -34q14 -24 26 -48q14 -23 20 -28v-1q-2 -9 -18 -8q-17 0 -25 5q-15 27 -23 52q-7 26 -13 32
q-7 -3 -20 -36q-14 -33 -42 -58q-4 -1 -7 -1q-14 0 -36 7q-24 8 -22 20q0 3 3 7z" />
    <glyph glyph-name="Udieresis" unicode="&#xdc;" horiz-adv-x="515" 
d="M478 -4q-10 -12 -25 -12q-9 0 -21 5q-30 14 -25 29q-1 14 -2 33q-2 20 -3 42q-1 41 0 85q0 45 5 75q-8 -15 -37 -66q-30 -52 -69 -98q-26 -31 -54 -52q-27 -21 -53 -19q-22 1 -40 14q-17 13 -30 35q-21 41 -28 108q-5 67 -2 143q3 51 8 103t12 101q11 90 23 159
q11 69 10 88q12 23 35 28q8 1 16 1q14 0 27 -5q14 -5 25 -15q11 -11 15 -24q3 -57 -7 -147q-10 -89 -26 -184q-13 -92 -27 -178q-13 -85 -16 -138q-1 -28 1 -45q3 -16 11 -17q24 -1 68 48q45 49 82 108q26 39 44 75q18 35 21 56q3 12 8 37q5 26 12 58q13 62 31 138
q18 77 42 140q10 23 41 23q31 1 42 -28q-48 -182 -81 -312t-43 -224q-5 -50 -3 -92q2 -41 13 -76zM342 811q-2 -1 -4 -1q-14 1 -25 15q-12 16 -12 36q8 9 12 25q4 17 20 20h7q12 0 25 -6q16 -9 17 -26q1 -7 0 -15q-2 -12 -9 -25q-13 -20 -31 -23zM504 869v-3q-2 -13 -18 -28
q-16 -17 -35 -17q-2 13 -18 18q-15 4 -13 20v3q2 13 12 28q12 17 29 19h4q16 0 27 -12q12 -15 12 -28z" />
    <glyph glyph-name="Yacute" unicode="&#xdd;" horiz-adv-x="419" 
d="M274 -29q-6 -6 -20 -6q-16 0 -43 8q-47 16 -37 45q24 -4 49 42t49 109q18 50 33 101q15 52 26 90q5 20 9 35q3 14 4 20q-8 -16 -30 -47t-65 -31q-37 1 -60 38q-24 37 -38 91q-12 53 -17 113q-4 60 -3 109q2 26 4 46l2 14q2 12 4 20q18 29 51 39q10 3 18 3q16 0 18 -14
q-3 -41 -5 -97q-2 -57 -2 -114q0 -87 8 -155t28 -69q28 -1 59 39q30 39 38 71q6 16 20 56q15 40 34 86q10 25 19 49q11 25 21 46q14 30 44 34q29 3 29 -24q-22 -42 -45 -121q-23 -80 -46 -173q-12 -49 -25 -98q-13 -50 -26 -97q-24 -88 -50 -158t-55 -100zM325 806
q-16 0 -14 17v1q3 17 12 32q22 27 42 49q19 23 49 38h2q17 0 30 -17q9 -13 7 -26q-1 -6 -4 -12q-12 2 -34 -20q-23 -22 -47 -40q-12 -9 -23 -15q-11 -5 -20 -7z" />
    <glyph glyph-name="germandbls" unicode="&#xdf;" horiz-adv-x="2759" 
d="M2560 430q10 -8 14 -26q4 -17 -2 -28q-14 -6 -24 -16q-10 -9 -17 -20q-18 -34 -3 -72q14 -37 54 -34q49 4 83 40t43 81q5 25 1 50t-17 47q-34 56 -102 74t-151 7q-44 -6 -90 -20q-45 -14 -91 -34q-68 -31 -127 -74q-60 -44 -101 -96q-27 -37 -44 -78q-15 -40 -14 -82
q4 -79 46 -102q42 -22 74 15q14 16 23 43q9 28 9 66q-2 98 -72 164q-72 67 -173 94q-54 14 -113 17t-116 -8q-91 -17 -185 -62t-191 -103q-62 -38 -126 -78q-63 -41 -127 -79q-119 -72 -238 -127t-237 -65q-26 -2 -52 -2q-32 0 -63 3q-56 7 -109 22q-96 28 -170 81
q-75 53 -105 115q2 10 13 16t24 3q16 -28 44 -53q28 -24 65 -45q69 -38 162 -57q92 -19 188 -10q78 8 171 46t195 91q65 34 133 73q68 38 136 75q127 70 248 126t225 72q67 10 136 8q67 -2 130 -16q117 -28 196 -101q81 -72 83 -194q0 -40 -11 -72q-10 -32 -28 -55
q-34 -45 -84 -54q-51 -10 -88 20q-20 17 -33 45t-15 69q-3 72 24 137q25 65 72 120q32 37 71 69t82 58q82 48 172 71q70 19 135 19q19 0 38 -2q67 -5 122 -34q56 -29 89 -84q29 -49 20 -109q0 -2 -1 -4q-11 -62 -54 -108q-23 -25 -54 -42q-32 -17 -70 -21q-20 -2 -36 2
t-29 12q-32 23 -40 67q-8 45 10 85q11 21 28 38q18 17 44 26z" />
    <glyph glyph-name="agrave" unicode="&#xe0;" horiz-adv-x="528" 
d="M395 443q2 -4 0 -9q-1 -4 -7 -6q-15 18 -33 19t-37 -10q-34 -20 -70 -73q-34 -52 -60 -111q-33 -75 -44 -138q-10 -62 19 -62q13 0 39 42q25 43 53 98q35 68 63 132t31 72q9 14 43 20q34 5 46 -8q4 -3 4 -8q1 -4 -1 -10q-6 2 -27 -52q-20 -53 -42 -123q-10 -30 -20 -61
q-9 -30 -17 -58q-14 -52 -22 -88t-2 -37q15 -2 51 45q38 48 76 105q31 47 58 89q25 41 36 56q7 2 15 1t15 -6q-9 -13 -36 -58q-26 -45 -61 -96q-43 -63 -88 -116q-43 -50 -69 -50h-3q-23 3 -35 17t-15 36q-3 18 -2 40q2 22 6 45q9 43 23 85l20 65q-5 -11 -14 -32
q-11 -24 -27 -53q-23 -43 -50 -82t-46 -41q-54 -4 -97 21q-43 26 -35 83l2 11q11 70 43 134q35 68 78 117q23 26 46 45t44 29q9 5 23 8t30 4h12q23 0 45 -6q29 -7 39 -25zM287 580q-2 6 -1 12q2 13 15 26q19 17 37 17h1q25 -15 37 -38q13 -22 26 -49q5 -15 2 -31v-2
q-3 -17 -20 -17q-8 2 -17 8q-10 5 -17 14q-20 18 -36 40q-15 22 -27 20z" />
    <glyph glyph-name="aacute" unicode="&#xe1;" horiz-adv-x="528" 
d="M395 443q2 -4 0 -9q-1 -4 -7 -6q-15 18 -33 19t-37 -10q-34 -20 -70 -73q-34 -52 -60 -111q-33 -75 -44 -138q-10 -62 19 -62q13 0 39 42q25 43 53 98q35 68 63 132t31 72q9 14 43 20q34 5 46 -8q4 -3 4 -8q1 -4 -1 -10q-6 2 -27 -52q-20 -53 -42 -123q-10 -30 -20 -61
q-9 -30 -17 -58q-14 -52 -22 -88t-2 -37q15 -2 51 45q38 48 76 105q31 47 58 89q25 41 36 56q7 2 15 1t15 -6q-9 -13 -36 -58q-26 -45 -61 -96q-43 -63 -88 -116q-43 -50 -69 -50h-3q-23 3 -35 17t-15 36q-3 18 -2 40q2 22 6 45q9 43 23 85l20 65q-5 -11 -14 -32
q-11 -24 -27 -53q-23 -43 -50 -82t-46 -41q-54 -4 -97 21q-43 26 -35 83l2 11q11 70 43 134q35 68 78 117q23 26 46 45t44 29q9 5 23 8t30 4h12q23 0 45 -6q29 -7 39 -25zM301 493q-16 0 -14 17v1q3 17 11 31q24 27 43 50q20 23 48 38h2q18 0 30 -18q11 -12 7 -25
q0 -6 -3 -12q-11 2 -34 -20t-48 -41q-11 -8 -21 -14q-11 -6 -21 -7z" />
    <glyph glyph-name="acircumflex" unicode="&#xe2;" horiz-adv-x="528" 
d="M395 443q2 -4 0 -9q-1 -4 -7 -6q-15 18 -33 19t-37 -10q-34 -20 -70 -73q-34 -52 -60 -111q-33 -75 -44 -138q-10 -62 19 -62q13 0 39 42q25 43 53 98q35 68 63 132t31 72q9 14 43 20q34 5 46 -8q4 -3 4 -8q1 -4 -1 -10q-6 2 -27 -52q-20 -53 -42 -123q-10 -30 -20 -61
q-9 -30 -17 -58q-14 -52 -22 -88t-2 -37q15 -2 51 45q38 48 76 105q31 47 58 89q25 41 36 56q7 2 15 1t15 -6q-9 -13 -36 -58q-26 -45 -61 -96q-43 -63 -88 -116q-43 -50 -69 -50h-3q-23 3 -35 17t-15 36q-3 18 -2 40q2 22 6 45q9 43 23 85l20 65q-5 -11 -14 -32
q-11 -24 -27 -53q-23 -43 -50 -82t-46 -41q-54 -4 -97 21q-43 26 -35 83l2 11q11 70 43 134q35 68 78 117q23 26 46 45t44 29q9 5 23 8t30 4h12q23 0 45 -6q29 -7 39 -25zM226 528q10 2 33 22q21 19 42 41q18 17 32 30t19 13q3 0 13 -15q8 -14 19 -34l27 -48q13 -23 19 -28
v-1q-1 -9 -18 -8t-25 5q-14 27 -23 52q-8 26 -13 32q-7 -3 -21 -36q-13 -33 -41 -58q-3 -1 -7 -1q-13 0 -37 7q-23 8 -21 20q-1 3 2 7z" />
    <glyph glyph-name="atilde" unicode="&#xe3;" horiz-adv-x="528" 
d="M395 443q2 -4 0 -9q-1 -4 -7 -6q-15 18 -33 19t-37 -10q-34 -20 -70 -73q-34 -52 -60 -111q-33 -75 -44 -138q-10 -62 19 -62q13 0 39 42q25 43 53 98q35 68 63 132t31 72q9 14 43 20q34 5 46 -8q4 -3 4 -8q1 -4 -1 -10q-6 2 -27 -52q-20 -53 -42 -123q-10 -30 -20 -61
q-9 -30 -17 -58q-14 -52 -22 -88t-2 -37q15 -2 51 45q38 48 76 105q31 47 58 89q25 41 36 56q7 2 15 1t15 -6q-9 -13 -36 -58q-26 -45 -61 -96q-43 -63 -88 -116q-43 -50 -69 -50h-3q-23 3 -35 17t-15 36q-3 18 -2 40q2 22 6 45q9 43 23 85l20 65q-5 -11 -14 -32
q-11 -24 -27 -53q-23 -43 -50 -82t-46 -41q-54 -4 -97 21q-43 26 -35 83l2 11q11 70 43 134q35 68 78 117q23 26 46 45t44 29q9 5 23 8t30 4h12q23 0 45 -6q29 -7 39 -25zM207 535q0 8 1 18q2 14 9 33q11 31 41 40q11 3 28 -2q18 -5 36 -14q27 -12 53 -25q25 -13 33 -8
q12 8 1 20q-10 12 -16 16q-4 10 14 22q15 10 27 9h4q15 -5 23 -19q9 -14 14 -31q3 -21 0 -43l-2 -11q-7 -27 -27 -37q-17 -8 -33 -8h-4q-19 1 -36 9q-14 6 -26 15q-14 10 -25 20q-21 18 -37 33q-16 16 -24 13q-12 -4 -20 -21q-9 -17 4 -21q-3 -17 -18 -18q-15 -2 -20 10z
" />
    <glyph glyph-name="adieresis" unicode="&#xe4;" horiz-adv-x="528" 
d="M395 443q2 -4 0 -9q-1 -4 -7 -6q-15 18 -33 19t-37 -10q-34 -20 -70 -73q-34 -52 -60 -111q-33 -75 -44 -138q-10 -62 19 -62q13 0 39 42q25 43 53 98q35 68 63 132t31 72q9 14 43 20q34 5 46 -8q4 -3 4 -8q1 -4 -1 -10q-6 2 -27 -52q-20 -53 -42 -123q-10 -30 -20 -61
q-9 -30 -17 -58q-14 -52 -22 -88t-2 -37q15 -2 51 45q38 48 76 105q31 47 58 89q25 41 36 56q7 2 15 1t15 -6q-9 -13 -36 -58q-26 -45 -61 -96q-43 -63 -88 -116q-43 -50 -69 -50h-3q-23 3 -35 17t-15 36q-3 18 -2 40q2 22 6 45q9 43 23 85l20 65q-5 -11 -14 -32
q-11 -24 -27 -53q-23 -43 -50 -82t-46 -41q-54 -4 -97 21q-43 26 -35 83l2 11q11 70 43 134q35 68 78 117q23 26 46 45t44 29q9 5 23 8t30 4h12q23 0 45 -6q29 -7 39 -25zM321 535q-8 -18 -26 -26q-14 -7 -27 -7q-3 0 -6 1q-17 2 -15 19t-4 25q6 20 25 37q15 14 28 14h4
q18 -3 23 -24q4 -13 2 -25q-1 -7 -4 -14zM395 506q-18 2 -23 19q-6 15 -4 28l1 3q3 16 20 20q17 5 22 18q19 0 31 -17q11 -15 8 -28v-4q-4 -12 -21 -27q-16 -13 -30 -12h-4z" />
    <glyph glyph-name="aring" unicode="&#xe5;" horiz-adv-x="528" 
d="M395 443q2 -4 0 -9q-1 -4 -7 -6q-15 18 -33 19t-37 -10q-34 -20 -70 -73q-34 -52 -60 -111q-33 -75 -44 -138q-10 -62 19 -62q13 0 39 42q25 43 53 98q35 68 63 132t31 72q9 14 43 20q34 5 46 -8q4 -3 4 -8q1 -4 -1 -10q-6 2 -27 -52q-20 -53 -42 -123q-10 -30 -20 -61
q-9 -30 -17 -58q-14 -52 -22 -88t-2 -37q15 -2 51 45q38 48 76 105q31 47 58 89q25 41 36 56q7 2 15 1t15 -6q-9 -13 -36 -58q-26 -45 -61 -96q-43 -63 -88 -116q-43 -50 -69 -50h-3q-23 3 -35 17t-15 36q-3 18 -2 40q2 22 6 45q9 43 23 85l20 65q-5 -11 -14 -32
q-11 -24 -27 -53q-23 -43 -50 -82t-46 -41q-54 -4 -97 21q-43 26 -35 83l2 11q11 70 43 134q35 68 78 117q23 26 46 45t44 29q9 5 23 8t30 4h12q23 0 45 -6q29 -7 39 -25zM340 634q7 1 11 -11q0 2 1 5q2 13 10 12h6q42 0 49 -39q2 -14 0 -27q-4 -25 -25 -45q-9 -11 -25 -18
q-14 -7 -33 -9q-4 -1 -9 -1q-11 0 -21 4q-12 4 -20 13q-17 17 -17 43q0 6 1 12q3 19 17 35q8 10 22 17q15 7 33 9zM346 594q-24 2 -19 -30q4 -32 29 -27q19 3 29 30q11 26 0 40q-4 5 -10 7q-7 3 -16 2q-3 -1 -6 1q4 -16 -7 -23z" />
    <glyph glyph-name="ae" unicode="&#xe6;" horiz-adv-x="683" 
d="M392 437q3 -4 1 -9q-1 -4 -8 -6q-28 33 -64 12t-70 -68q-19 -26 -36 -57q-16 -31 -30 -62q-33 -75 -43 -138q-11 -62 18 -62q13 0 40 42q25 43 53 98q34 68 62 132t32 72q8 14 43 20q15 2 26 1l9 8q28 25 55 36q23 9 43 9h4q40 -2 58 -37t-3 -85q-33 -78 -99 -107
q-31 -13 -67 -19v-1q-14 -26 -25 -52q-18 -47 -20 -85q-3 -38 22 -53q25 -16 79 10q53 26 108 66q28 22 55 44q25 22 44 41q10 4 16 2q7 -3 10 -13q-21 -21 -48 -45q-28 -25 -60 -49q-57 -44 -120 -71q-33 -14 -62 -14q-24 0 -44 10q-32 15 -51 39q-4 -19 -8 -34
q-15 -17 -37 -18q-3 -1 -5 -1q-18 0 -20 15q-2 52 19 118q21 64 31 100q-4 -11 -15 -34q-11 -24 -26 -53q-23 -43 -50 -82q-28 -39 -47 -41q-54 -4 -96 21q-43 26 -35 83l1 11q11 70 44 134q35 68 77 117q23 26 46 45t44 29q10 5 24 8q13 3 30 4h11q23 0 46 -6q28 -7 38 -25
zM485 266q54 32 74 77q20 44 4 53q-13 9 -50 -31q-35 -39 -69 -98q-8 -12 -14 -25q30 8 55 24z" />
    <glyph glyph-name="ccedilla" unicode="&#xe7;" horiz-adv-x="467" 
d="M98 -158q5 19 37 25q33 5 33 -23q-9 -25 0 -47t34 -6q19 11 17 35q-1 24 -15 47q-6 13 -15 24q-8 10 -18 17q-9 7 -9 30q0 17 2 28q-36 9 -60 31q-31 28 -46 67q-27 68 -12 159l2 12q17 98 71 177q19 28 41 45q23 17 45 24q19 7 37 7q30 0 55 -19q39 -29 31 -89
q-2 -11 -5 -21q-2 -10 -6 -20q-9 -8 -21 -2q-12 7 -11 17q7 21 9 46q1 26 -15 28q-18 2 -46 -51q-27 -53 -49 -125q-17 -56 -25 -114t0 -97q3 -22 13 -36t26 -18q33 -8 85 40q50 47 98 107q26 33 47 64q22 32 38 56q8 5 16 5q8 -1 14 -8q-16 -27 -39 -62q-23 -34 -51 -70
q-50 -65 -110 -116q-45 -37 -87 -41l-2 -14q-1 -8 5 -11q15 -7 27 -20q13 -12 21 -28q14 -30 10 -65l-1 -1q-5 -35 -41 -61q-15 -10 -30 -13q-11 -3 -21 -3q-4 0 -9 1q-33 4 -55 30q-20 24 -15 53v6z" />
    <glyph glyph-name="egrave" unicode="&#xe8;" 
d="M156 85q4 -57 42 -66q32 -8 83 33q50 41 97 95q25 30 46 59q22 30 37 54q9 7 17 6q7 -1 14 -9q-17 -27 -39 -60q-23 -32 -50 -64q-50 -61 -109 -105q-49 -36 -95 -36q-9 0 -19 1q-87 16 -118 88q-30 73 -16 159v1q7 47 25 92q19 46 47 85q23 32 49 50q24 18 48 23
q11 2 21 2q30 0 52 -22q29 -30 22 -85q-13 -87 -77 -134q-29 -22 -66 -38v-3q-15 -69 -11 -126zM183 598q-1 6 -1 11q2 14 16 26q18 17 36 17h2q23 -15 36 -37q12 -23 26 -50q5 -14 2 -31v-1q-3 -18 -20 -18q-9 2 -18 8t-16 14q-19 19 -36 40q-16 22 -27 21zM228 282
q48 47 57 97q8 50 -11 55q-14 3 -34 -29q-20 -31 -39 -80q-10 -26 -19 -56q-5 -13 -8 -27q32 18 54 40z" />
    <glyph glyph-name="eacute" unicode="&#xe9;" 
d="M156 85q4 -57 42 -66q32 -8 83 33q50 41 97 95q25 30 46 59q22 30 37 54q9 7 17 6q7 -1 14 -9q-17 -27 -39 -60q-23 -32 -50 -64q-50 -61 -109 -105q-49 -36 -95 -36q-9 0 -19 1q-87 16 -118 88q-30 73 -16 159v1q7 47 25 92q19 46 47 85q23 32 49 50q24 18 48 23
q11 2 21 2q30 0 52 -22q29 -30 22 -85q-13 -87 -77 -134q-29 -22 -66 -38v-3q-15 -69 -11 -126zM220 512q-16 0 -15 17v1q3 17 13 32q22 27 41 49q20 23 49 38h2q18 0 31 -17q9 -13 6 -26q0 -6 -3 -12q-12 2 -35 -20q-22 -22 -47 -40q-11 -9 -22 -14q-11 -6 -20 -8zM228 282
q48 47 57 97q8 50 -11 55q-14 3 -34 -29q-20 -31 -39 -80q-10 -26 -19 -56q-5 -13 -8 -27q32 18 54 40z" />
    <glyph glyph-name="ecircumflex" unicode="&#xea;" 
d="M156 85q4 -57 42 -66q32 -8 83 33q50 41 97 95q25 30 46 59q22 30 37 54q9 7 17 6q7 -1 14 -9q-17 -27 -39 -60q-23 -32 -50 -64q-50 -61 -109 -105q-49 -36 -95 -36q-9 0 -19 1q-87 16 -118 88q-30 73 -16 159v1q7 47 25 92q19 46 47 85q23 32 49 50q24 18 48 23
q11 2 21 2q30 0 52 -22q29 -30 22 -85q-13 -87 -77 -134q-29 -22 -66 -38v-3q-15 -69 -11 -126zM131 538q8 2 24 16t34 31q23 22 42 41q18 18 24 18q4 0 13 -15q10 -14 20 -34q14 -24 26 -47q13 -24 20 -29v-1q-2 -9 -18 -8q-17 1 -25 5q-15 27 -23 52q-8 26 -14 32
q-6 -3 -19 -36q-15 -33 -43 -58q-3 -1 -6 -1q-14 0 -36 8q-24 7 -22 19q0 3 3 7zM228 282q48 47 57 97q8 50 -11 55q-14 3 -34 -29q-20 -31 -39 -80q-10 -26 -19 -56q-5 -13 -8 -27q32 18 54 40z" />
    <glyph glyph-name="edieresis" unicode="&#xeb;" 
d="M156 85q4 -57 42 -66q32 -8 83 33q50 41 97 95q25 30 46 59q22 30 37 54q9 7 17 6q7 -1 14 -9q-17 -27 -39 -60q-23 -32 -50 -64q-50 -61 -109 -105q-49 -36 -95 -36q-9 0 -19 1q-87 16 -118 88q-30 73 -16 159v1q7 47 25 92q19 46 47 85q23 32 49 50q24 18 48 23
q11 2 21 2q30 0 52 -22q29 -30 22 -85q-13 -87 -77 -134q-29 -22 -66 -38v-3q-15 -69 -11 -126zM228 282q48 47 57 97q8 50 -11 55q-14 3 -34 -29q-20 -31 -39 -80q-10 -26 -19 -56q-5 -13 -8 -27q32 18 54 40zM312 622q2 1 5 1q13 0 24 -15q12 -16 12 -36q-8 -8 -12 -25
t-20 -20h-7q-12 0 -24 7q-16 8 -18 26q-1 7 0 14q2 12 9 25q13 21 31 23zM150 564v3q2 13 18 28q17 17 36 17q1 -13 17 -17q15 -5 13 -21v-3q-2 -13 -12 -28q-12 -17 -30 -19h-4q-16 0 -25 13q-13 14 -13 27z" />
    <glyph glyph-name="igrave" unicode="&#xec;" horiz-adv-x="347" 
d="M108 415q10 20 39 30q15 5 26 5q12 0 19 -5q5 -4 8 -10q2 -6 1 -15q-2 -5 -20 -62t-36 -129q-16 -57 -28 -113q-13 -56 -16 -91q-2 -20 1 -31q2 -11 9 -12q15 -1 62 51q46 52 91 111q29 39 54 72q24 33 32 46q9 4 16 3t14 -8q-4 -7 -13 -21q-9 -13 -22 -32
q-24 -33 -57 -77t-67 -82q-36 -40 -67 -67q-30 -25 -49 -25h-3q-35 3 -53 22q-18 20 -23 51q-5 33 0 74l2 11q6 36 16 73q20 80 46 149q25 69 18 82zM122 606q-1 6 0 12q2 13 15 26q18 17 36 17h2q25 -15 37 -38q13 -22 26 -49q5 -15 2 -32v-1q-4 -17 -20 -17q-8 2 -17 7
q-9 6 -18 15q-19 18 -35 40q-15 22 -28 20z" />
    <glyph glyph-name="iacute" unicode="&#xed;" horiz-adv-x="347" 
d="M108 415q10 20 39 30q15 5 26 5q12 0 19 -5q5 -4 8 -10q2 -6 1 -15q-2 -5 -20 -62t-36 -129q-16 -57 -28 -113q-13 -56 -16 -91q-2 -20 1 -31q2 -11 9 -12q15 -1 62 51q46 52 91 111q29 39 54 72q24 33 32 46q9 4 16 3t14 -8q-4 -7 -13 -21q-9 -13 -22 -32
q-24 -33 -57 -77t-67 -82q-36 -40 -67 -67q-30 -25 -49 -25h-3q-35 3 -53 22q-18 20 -23 51q-5 33 0 74l2 11q6 36 16 73q20 80 46 149q25 69 18 82zM144 502q-16 0 -14 18v1q3 17 12 31q22 27 42 50q19 22 49 37h2q18 0 30 -17q9 -13 7 -26q-1 -5 -4 -11q-11 1 -34 -21
q-22 -21 -48 -40q-11 -8 -22 -14q-10 -6 -20 -8z" />
    <glyph glyph-name="icircumflex" unicode="&#xee;" horiz-adv-x="347" 
d="M108 415q10 20 39 30q15 5 26 5q12 0 19 -5q5 -4 8 -10q2 -6 1 -15q-2 -5 -20 -62t-36 -129q-16 -57 -28 -113q-13 -56 -16 -91q-2 -20 1 -31q2 -11 9 -12q15 -1 62 51q46 52 91 111q29 39 54 72q24 33 32 46q9 4 16 3t14 -8q-4 -7 -13 -21q-9 -13 -22 -32
q-24 -33 -57 -77t-67 -82q-36 -40 -67 -67q-30 -25 -49 -25h-3q-35 3 -53 22q-18 20 -23 51q-5 33 0 74l2 11q6 36 16 73q20 80 46 149q25 69 18 82zM84 535q9 2 25 16t34 31q22 22 41 40q20 19 25 19q4 0 13 -15q9 -14 20 -34l27 -48q12 -23 18 -28v-1q-1 -9 -17 -8
q-17 1 -25 5q-15 27 -23 52q-8 26 -13 32q-8 -3 -21 -36q-14 -33 -42 -58q-2 -1 -6 -1q-13 0 -37 7q-24 8 -22 20q1 3 3 7z" />
    <glyph glyph-name="idieresis" unicode="&#xef;" horiz-adv-x="347" 
d="M108 415q10 20 39 30q15 5 26 5q12 0 19 -5q5 -4 8 -10q2 -6 1 -15q-2 -5 -20 -62t-36 -129q-16 -57 -28 -113q-13 -56 -16 -91q-2 -20 1 -31q2 -11 9 -12q15 -1 62 51q46 52 91 111q29 39 54 72q24 33 32 46q9 4 16 3t14 -8q-4 -7 -13 -21q-9 -13 -22 -32
q-24 -33 -57 -77t-67 -82q-36 -40 -67 -67q-30 -25 -49 -25h-3q-35 3 -53 22q-18 20 -23 51q-5 33 0 74l2 11q6 36 16 73q20 80 46 149q25 69 18 82zM240 618h4q13 0 25 -14q12 -17 12 -36q-8 -9 -12 -26q-3 -17 -21 -19h-6q-12 0 -25 6q-15 8 -18 26q0 7 2 14q2 13 9 25
q12 21 30 24zM78 559l1 4q2 13 17 28q17 17 36 17q2 -13 17 -18q15 -4 14 -20l-1 -3q-2 -13 -12 -28q-12 -17 -29 -19q-2 -1 -4 -1q-16 0 -27 13q-12 15 -12 27z" />
    <glyph glyph-name="ntilde" unicode="&#xf1;" horiz-adv-x="527" 
d="M164 493q10 -1 16 -10t7 -23q4 -27 -1 -67l-10 -78q10 23 36 62q26 38 60 66q16 15 34 24t35 8q32 -2 39 -44q6 -42 -3 -102q-4 -32 -12 -68l-16 -70q-20 -81 -37 -145q-17 -63 -8 -66q20 -5 59 39q40 45 78 100q26 37 50 71q22 34 34 54q9 4 17 4q9 1 16 -7
q-14 -21 -37 -58q-24 -38 -52 -79q-44 -61 -93 -111q-40 -42 -72 -42q-5 0 -11 1q-21 6 -33 23q-13 17 -18 43q-6 41 2 97t22 114q21 86 43 153q21 68 11 69q-17 1 -45 -28t-54 -66q-14 -21 -26 -41q-13 -21 -21 -38q-7 -37 -15 -79q-9 -42 -17 -73q-4 -17 -8 -30
q-4 -12 -7 -17q-30 -27 -62 -37q-31 -10 -46 35q2 22 6 45q3 21 7 42q11 45 23 88q24 79 43 141q19 61 3 75q12 16 29 22q13 4 25 4q5 0 9 -1zM163 556q-1 8 0 17q3 15 10 34q11 31 40 39q11 4 28 -2q18 -5 36 -13q27 -13 53 -26q25 -12 33 -7q12 7 1 19q-10 12 -17 16
q-3 11 14 22q16 10 29 10h4q14 -5 23 -19t13 -32q3 -21 0 -42l-2 -11q-7 -27 -27 -37q-17 -9 -33 -9q-2 0 -4 1q-19 1 -36 8q-13 7 -26 16q-14 9 -25 19q-21 19 -37 34t-24 12q-12 -4 -20 -20q-9 -17 4 -22q-3 -16 -18 -18q-14 -2 -19 11z" />
    <glyph glyph-name="ograve" unicode="&#xf2;" horiz-adv-x="507" 
d="M311 453q11 -4 3 -9t-15 -3q-40 14 -74 -21q-34 -36 -56 -90q-13 -29 -21 -60q-9 -31 -12 -60q-4 -21 -5 -46q0 -24 2 -47q4 -44 20 -76q17 -32 51 -31q15 1 32 11q16 10 32 27q24 25 45 65q-27 9 -51 36q-26 29 -42 66q-26 55 -24 113q3 58 45 81q72 38 109 -5
q38 -42 28 -165q-4 -53 -22 -102q6 0 13 2q18 3 35 12q34 16 62 45t40 50q10 3 18 2q8 0 15 -2q-9 -18 -25 -38q-15 -19 -33 -37q-34 -32 -77 -52q-30 -15 -61 -13q-22 -47 -54 -78q-20 -19 -44 -29q-22 -11 -47 -11h-1q-93 0 -132 61q-37 61 -20 171l1 1q13 87 55 149
t95 86q28 12 58 12q29 0 57 -15zM348 235q2 68 -31 97t-66 12q-17 -8 -10 -49q7 -40 26 -81q13 -27 30 -47q15 -19 30 -25q18 44 21 93zM205 576q-1 6 0 12q2 13 15 26q17 17 35 17h2q25 -15 37 -38q13 -22 27 -49q4 -15 2 -31v-1q-4 -18 -20 -18q-9 2 -18 8q-9 5 -18 14
q-19 18 -34 40q-16 22 -28 20z" />
    <glyph glyph-name="oacute" unicode="&#xf3;" horiz-adv-x="507" 
d="M311 453q11 -4 3 -9t-15 -3q-40 14 -74 -21q-34 -36 -56 -90q-13 -29 -21 -60q-9 -31 -12 -60q-4 -21 -5 -46q0 -24 2 -47q4 -44 20 -76q17 -32 51 -31q15 1 32 11q16 10 32 27q24 25 45 65q-27 9 -51 36q-26 29 -42 66q-26 55 -24 113q3 58 45 81q72 38 109 -5
q38 -42 28 -165q-4 -53 -22 -102q6 0 13 2q18 3 35 12q34 16 62 45t40 50q10 3 18 2q8 0 15 -2q-9 -18 -25 -38q-15 -19 -33 -37q-34 -32 -77 -52q-30 -15 -61 -13q-22 -47 -54 -78q-20 -19 -44 -29q-22 -11 -47 -11h-1q-93 0 -132 61q-37 61 -20 171l1 1q13 87 55 149
t95 86q28 12 58 12q29 0 57 -15zM348 235q2 68 -31 97t-66 12q-17 -8 -10 -49q7 -40 26 -81q13 -27 30 -47q15 -19 30 -25q18 44 21 93zM234 492q-16 0 -13 17v2q3 16 12 31q23 27 42 49q20 23 48 38h2q18 0 30 -17q10 -13 8 -26q-2 -6 -5 -12q-10 2 -33 -20t-48 -40
q-12 -9 -21 -14q-11 -6 -22 -8z" />
    <glyph glyph-name="ocircumflex" unicode="&#xf4;" horiz-adv-x="507" 
d="M311 453q11 -4 3 -9t-15 -3q-40 14 -74 -21q-34 -36 -56 -90q-13 -29 -21 -60q-9 -31 -12 -60q-4 -21 -5 -46q0 -24 2 -47q4 -44 20 -76q17 -32 51 -31q15 1 32 11q16 10 32 27q24 25 45 65q-27 9 -51 36q-26 29 -42 66q-26 55 -24 113q3 58 45 81q72 38 109 -5
q38 -42 28 -165q-4 -53 -22 -102q6 0 13 2q18 3 35 12q34 16 62 45t40 50q10 3 18 2q8 0 15 -2q-9 -18 -25 -38q-15 -19 -33 -37q-34 -32 -77 -52q-30 -15 -61 -13q-22 -47 -54 -78q-20 -19 -44 -29q-22 -11 -47 -11h-1q-93 0 -132 61q-37 61 -20 171l1 1q13 87 55 149
t95 86q28 12 58 12q29 0 57 -15zM348 235q2 68 -31 97t-66 12q-17 -8 -10 -49q7 -40 26 -81q13 -27 30 -47q15 -19 30 -25q18 44 21 93zM164 524q10 1 26 15q16 15 34 32q22 21 41 40t25 19q4 0 13 -15t20 -34q14 -25 26 -48q13 -23 19 -28v-1q-1 -9 -17 -8q-17 0 -25 5
q-15 26 -23 52q-9 26 -14 32q-6 -3 -20 -36t-42 -59h-6q-14 0 -38 7q-23 7 -21 20q1 3 2 7z" />
    <glyph glyph-name="otilde" unicode="&#xf5;" horiz-adv-x="507" 
d="M311 453q11 -4 3 -9t-15 -3q-40 14 -74 -21q-34 -36 -56 -90q-13 -29 -21 -60q-9 -31 -12 -60q-4 -21 -5 -46q0 -24 2 -47q4 -44 20 -76q17 -32 51 -31q15 1 32 11q16 10 32 27q24 25 45 65q-27 9 -51 36q-26 29 -42 66q-26 55 -24 113q3 58 45 81q72 38 109 -5
q38 -42 28 -165q-4 -53 -22 -102q6 0 13 2q18 3 35 12q34 16 62 45t40 50q10 3 18 2q8 0 15 -2q-9 -18 -25 -38q-15 -19 -33 -37q-34 -32 -77 -52q-30 -15 -61 -13q-22 -47 -54 -78q-20 -19 -44 -29q-22 -11 -47 -11h-1q-93 0 -132 61q-37 61 -20 171l1 1q13 87 55 149
t95 86q28 12 58 12q29 0 57 -15zM126 517q1 8 2 18q2 14 9 33q11 31 41 40q11 3 28 -2t35 -14q28 -13 53 -25q26 -13 34 -8q11 8 1 20q-10 11 -17 16q-3 10 14 22q16 9 29 9h4q14 -5 23 -19q8 -14 13 -31q3 -21 0 -43l-2 -11q-7 -27 -27 -37q-17 -8 -33 -8h-4q-19 1 -36 9
q-14 6 -26 15q-14 10 -25 20q-21 18 -38 33q-15 15 -23 13q-12 -4 -20 -21q-9 -17 3 -22q-2 -16 -17 -18q-15 -1 -21 11zM348 235q2 68 -31 97t-66 12q-17 -8 -10 -49q7 -40 26 -81q13 -27 30 -47q15 -19 30 -25q18 44 21 93z" />
    <glyph glyph-name="odieresis" unicode="&#xf6;" horiz-adv-x="507" 
d="M311 453q11 -4 3 -9t-15 -3q-40 14 -74 -21q-34 -36 -56 -90q-13 -29 -21 -60q-9 -31 -12 -60q-4 -21 -5 -46q0 -24 2 -47q4 -44 20 -76q17 -32 51 -31q15 1 32 11q16 10 32 27q24 25 45 65q-27 9 -51 36q-26 29 -42 66q-26 55 -24 113q3 58 45 81q72 38 109 -5
q38 -42 28 -165q-4 -53 -22 -102q6 0 13 2q18 3 35 12q34 16 62 45t40 50q10 3 18 2q8 0 15 -2q-9 -18 -25 -38q-15 -19 -33 -37q-34 -32 -77 -52q-30 -15 -61 -13q-22 -47 -54 -78q-20 -19 -44 -29q-22 -11 -47 -11h-1q-93 0 -132 61q-37 61 -20 171l1 1q13 87 55 149
t95 86q28 12 58 12q29 0 57 -15zM348 235q2 68 -31 97t-66 12q-17 -8 -10 -49q7 -40 26 -81q13 -27 30 -47q15 -19 30 -25q18 44 21 93zM330 602h4q13 0 24 -14q13 -16 13 -36q-8 -9 -12 -26t-21 -19h-6q-13 0 -25 6q-16 8 -18 26q-1 7 0 14q2 13 10 26q12 20 31 23z
M168 543v4q1 13 17 28q17 17 36 17q2 -13 17 -18q16 -4 14 -20v-3q-2 -13 -13 -28q-11 -17 -29 -19h-4q-16 -1 -27 12q-11 15 -11 27z" />
    <glyph glyph-name="divide" unicode="&#xf7;" horiz-adv-x="432" 
d="M250 448q0 2 1 5q2 13 18 28q18 18 38 18q1 -14 18 -19q15 -4 13 -21v-3q-2 -13 -13 -29q-12 -18 -30 -20h-5q-16 0 -27 13q-13 15 -13 28zM238 237h4q14 0 25 -15q13 -17 13 -37q-9 -9 -12 -27q-4 -17 -22 -20h-7q-12 0 -25 6q-16 9 -18 28q-1 7 0 15q2 12 10 25
q13 22 32 25zM86 292q-29 6 -26 24q0 3 1 6q10 23 27 31q22 4 54 5h22q22 0 46 -1q69 -2 139 -9t109 -10q12 -8 10 -20q-1 -3 -2 -7q-8 -16 -32 -19q-1 -1 -4 -1q-11 0 -50 4q-44 3 -99 6q-67 4 -128 4t-67 -13z" />
    <glyph glyph-name="oslash" unicode="&#xf8;" horiz-adv-x="507" 
d="M311 453q11 -4 3 -9t-15 -3q-40 14 -74 -21q-34 -36 -56 -90q-13 -29 -21 -60q-9 -31 -12 -60q-4 -21 -5 -46q0 -24 2 -47q4 -44 20 -76q17 -32 51 -31q15 1 32 11q16 10 32 27q24 25 45 65q-27 9 -51 36q-26 29 -42 66q-26 55 -24 113q3 58 45 81q72 38 109 -5
q38 -42 28 -165q-4 -53 -22 -102q6 0 13 2q18 3 35 12q34 16 62 45t40 50q10 3 18 2q8 0 15 -2q-9 -18 -25 -38q-15 -19 -33 -37q-34 -32 -77 -52q-30 -15 -61 -13q-22 -47 -54 -78q-20 -19 -44 -29q-22 -11 -47 -11h-1q-93 0 -132 61q-37 61 -20 171l1 1q13 87 55 149
t95 86q28 12 58 12q29 0 57 -15zM348 235q2 68 -31 97t-66 12q-17 -8 -10 -49q7 -40 26 -81q13 -27 30 -47q15 -19 30 -25q18 44 21 93z" />
    <glyph glyph-name="ugrave" unicode="&#xf9;" horiz-adv-x="555" 
d="M80 436q12 25 32 25h3q22 -3 41 -26q10 -12 18 -30t11 -40q-3 -26 -12 -67q-10 -41 -20 -85q-15 -65 -22 -120q-7 -54 17 -55q25 0 63 62t69 142q17 43 28 86q12 42 17 78q8 22 45 16t34 -37q-6 -27 -19 -74q-14 -48 -28 -101q-13 -51 -24 -100t-11 -81q-1 -18 3 -28
q3 -11 11 -12q17 -4 57 42q41 47 81 102q25 37 47 69q23 33 32 50q9 2 17 2q8 -1 15 -7q-4 -7 -13 -20q-8 -13 -19 -31q-21 -33 -50 -76t-61 -80q-32 -38 -63 -62q-25 -20 -45 -20q-5 0 -9 1q-23 6 -35 23q-13 17 -18 39q-11 42 -3 90q7 48 10 71q-7 -13 -24 -49
q-19 -37 -44 -69q-18 -22 -36 -37q-18 -14 -35 -14q-36 1 -57 17q-19 17 -29 43q-10 28 -10 64q0 37 5 76q9 71 25 137q15 65 6 86zM210 556q-1 6 -1 12q3 13 15 25q19 18 36 18q1 0 2 -1q25 -14 37 -37q13 -23 26 -50q5 -14 2 -31v-1q-2 -17 -19 -17q-9 1 -18 7t-17 14
q-20 19 -36 41q-15 21 -27 20z" />
    <glyph glyph-name="uacute" unicode="&#xfa;" horiz-adv-x="555" 
d="M80 436q12 25 32 25h3q22 -3 41 -26q10 -12 18 -30t11 -40q-3 -26 -12 -67q-10 -41 -20 -85q-15 -65 -22 -120q-7 -54 17 -55q25 0 63 62t69 142q17 43 28 86q12 42 17 78q8 22 45 16t34 -37q-6 -27 -19 -74q-14 -48 -28 -101q-13 -51 -24 -100t-11 -81q-1 -18 3 -28
q3 -11 11 -12q17 -4 57 42q41 47 81 102q25 37 47 69q23 33 32 50q9 2 17 2q8 -1 15 -7q-4 -7 -13 -20q-8 -13 -19 -31q-21 -33 -50 -76t-61 -80q-32 -38 -63 -62q-25 -20 -45 -20q-5 0 -9 1q-23 6 -35 23q-13 17 -18 39q-11 42 -3 90q7 48 10 71q-7 -13 -24 -49
q-19 -37 -44 -69q-18 -22 -36 -37q-18 -14 -35 -14q-36 1 -57 17q-19 17 -29 43q-10 28 -10 64q0 37 5 76q9 71 25 137q15 65 6 86zM234 466q-16 0 -13 18v1q3 17 11 31q23 27 42 50q21 22 49 37h2q18 0 30 -17q9 -12 7 -26q-1 -5 -4 -11q-10 1 -34 -21q-22 -21 -47 -40
q-11 -8 -22 -14q-10 -6 -21 -8z" />
    <glyph glyph-name="ucircumflex" unicode="&#xfb;" horiz-adv-x="555" 
d="M80 436q12 25 32 25h3q22 -3 41 -26q10 -12 18 -30t11 -40q-3 -26 -12 -67q-10 -41 -20 -85q-15 -65 -22 -120q-7 -54 17 -55q25 0 63 62t69 142q17 43 28 86q12 42 17 78q8 22 45 16t34 -37q-6 -27 -19 -74q-14 -48 -28 -101q-13 -51 -24 -100t-11 -81q-1 -18 3 -28
q3 -11 11 -12q17 -4 57 42q41 47 81 102q25 37 47 69q23 33 32 50q9 2 17 2q8 -1 15 -7q-4 -7 -13 -20q-8 -13 -19 -31q-21 -33 -50 -76t-61 -80q-32 -38 -63 -62q-25 -20 -45 -20q-5 0 -9 1q-23 6 -35 23q-13 17 -18 39q-11 42 -3 90q7 48 10 71q-7 -13 -24 -49
q-19 -37 -44 -69q-18 -22 -36 -37q-18 -14 -35 -14q-36 1 -57 17q-19 17 -29 43q-10 28 -10 64q0 37 5 76q9 71 25 137q15 65 6 86zM170 499q10 2 32 22q21 20 43 41q17 17 31 30t19 13q3 0 13 -14q9 -15 20 -35q13 -24 26 -47q13 -24 20 -29l-1 -1q-1 -8 -18 -8
q-17 1 -24 6q-15 26 -24 52q-8 25 -13 31q-6 -3 -21 -36q-13 -33 -41 -58q-3 -1 -7 -1q-13 0 -37 8q-22 7 -21 19q0 3 3 7z" />
    <glyph glyph-name="udieresis" unicode="&#xfc;" horiz-adv-x="555" 
d="M80 436q12 25 32 25h3q22 -3 41 -26q10 -12 18 -30t11 -40q-3 -26 -12 -67q-10 -41 -20 -85q-15 -65 -22 -120q-7 -54 17 -55q25 0 63 62t69 142q17 43 28 86q12 42 17 78q8 22 45 16t34 -37q-6 -27 -19 -74q-14 -48 -28 -101q-13 -51 -24 -100t-11 -81q-1 -18 3 -28
q3 -11 11 -12q17 -4 57 42q41 47 81 102q25 37 47 69q23 33 32 50q9 2 17 2q8 -1 15 -7q-4 -7 -13 -20q-8 -13 -19 -31q-21 -33 -50 -76t-61 -80q-32 -38 -63 -62q-25 -20 -45 -20q-5 0 -9 1q-23 6 -35 23q-13 17 -18 39q-11 42 -3 90q7 48 10 71q-7 -13 -24 -49
q-19 -37 -44 -69q-18 -22 -36 -37q-18 -14 -35 -14q-36 1 -57 17q-19 17 -29 43q-10 28 -10 64q0 37 5 76q9 71 25 137q15 65 6 86zM220 499h-5q-13 0 -24 14q-13 17 -12 37q8 8 12 25q3 17 20 19q3 1 7 1q12 0 24 -7q15 -8 18 -26q0 -7 -1 -14q-2 -12 -9 -25
q-12 -21 -30 -24zM382 558l-1 -3q-2 -13 -17 -28q-18 -17 -37 -17q-1 13 -16 17q-15 5 -14 21l1 2q2 14 12 29q11 17 29 19h4q15 0 26 -13q13 -14 13 -27z" />
    <glyph glyph-name="yacute" unicode="&#xfd;" horiz-adv-x="506" 
d="M513 252q8 4 17 5q8 1 15 -9q-35 -50 -69 -90q-35 -39 -67 -70q-48 -45 -87 -74q-13 -63 -30 -127q-26 -96 -65 -156q-22 -33 -48 -51t-57 -18h-2q-16 1 -26 8q-9 8 -13 21q-11 34 10 94q22 59 56 111q20 29 40 51q22 23 42 35q3 2 6 5l14 70q10 59 15 94
q-19 -55 -51 -91t-66 -36q-72 0 -85 96q-11 72 11 214q8 48 19 104q11 30 47 38q5 1 10 1q29 1 40 -36q-13 -37 -27 -89q-15 -52 -25 -105q-16 -79 -15 -141t41 -61q24 1 56 57t57 126q16 47 27 92q12 46 15 78q4 13 9 21q6 8 14 11q16 8 33 -3q17 -12 18 -29q-9 -2 -17 -45
q-8 -44 -17 -111q-5 -36 -10 -77l-14 -85q-2 -14 -5 -28q38 31 81 73q57 55 103 127zM245 487q-16 0 -15 18l1 1q2 17 12 31q22 27 41 50q20 22 49 37h2q18 0 31 -17q9 -13 7 -26q-1 -6 -4 -11q-12 1 -35 -21q-22 -21 -47 -40q-11 -8 -22 -14t-20 -8zM189 -103
q-20 -37 -36 -79q-20 -51 -29 -93t3 -42q9 0 18 11q10 11 19 30q16 35 33 93q15 57 28 118l4 15l-2 -1q-18 -14 -38 -52z" />
    <glyph glyph-name="ydieresis" unicode="&#xff;" horiz-adv-x="506" 
d="M513 252q8 4 17 5q8 1 15 -9q-35 -50 -69 -90q-35 -39 -67 -70q-48 -45 -87 -74q-13 -63 -30 -127q-26 -96 -65 -156q-22 -33 -48 -51t-57 -18h-2q-16 1 -26 8q-9 8 -13 21q-11 34 10 94q22 59 56 111q20 29 40 51q22 23 42 35q3 2 6 5l14 70q10 59 15 94
q-19 -55 -51 -91t-66 -36q-72 0 -85 96q-11 72 11 214q8 48 19 104q11 30 47 38q5 1 10 1q29 1 40 -36q-13 -37 -27 -89q-15 -52 -25 -105q-16 -79 -15 -141t41 -61q24 1 56 57t57 126q16 47 27 92q12 46 15 78q4 13 9 21q6 8 14 11q16 8 33 -3q17 -12 18 -29q-9 -2 -17 -45
q-8 -44 -17 -111q-5 -36 -10 -77l-14 -85q-2 -14 -5 -28q38 31 81 73q57 55 103 127zM189 -103q-20 -37 -36 -79q-20 -51 -29 -93t3 -42q9 0 18 11q10 11 19 30q16 35 33 93q15 57 28 118l4 15l-2 -1q-18 -14 -38 -52zM230 491h-5q-13 0 -24 14q-12 17 -12 37q9 8 12 25
q4 17 20 19q3 1 7 1q12 0 24 -7q16 -8 18 -26q1 -7 0 -14q-2 -12 -10 -25q-11 -21 -30 -24zM393 550l-1 -4q-2 -13 -17 -28q-18 -17 -37 -17q-1 14 -16 18q-16 4 -14 20v3q2 13 13 29q10 16 29 18q2 1 4 1q15 0 26 -13q13 -15 13 -27z" />
    <glyph glyph-name="OE" unicode="&#x152;" horiz-adv-x="716" 
d="M235 3h-5q-56 0 -92 21q-36 22 -56 59q-23 44 -26 103q-4 60 4 121l10 65q6 32 13 61q12 51 27 100q16 48 36 90q39 79 100 125q50 39 122 39q15 0 32 -2q21 -3 40 -20q18 -18 32 -48q25 -54 34 -137q41 110 95 204q14 10 28 10q5 0 11 -2q17 -5 29 -16q15 -7 63 -6
q49 1 88 6q8 0 9 -5v-3q0 -3 -3 -6q-41 -17 -87 -20q-46 -2 -65 -7q-7 -10 -25 -79q-19 -69 -38 -155q-9 -37 -18 -75q-8 -37 -15 -72q-15 -64 -23 -110q-8 -47 -7 -55q7 -7 51 1q43 9 75 26q11 -1 10 -11q-1 -11 -9 -19q-34 -21 -73 -25q-39 -5 -51 -8q-4 -4 -5 -20t0 -36
q2 -23 8 -44t13 -22q13 -1 58 14t76 28q2 -2 2 -7t-5 -11q-35 -19 -79 -36q-46 -18 -62 -21q-11 -2 -25 -2q-22 0 -48 6q-44 10 -53 34q-8 59 -7 124q-29 -54 -66 -95q-55 -61 -123 -62zM451 391l4 20q5 33 7 72q1 41 0 83q-3 76 -19 136q-16 61 -45 63q-2 1 -4 1
q-33 0 -71 -54q-41 -57 -73 -134q-17 -42 -30 -85t-21 -82l-5 -30q-4 -22 -7 -47q-5 -43 -6 -87q-4 -82 9 -150q12 -67 55 -70h6q28 -1 51 16q26 19 49 52q40 61 65 151q23 81 35 145z" />
    <glyph glyph-name="oe" unicode="&#x153;" horiz-adv-x="786" 
d="M323 459q10 -5 3 -9q-8 -5 -15 -3q-21 8 -42 0q-20 -8 -37 -27q-32 -34 -55 -93q-22 -58 -29 -111q-4 -22 -5 -47t2 -49q2 -46 18 -80q15 -35 50 -33q15 0 31 11q18 11 34 29q31 33 56 86l6 16q-13 0 -25 3q-18 4 -33 13q-21 13 -37 34q-17 21 -27 46q-17 47 -10 96
q6 49 46 74q69 43 108 -2q23 -28 28 -87q17 37 40 70q23 31 48 48q24 18 47 23q11 2 20 2q30 0 51 -22q29 -29 21 -82q-12 -85 -73 -130q-30 -22 -66 -37q-5 -25 -8 -50q-8 -53 0 -90q4 -20 13 -33t26 -17q32 -8 80 32q49 39 94 93q24 28 46 57q20 29 35 52q9 7 16 6
q8 -1 14 -9q-16 -26 -38 -58q-23 -31 -49 -63q-48 -58 -106 -101q-47 -36 -92 -36q-9 0 -18 2q-46 8 -75 33q-29 26 -44 62q-8 19 -13 40q-1 -2 -1 -4q-26 -55 -65 -92q-40 -38 -87 -38h-1q-93 0 -129 66t-19 176v1q8 46 24 86t38 72q42 58 96 80q25 9 49 10q30 0 59 -16z
M360 240q0 24 -4 44t-13 36q-16 28 -39 37q-23 10 -41 -7q-10 -9 -12 -40q-2 -30 7 -62q5 -17 14 -32q8 -15 21 -26q11 -10 27 -14q13 -3 28 -2q9 33 12 66zM537 264q48 46 56 94q9 48 -10 53q-18 4 -43 -44q-27 -48 -46 -114l-9 -28q31 17 52 39z" />
    <glyph glyph-name="circumflex" unicode="&#x2c6;" horiz-adv-x="259" 
d="M145 690q8 2 24 16q17 14 34 31q23 22 42 41t25 18q4 0 12 -14q10 -15 20 -35q14 -24 26 -47q14 -24 20 -29v-1q-2 -8 -18 -8q-16 1 -25 6q-15 26 -22 52q-9 25 -15 31q-6 -3 -19 -36q-14 -32 -42 -58h-6q-15 -1 -37 7q-24 7 -22 19q0 4 3 7z" />
    <glyph glyph-name="ring" unicode="&#x2da;" horiz-adv-x="165" 
d="M199 804q7 1 11 -10l1 4q2 13 9 12h7q42 0 49 -39q2 -14 -1 -27q-4 -25 -24 -45q-11 -11 -25 -18q-15 -8 -33 -10h-9q-11 0 -21 3q-12 5 -21 14q-16 17 -16 43q0 6 1 12q3 19 17 34q8 10 22 18q15 7 33 9zM205 764q-24 1 -20 -31q5 -32 29 -27q20 4 30 30t0 41
q-4 5 -10 7q-7 3 -16 1q-3 -1 -5 0q2 -15 -8 -21z" />
    <glyph glyph-name="tilde" unicode="&#x2dc;" horiz-adv-x="299" 
d="M129 722l1 5q3 19 16 45q16 30 45 34q2 1 4 1q10 0 23 -7q16 -7 33 -18q25 -17 47 -34q23 -16 31 -12q13 6 4 20q-8 13 -14 18q-1 11 17 20q19 9 32 6q14 -8 21 -23q6 -16 7 -34q1 -13 -2 -26q-2 -14 -7 -28q-10 -26 -32 -33q-12 -5 -23 -5q-7 0 -13 2q-18 3 -34 14
q-22 15 -42 39q-18 24 -31 40q-8 9 -14 14q-5 5 -9 5q-13 -3 -23 -19q-11 -15 0 -22q-4 -16 -19 -16q-14 1 -18 14z" />
    <glyph glyph-name="quoteright" unicode="&#x2019;" horiz-adv-x="110" 
d="M157 816q12 17 35 17h1q25 0 34 -15q1 -14 -1 -27q-3 -15 -9 -30q-10 -27 -24 -58q-10 -15 -24 -26q-8 -5 -13 -5q-7 -1 -11 6q-5 10 -4 24q0 14 2 29v1q5 27 11 53q7 25 3 31z" />
    <glyph glyph-name="quotedblleft" unicode="&#x201c;" horiz-adv-x="194" 
d="M288 706q-12 -18 -36 -18h-1q-23 1 -33 16q0 14 1 27q3 15 9 30q11 27 24 58q10 15 25 26q7 5 13 5t11 -6q4 -10 3 -24q1 -14 -1 -29v-1q-5 -28 -12 -53t-3 -31zM146 812q8 28 22 34q4 2 7 2q10 -1 15 -20q-12 -29 -3 -59q7 -22 3 -43q-1 -10 -5 -20q-10 -11 -32 -20
q-5 -2 -9 -2q-14 -1 -17 24q-2 11 1 29q2 10 5 22q8 34 13 53z" />
    <glyph glyph-name="quotedblright" unicode="&#x201d;" horiz-adv-x="197" 
d="M147 813q13 18 36 18h1q24 -1 34 -16q1 -13 -2 -27q-2 -15 -8 -29q-12 -27 -25 -59q-9 -15 -24 -26q-8 -5 -13 -5q-7 0 -11 6q-4 10 -4 24t3 29v1q4 28 10 53q7 26 3 31zM291 708q-9 -29 -24 -35q-3 -1 -5 -1q-11 0 -16 19q13 29 2 60q-6 21 -3 43q2 10 5 20q11 10 33 19
q5 3 9 3q14 0 17 -25q1 -11 -1 -28q-2 -11 -5 -23q-8 -33 -12 -52z" />
    <glyph glyph-name="perthousand" unicode="&#x2030;" horiz-adv-x="806" 
d="M72 37q-5 -34 -34 -35h-3q-22 1 -20 13l1 5q2 9 13 27q12 19 31 45q36 48 91 115q57 68 119 142q76 90 150 179t119 152q24 33 38 57q13 23 11 32q13 12 36 12h7q28 -2 26 -22q1 -1 -1 -3q0 -1 -2 -4q-10 -17 -50 -66q-39 -48 -94 -113q-30 -36 -62 -74t-67 -78l-81 -96
q-41 -48 -76 -91q-68 -81 -112 -137t-40 -60zM679 332q21 12 34 12q12 0 16 -11q9 -22 -2 -36q-23 -16 -39 -38q-17 -22 -28 -46q-26 -56 -22 -107q5 -50 39 -51q37 -1 66 32q30 33 43 77q10 29 11 58t-9 50q-6 14 -18 23q-11 10 -28 14q-1 7 5 16q5 8 9 9q46 -7 61 -52
q15 -42 7 -90l-2 -10q-7 -35 -26 -69q-17 -34 -45 -56q-19 -14 -40 -23q-21 -8 -45 -8q-26 0 -44 11q-18 10 -28 27q-23 34 -20 87q1 12 3 25q6 38 25 74q13 25 33 47q19 21 44 35zM230 733q20 12 32 12t17 -10q9 -23 -3 -37q-21 -16 -38 -38q-16 -22 -27 -45
q-26 -56 -22 -107t39 -52q24 -1 45 15q21 15 38 40q24 36 34 83q8 47 -7 80q-7 13 -17 23q-12 9 -28 13q-2 8 3 16q7 8 11 9q30 -4 48 -27q16 -23 20 -55q4 -28 0 -58q-4 -23 -13 -47q-20 -57 -61 -90q-18 -14 -39 -22q-22 -8 -47 -8t-42 10q-19 10 -30 28q-21 34 -18 86
q0 13 2 25q7 39 26 74q13 26 32 47t45 35zM376 324q22 14 35 14q11 0 15 -10q10 -21 0 -36q-25 -10 -41 -26q-18 -17 -29 -36q-11 -21 -17 -44t-5 -45q-1 -41 14 -71t39 -29q21 1 40 11q17 10 31 26q34 37 42 92q10 56 -11 91q-8 13 -21 22q-11 9 -28 11q-3 8 5 23
q6 15 10 16q28 -9 46 -28q19 -19 29 -45q18 -44 8 -98l-1 -5q-10 -56 -46 -95q-18 -20 -43 -33t-56 -15h-8q-54 0 -78 49q-25 52 -16 116v3q7 41 27 79q22 39 59 63z" />
    <glyph glyph-name="" unicode="&#x20ac;" horiz-adv-x="484" 
d="M75 265q-18 4 -16 19q1 3 3 7q9 22 29 32q35 3 75 4q2 32 7 62h-25q-30 -2 -37 -13q-32 8 -29 25v2q6 18 23 26q35 3 76 6q8 34 19 68q17 50 40 96q43 84 106 139q61 53 137 52h6q20 0 32 -10q13 -11 20 -27q16 -38 10 -93q-6 -54 -10 -80q-3 -11 -16 -14q-11 -2 -14 6
q4 18 7 42t3 48q0 36 -7 63q-6 28 -23 28q-33 1 -71 -61t-67 -138q-15 -41 -26 -80q-6 -19 -10 -37q33 -1 61 -3q16 -10 12 -30v-3q-6 -23 -30 -27h-2q-13 0 -51 5q-5 -26 -7 -54v-2q33 -2 62 -5q14 -7 11 -17v-3q-4 -13 -23 -18q-9 0 -42 -2q-7 -1 -14 -1q-1 -21 -1 -41
q-4 -82 5 -147q8 -65 40 -63q20 1 35 11q15 11 27 27q21 30 29 73q9 42 8 74q6 16 20 10q13 -6 17 -18q-7 -82 -39 -137q-31 -55 -105 -64q-8 -1 -16 -1q-31 0 -55 15q-30 18 -50 52q-36 62 -42 158q-1 22 -2 43l-32 -2q-37 -2 -51 -2h-7z" />
    <glyph glyph-name="trademark" unicode="&#x2122;" horiz-adv-x="574" 
d="M317 754q4 10 21 10h5q20 -1 25 -15q1 -18 0 -43t-2 -51q-2 -38 -4 -69t-1 -34q2 8 7 25q5 18 12 39q10 33 24 66q13 33 24 48q8 10 30 6t23 -30q0 -13 -2 -40q-2 -26 -4 -56q-3 -46 -7 -86q-2 -40 -1 -43q3 2 16 49q15 46 37 100q16 35 36 68q19 32 43 49q11 9 28 0
q15 -9 20 -25q2 -18 -3 -54q-4 -35 -11 -77q-11 -62 -20 -123q-10 -61 -6 -83v-4q-3 -15 -29 -15h-3q-31 1 -33 26q3 97 22 170q17 72 31 113q8 21 12 33t1 13q-14 3 -37 -37t-45 -93q-14 -35 -26 -69q-12 -35 -18 -60q-10 -25 -35 -22q-25 4 -27 18q-5 24 -2 56q2 33 7 65
q7 49 15 88q7 38 1 38q-5 1 -16 -21t-22 -51q-15 -37 -28 -74q-12 -36 -14 -49q-1 -26 0 -45q0 -19 -1 -44q-8 -31 -41 -43q-33 -13 -33 8q-3 29 -1 68q2 40 7 81q9 78 19 144q11 67 6 75zM294 754v-5t-2 -4q-1 -5 -8 -6q-17 0 -50 1q5 -100 -1 -201q-6 -100 -27 -181
q-7 -9 -22 -9q-7 0 -17 2q-27 6 -27 25q8 3 18 68q9 64 19 137q6 48 12 91t11 64q-11 1 -28 -2q-18 -3 -36 -2q-1 2 -1 7v1q0 5 8 6q40 4 82 7q25 1 46 1h23z" />
    <glyph glyph-name="" unicode="&#xffab;" horiz-adv-x="2059" 
d="M334 129q-81 -30 -142 20q-60 50 -84 132q-15 55 -12 116q1 14 3 28q7 45 28 86q18 33 45 61q29 28 68 47q55 28 114 20q58 -9 117 -41q62 -34 121 -87q61 -54 117 -113q35 -39 69 -77q34 -39 66 -73q56 -65 102 -106q44 -41 72 -35q16 4 26 17t15 33q11 37 7 93
q-2 47 -10 98q-10 10 -19 21q-39 44 -69 87q-57 80 -76 149t24 100q24 17 48 17h6q26 -2 50 -21q44 -35 77 -115q34 -80 45 -170q6 -50 6 -98q1 -1 3 -2q40 -37 80 -69q75 -59 147 -90q71 -31 120 -8q45 21 57 93q8 61 2 129q-6 7 -13 14q-39 38 -68 76q-55 71 -66 133
q-13 62 50 94q22 11 42 6q22 -5 40 -22q34 -32 57 -98t30 -142q1 -29 1 -57q46 -41 98 -79q75 -54 138 -82q35 -15 63 -20q29 -5 49 3q27 10 10 62q-18 51 -56 103q-30 43 -68 73q-37 31 -66 29q-8 20 2 37q11 18 22 20q59 -9 119 -51t95 -98q20 -29 28 -61q7 -28 3 -55
l-1 -6q-5 -28 -26 -54q-21 -25 -61 -45q-29 -15 -85 3t-123 57q-36 20 -73 46t-72 55l-2 1q-4 -34 -13 -66q-26 -90 -96 -126q-26 -13 -58 -14q-31 -1 -65 9q-64 17 -136 63q-57 37 -112 83q-7 -66 -35 -113q-16 -27 -38 -45q-23 -19 -53 -27q-11 -2 -21 -2q-28 0 -61 18
q-44 26 -92 72q-60 55 -124 129t-131 142q-36 36 -72 68t-72 55q-52 35 -103 45q-51 11 -99 -13t-67 -91q-21 -66 -16 -138q2 -31 8 -61q7 -29 17 -54q19 -46 53 -71q34 -24 80 -8q38 13 61 32q23 20 35 41q18 33 6 62q-10 29 -37 32q-13 1 -27 -3q-15 -5 -31 -18
q-22 3 -22 16q1 13 15 29q35 15 61 15q25 0 42 -10q33 -19 36 -66q2 -47 -27 -92q-15 -24 -39 -45q-24 -20 -57 -32zM1034 449q-11 41 -22 76q-22 67 -44 108q-23 42 -36 33q-10 -8 -11 -23q0 -16 7 -38q15 -41 55 -97q24 -36 54 -72q-1 6 -3 13zM1532 518q-17 59 -36 92
q-10 18 -20 27q-9 8 -18 4q-12 -7 -13 -20q-2 -14 5 -32q12 -34 51 -82q21 -26 45 -52q-6 32 -14 63z" />
    <glyph glyph-name="" unicode="&#xffad;" horiz-adv-x="286" 
d="M101 409q9 0 32 -5q27 -6 59 -11q37 -8 72 -10q36 -3 44 11q32 -8 29 -25q0 -1 -1 -2q-5 -18 -22 -26q-37 -4 -73 -4q-21 0 -42 1q-56 4 -116 9q-16 11 -12 34q4 24 28 28h2z" />
    <glyph glyph-name="dotaccent" unicode="&#x2d9;" horiz-adv-x="220" 
d="M292 895q-8 -18 -26 -26q-15 -7 -27 -7q-3 0 -6 1q-16 2 -15 19q2 17 -4 25q6 20 24 37q16 14 29 14h4q18 -3 23 -24q3 -13 1 -25q0 -7 -3 -14z" />
    <glyph glyph-name="hungarumlaut" unicode="&#x2dd;" horiz-adv-x="312" 
d="M171 703h-2q-9 0 -9 16q0 6 1 10q3 12 7 24q16 29 30 54q13 24 34 43h4q12 0 21 -14q7 -13 5 -28q0 -5 -3 -10q-5 -1 -20 -22t-32 -42q-9 -10 -18 -19q-10 -9 -18 -12zM273 703h-2q-9 0 -9 16q0 6 1 10q3 12 7 24q16 29 30 54q14 24 34 43h5q11 0 20 -14q7 -13 5 -28
q0 -5 -3 -10q-5 -1 -20 -22t-31 -42l-19 -19q-10 -9 -18 -12z" />
    <glyph glyph-name="bullet" unicode="&#x2022;" horiz-adv-x="430" 
d="M335 448q2 0 6 -3l4 -5q0 -19 -14 -33q-14 -13 -20 -22q1 -7 19 -23q16 -15 20 -29q1 -2 -2 -4q-1 -2 -1 -3q-11 -9 -36 -1q-27 9 -37 5q-5 -3 -27 -23q-21 -20 -34 -27q0 -2 -4 -1q-3 1 -3 2l-3 1q-7 9 5 36q13 30 9 34q-6 3 -26 11q-20 9 -21 19q-1 1 2 4q1 2 3 3
q9 5 28 5q20 1 26 4q2 7 5 30q3 24 1 27q-4 5 0 8q0 1 2 1q6 2 12 -1q8 -4 18 -23q11 -20 18 -19q5 -3 21 11q16 12 29 16z" />
    <glyph glyph-name="caron" unicode="&#x2c7;" horiz-adv-x="341" 
d="M437 881q-8 -3 -23 -18t-31 -34q-21 -23 -38 -44q-17 -20 -23 -20q-4 0 -14 12q-11 14 -23 33q-18 22 -32 43q-16 22 -23 27q0 9 16 10q18 1 27 -3q17 -24 28 -49q10 -24 18 -29q6 4 15 37q12 33 37 61q3 1 6 1q15 2 39 -3t24 -17q0 -4 -3 -7z" />
    <glyph glyph-name="breve" unicode="&#x2d8;" horiz-adv-x="263" 
d="M230 914q6 -18 17 -30q10 -12 25 -10q33 5 47 47q13 19 33 10q-7 -27 -32 -56q-14 -14 -32 -24q-18 -9 -41 -11h-1q-17 -1 -30 6q-15 6 -23 17q-18 23 -8 48t45 3z" />
    <glyph glyph-name="Zdotaccent" unicode="&#x17b;" horiz-adv-x="437" 
d="M97 6q-8 -2 -16 -2q-24 0 -35 20q-11 21 -8 44q1 6 3 12q17 40 61 116q45 76 97 162l57 92q29 45 55 87q48 79 82 137q33 58 36 72q-17 5 -66 -11q-49 -15 -113 -19q-24 0 -24 24q-2 23 24 21q48 -10 104 4q55 14 124 18h1q17 0 37 -22q12 -13 9 -31q-2 -14 -14 -31
q-36 -49 -84 -128q-49 -79 -96 -165q-25 -45 -48 -89q-24 -45 -45 -86q-38 -75 -60 -129t-17 -64q2 -4 29 -3q26 2 61 7q43 5 84 12q42 7 52 10q6 -2 10 -10q4 -7 -8 -13q-69 -6 -146 -15t-146 -20zM443 848q-8 -18 -26 -26q-15 -7 -27 -7q-3 0 -6 1q-16 2 -15 19
q2 17 -4 25q6 20 24 37q16 14 29 14h4q18 -3 23 -24q3 -13 1 -25q0 -7 -3 -14z" />
    <glyph glyph-name="scaron" unicode="&#x161;" horiz-adv-x="428" 
d="M249 396q-5 -9 -23 -14q-19 -5 -22 10q3 24 1 39q-3 15 -10 22q-15 17 -41 -2q-25 -18 -28 -59q-1 -16 6 -30t18 -27q22 -23 56 -44q32 -21 63 -48q25 -22 41 -50q6 -9 9 -20l14 8q57 30 91 81q9 3 16 3t15 -6q-13 -22 -31 -40q-17 -17 -37 -32q-30 -23 -60 -41
q1 -10 1 -21q1 -35 -11 -67q-11 -32 -31 -59q-15 -22 -34 -40q-20 -18 -41 -30q-39 -24 -77 -26h-6q-35 0 -57 25q-19 23 3 54q20 30 61 64q22 18 46 36l22 15v19q-3 36 -40 75q-36 38 -67 82q-17 23 -27 49q-10 25 -7 53l1 6q3 17 11 31q10 18 26 31q28 25 65 32q10 3 20 3
q23 0 41 -13q12 -10 19 -27q6 -16 4 -42zM160 28q-39 -31 -60 -54q-11 -12 -15 -22q-5 -9 1 -14q11 -12 37 10q27 23 49 60q12 21 20 46zM310 640q-8 -3 -23 -18t-31 -34q-21 -23 -38 -44q-17 -20 -23 -20q-4 0 -14 12q-11 14 -23 33q-18 22 -32 43q-16 22 -23 27q0 9 16 10
q18 1 27 -3q17 -24 28 -49q10 -24 18 -29q6 4 15 37q12 33 37 61q3 1 6 1q15 2 39 -3t24 -17q0 -4 -3 -7z" />
    <glyph glyph-name="sacute" unicode="&#x15b;" horiz-adv-x="428" 
d="M249 396q-5 -9 -23 -14q-19 -5 -22 10q3 24 1 39q-3 15 -10 22q-15 17 -41 -2q-25 -18 -28 -59q-1 -16 6 -30t18 -27q22 -23 56 -44q32 -21 63 -48q25 -22 41 -50q6 -9 9 -20l14 8q57 30 91 81q9 3 16 3t15 -6q-13 -22 -31 -40q-17 -17 -37 -32q-30 -23 -60 -41
q1 -10 1 -21q1 -35 -11 -67q-11 -32 -31 -59q-15 -22 -34 -40q-20 -18 -41 -30q-39 -24 -77 -26h-6q-35 0 -57 25q-19 23 3 54q20 30 61 64q22 18 46 36l22 15v19q-3 36 -40 75q-36 38 -67 82q-17 23 -27 49q-10 25 -7 53l1 6q3 17 11 31q10 18 26 31q28 25 65 32q10 3 20 3
q23 0 41 -13q12 -10 19 -27q6 -16 4 -42zM160 28q-39 -31 -60 -54q-11 -12 -15 -22q-5 -9 1 -14q11 -12 37 10q27 23 49 60q12 21 20 46zM146 525h-2q-14 0 -14 16q0 5 1 9q3 12 7 23q21 29 39 53q17 24 44 42h6q16 0 29 -14q11 -12 10 -27q-1 -4 -3 -9q-8 -1 -27 -21
q-19 -21 -41 -41q-13 -11 -25 -19q-13 -9 -24 -12z" />
    <glyph glyph-name="tcaron" unicode="&#x165;" horiz-adv-x="531" 
d="M111 583q-11 1 -10 8v2q4 9 11 17q42 1 83 2l4 12q7 26 11 43q3 17 -1 21q11 22 43 37q21 10 36 10q7 0 12 -3q6 -2 9 -8q2 -5 1 -15q0 -1 -5 -16q-3 -14 -10 -38l-11 -44q32 -2 65 -5q13 -5 11 -14v-1q-1 -8 -10 -8h-2q-26 3 -70 4q-5 -22 -11 -47q-17 -71 -36 -151
q-21 -98 -42 -194q-19 -96 -27 -158q-4 -33 -3 -53t6 -22q20 -4 63 44q44 48 88 107q36 48 66 91t39 58q8 3 15 3q8 -1 15 -8q-5 -7 -14 -22q-10 -15 -23 -34q-24 -37 -57 -85q-35 -47 -70 -89q-36 -43 -70 -71q-30 -24 -52 -24h-7q-33 7 -51 31q-18 25 -26 62q-10 59 2 142
l2 20q12 74 32 150q20 84 44 160q16 51 28 91q-41 -1 -78 -5zM357 795q12 17 35 17h1q25 0 34 -15q1 -14 -1 -27q-3 -15 -9 -30q-10 -27 -24 -58q-10 -15 -24 -26q-8 -5 -13 -5q-7 -1 -11 6q-5 10 -4 24q0 14 2 29v1q5 27 11 53q7 25 3 31z" />
    <glyph glyph-name="zcaron" unicode="&#x17e;" horiz-adv-x="466" 
d="M199 406q29 5 61 9q18 2 35 2t30 -2q14 -3 24 -8q9 -6 13 -16q1 -10 -6 -29q-7 -18 -19 -40q-21 -40 -55 -85q-33 -45 -63 -71q56 1 77 -67l2 -8q7 6 15 13q40 34 83 72q43 39 60 68q9 3 17 3t15 -4q-13 -21 -34 -43q-19 -23 -43 -46q-44 -42 -89 -80q-9 -8 -17 -14
q9 -54 3 -118q-4 -37 -13 -76q-9 -38 -23 -73q-26 -65 -67 -109q-39 -43 -91 -43h-2q-59 1 -56 67q5 67 50 153q25 46 59 93q20 29 43 54q1 45 -4 81q-8 42 -26 47q-15 5 -27 4q-11 0 -23 -2q-5 9 -6 24q1 16 13 26q14 8 28 20q14 11 30 26q27 26 48 57t22 57q-53 -2 -87 9
q-7 2 -12 4l-10 -20q-16 -29 -31 -53t-25 -39q-9 -4 -17 -4q-8 1 -16 4q15 21 36 57q19 33 37 70q-9 6 -16 14q-15 16 -22 37q-6 20 -5 40l2 10q5 32 28 58q26 29 65 29h1q14 0 22 -7q7 -7 9 -19q6 -32 -17 -88q-10 -24 -21 -47q6 1 15 3zM193 -66q-30 -42 -52 -83
q-42 -77 -53 -134q-10 -57 30 -55q24 1 44 60q21 59 33 136q5 33 9 67l2 28q-6 -9 -13 -19zM185 544q-9 0 -18 -18q-9 -17 -14 -41q-7 -28 -6 -55q0 -19 4 -26q23 47 36 88q18 51 -2 52zM389 669q-8 -3 -23 -18t-31 -34q-21 -23 -38 -44q-17 -20 -23 -20q-4 0 -14 12
q-11 14 -23 33q-18 22 -32 43q-16 22 -23 27q0 9 16 10q18 1 27 -3q17 -24 28 -49q10 -24 18 -29q6 4 15 37q12 33 37 61q3 1 6 1q15 2 39 -3t24 -17q0 -4 -3 -7z" />
    <glyph glyph-name="zacute" unicode="&#x17a;" horiz-adv-x="466" 
d="M199 406q29 5 61 9q18 2 35 2t30 -2q14 -3 24 -8q9 -6 13 -16q1 -10 -6 -29q-7 -18 -19 -40q-21 -40 -55 -85q-33 -45 -63 -71q56 1 77 -67l2 -8q7 6 15 13q40 34 83 72q43 39 60 68q9 3 17 3t15 -4q-13 -21 -34 -43q-19 -23 -43 -46q-44 -42 -89 -80q-9 -8 -17 -14
q9 -54 3 -118q-4 -37 -13 -76q-9 -38 -23 -73q-26 -65 -67 -109q-39 -43 -91 -43h-2q-59 1 -56 67q5 67 50 153q25 46 59 93q20 29 43 54q1 45 -4 81q-8 42 -26 47q-15 5 -27 4q-11 0 -23 -2q-5 9 -6 24q1 16 13 26q14 8 28 20q14 11 30 26q27 26 48 57t22 57q-53 -2 -87 9
q-7 2 -12 4l-10 -20q-16 -29 -31 -53t-25 -39q-9 -4 -17 -4q-8 1 -16 4q15 21 36 57q19 33 37 70q-9 6 -16 14q-15 16 -22 37q-6 20 -5 40l2 10q5 32 28 58q26 29 65 29h1q14 0 22 -7q7 -7 9 -19q6 -32 -17 -88q-10 -24 -21 -47q6 1 15 3zM193 -66q-30 -42 -52 -83
q-42 -77 -53 -134q-10 -57 30 -55q24 1 44 60q21 59 33 136q5 33 9 67l2 28q-6 -9 -13 -19zM185 544q-9 0 -18 -18q-9 -17 -14 -41q-7 -28 -6 -55q0 -19 4 -26q23 47 36 88q18 51 -2 52zM284 506h-2q-14 0 -14 16q0 5 1 9q3 12 7 23q21 29 39 53q17 24 44 42h6q16 0 29 -14
q11 -12 10 -27q-1 -4 -3 -9q-8 -1 -27 -21q-19 -21 -41 -41q-13 -11 -25 -19q-13 -9 -24 -12z" />
    <glyph glyph-name="Lcaron" unicode="&#x13d;" horiz-adv-x="342" 
d="M217 779q10 13 23 13q11 0 26 -9q30 -20 31 -72q4 -51 -4 -121q-7 -70 -21 -145q-10 -48 -19 -97q-11 -48 -22 -93q-20 -83 -38 -145q-17 -61 -22 -78q43 6 91 11q49 5 64 -1q6 -5 5 -11t-6 -9q-10 0 -39 -1t-59 -4q-17 -1 -30 -4q-15 -2 -24 -6q-14 -7 -31 -11
q-17 -5 -33 -7q-10 -1 -19 -1q-19 0 -36 5q-23 7 -24 27q73 279 128 473q55 195 59 286zM422 932q-8 -3 -23 -18t-31 -34q-21 -23 -38 -44q-17 -20 -23 -20q-4 0 -14 12q-11 14 -23 33q-18 22 -32 43q-16 22 -23 27q0 9 16 10q18 1 27 -3q17 -24 28 -49q10 -24 18 -29
q6 4 15 37q12 33 37 61q3 1 6 1q15 2 39 -3t24 -17q0 -4 -3 -7z" />
    <glyph glyph-name="lcaron" unicode="&#x13e;" horiz-adv-x="501" 
d="M177 291q-11 -41 -19 -79t-13 -73q-11 -63 -11 -106t16 -48q19 -7 62 38q43 44 86 99q29 37 53 71q25 35 38 56q9 4 17 4q7 -1 14 -7q-15 -25 -41 -63q-25 -39 -55 -79q-46 -60 -96 -106q-42 -37 -78 -37q-8 -1 -17 1q-27 7 -45 27q-17 20 -26 51q-16 56 -7 139l5 35
q11 66 31 136q27 90 65 173t78 137q19 20 47 27q24 6 38 6h6q44 -4 39 -69q-4 -66 -40 -142q-20 -42 -47 -81t-59 -68q-18 -17 -39 -30zM196 349q23 22 44 52q21 29 38 61q14 26 24 53q11 26 18 50q14 45 16 76t-10 33q-14 2 -40 -53q-26 -56 -54 -139q-14 -44 -29 -93
q-7 -23 -13 -45q2 2 6 5zM446 813q12 17 35 17h1q25 0 34 -15q1 -14 -1 -27q-3 -15 -9 -30q-10 -27 -24 -58q-10 -15 -24 -26q-8 -5 -13 -5q-7 -1 -11 6q-5 10 -4 24q0 14 2 29v1q5 27 11 53q7 25 3 31z" />
    <glyph glyph-name="zdotaccent" unicode="&#x17c;" horiz-adv-x="466" 
d="M199 406q29 5 61 9q18 2 35 2t30 -2q14 -3 24 -8q9 -6 13 -16q1 -10 -6 -29q-7 -18 -19 -40q-21 -40 -55 -85q-33 -45 -63 -71q56 1 77 -67l2 -8q7 6 15 13q40 34 83 72q43 39 60 68q9 3 17 3t15 -4q-13 -21 -34 -43q-19 -23 -43 -46q-44 -42 -89 -80q-9 -8 -17 -14
q9 -54 3 -118q-4 -37 -13 -76q-9 -38 -23 -73q-26 -65 -67 -109q-39 -43 -91 -43h-2q-59 1 -56 67q5 67 50 153q25 46 59 93q20 29 43 54q1 45 -4 81q-8 42 -26 47q-15 5 -27 4q-11 0 -23 -2q-5 9 -6 24q1 16 13 26q14 8 28 20q14 11 30 26q27 26 48 57t22 57q-53 -2 -87 9
q-7 2 -12 4l-10 -20q-16 -29 -31 -53t-25 -39q-9 -4 -17 -4q-8 1 -16 4q15 21 36 57q19 33 37 70q-9 6 -16 14q-15 16 -22 37q-6 20 -5 40l2 10q5 32 28 58q26 29 65 29h1q14 0 22 -7q7 -7 9 -19q6 -32 -17 -88q-10 -24 -21 -47q6 1 15 3zM193 -66q-30 -42 -52 -83
q-42 -77 -53 -134q-10 -57 30 -55q24 1 44 60q21 59 33 136q5 33 9 67l2 28q-6 -9 -13 -19zM185 544q-9 0 -18 -18q-9 -17 -14 -41q-7 -28 -6 -55q0 -19 4 -26q23 47 36 88q18 51 -2 52zM344 631q-8 -18 -26 -26q-15 -7 -27 -7q-3 0 -6 1q-16 2 -15 19q2 17 -4 25
q6 20 24 37q16 14 29 14h4q18 -3 23 -24q3 -13 1 -25q0 -7 -3 -14z" />
    <glyph glyph-name="Scaron" unicode="&#x160;" horiz-adv-x="436" 
d="M518 618q-14 -21 -32 -21q-18 -1 -18 22q10 25 12 58q2 34 -12 57q-7 13 -21 20q-13 8 -33 7q-21 0 -39 -8q-20 -9 -36 -23q-30 -25 -50 -62t-26 -66q-3 -21 0 -42q5 -21 15 -42q18 -40 48 -84q31 -43 56 -92q19 -41 29 -86q9 -46 -2 -98q-6 -28 -21 -52t-34 -44
q-37 -36 -85 -55q-47 -18 -88 -19q-2 0 -3 1q-82 1 -113 59q-21 38 -12 97q5 31 18 67q34 30 56 15q23 -16 4 -48q-18 -32 -21 -71q-4 -39 13 -66q9 -15 24 -24q16 -8 38 -9q19 0 37 8q17 8 32 22q29 25 46 62q19 37 26 66q6 24 1 47q-3 24 -13 47q-18 44 -50 88t-57 91
q-22 39 -32 81t1 88q21 87 94 131q72 43 147 43q68 0 94 -53q21 -41 13 -86q-2 -13 -6 -26zM517 918q-8 -3 -23 -18t-31 -34q-21 -23 -38 -44q-17 -20 -23 -20q-4 0 -14 12q-11 14 -23 33q-18 22 -32 43q-16 22 -23 27q0 9 16 10q18 1 27 -3q17 -24 28 -49q10 -24 18 -29
q6 4 15 37q12 33 37 61q3 1 6 1q15 2 39 -3t24 -17q0 -4 -3 -7z" />
    <glyph glyph-name="Sacute" unicode="&#x15a;" horiz-adv-x="436" 
d="M518 618q-14 -21 -32 -21q-18 -1 -18 22q10 25 12 58q2 34 -12 57q-7 13 -21 20q-13 8 -33 7q-21 0 -39 -8q-20 -9 -36 -23q-30 -25 -50 -62t-26 -66q-3 -21 0 -42q5 -21 15 -42q18 -40 48 -84q31 -43 56 -92q19 -41 29 -86q9 -46 -2 -98q-6 -28 -21 -52t-34 -44
q-37 -36 -85 -55q-47 -18 -88 -19q-2 0 -3 1q-82 1 -113 59q-21 38 -12 97q5 31 18 67q34 30 56 15q23 -16 4 -48q-18 -32 -21 -71q-4 -39 13 -66q9 -15 24 -24q16 -8 38 -9q19 0 37 8q17 8 32 22q29 25 46 62q19 37 26 66q6 24 1 47q-3 24 -13 47q-18 44 -50 88t-57 91
q-22 39 -32 81t1 88q21 87 94 131q72 43 147 43q68 0 94 -53q21 -41 13 -86q-2 -13 -6 -26zM381 806h-2q-14 0 -14 16q0 5 1 9q3 12 7 23q21 29 39 53q17 24 44 42h6q16 0 29 -14q11 -12 10 -27q-1 -4 -3 -9q-8 -1 -27 -21q-19 -21 -41 -41q-13 -11 -25 -19q-13 -9 -24 -12z
" />
    <glyph glyph-name="Tcaron" unicode="&#x164;" horiz-adv-x="342" 
d="M441 769l-1 -6q0 -4 -3 -7q-3 -5 -16 -6q-34 3 -101 9q-4 -196 -31 -390q-28 -195 -79 -352q-14 -13 -35 -13h-3q-23 1 -42 13q-12 8 -20 20t-8 26q7 2 14 20q7 19 14 49q15 57 33 145t37 180q18 94 35 176q17 83 29 124q-19 3 -55 0q-35 -3 -70 0q-4 5 -3 11q0 7 17 10
h56q50 0 100 -1q78 -1 132 -8zM422 932q-8 -3 -23 -18t-31 -34q-21 -23 -38 -44q-17 -20 -23 -20q-4 0 -14 12q-11 14 -23 33q-18 22 -32 43q-16 22 -23 27q0 9 16 10q18 1 27 -3q17 -24 28 -49q10 -24 18 -29q6 4 15 37q12 33 37 61q3 1 6 1q15 2 39 -3t24 -17q0 -4 -3 -7z
" />
    <glyph glyph-name="Zcaron" unicode="&#x17d;" horiz-adv-x="437" 
d="M97 6q-8 -2 -16 -2q-24 0 -35 20q-11 21 -8 44q1 6 3 12q17 40 61 116q45 76 97 162l57 92q29 45 55 87q48 79 82 137q33 58 36 72q-17 5 -66 -11q-49 -15 -113 -19q-24 0 -24 24q-2 23 24 21q48 -10 104 4q55 14 124 18h1q17 0 37 -22q12 -13 9 -31q-2 -14 -14 -31
q-36 -49 -84 -128q-49 -79 -96 -165q-25 -45 -48 -89q-24 -45 -45 -86q-38 -75 -60 -129t-17 -64q2 -4 29 -3q26 2 61 7q43 5 84 12q42 7 52 10q6 -2 10 -10q4 -7 -8 -13q-69 -6 -146 -15t-146 -20zM520 929q-8 -3 -23 -18t-31 -34q-21 -23 -38 -44q-17 -20 -23 -20
q-4 0 -14 12q-11 14 -23 33q-18 22 -32 43q-16 22 -23 27q0 9 16 10q18 1 27 -3q17 -24 28 -49q10 -24 18 -29q6 4 15 37q12 33 37 61q3 1 6 1q15 2 39 -3t24 -17q0 -4 -3 -7z" />
    <glyph glyph-name="Zacute" unicode="&#x179;" horiz-adv-x="437" 
d="M97 6q-8 -2 -16 -2q-24 0 -35 20q-11 21 -8 44q1 6 3 12q17 40 61 116q45 76 97 162l57 92q29 45 55 87q48 79 82 137q33 58 36 72q-17 5 -66 -11q-49 -15 -113 -19q-24 0 -24 24q-2 23 24 21q48 -10 104 4q55 14 124 18h1q17 0 37 -22q12 -13 9 -31q-2 -14 -14 -31
q-36 -49 -84 -128q-49 -79 -96 -165q-25 -45 -48 -89q-24 -45 -45 -86q-38 -75 -60 -129t-17 -64q2 -4 29 -3q26 2 61 7q43 5 84 12q42 7 52 10q6 -2 10 -10q4 -7 -8 -13q-69 -6 -146 -15t-146 -20zM365 806h-2q-14 0 -14 16q0 5 1 9q3 12 7 23q21 29 39 53q17 24 44 42h6
q16 0 29 -14q11 -12 10 -27q-1 -4 -3 -9q-8 -1 -27 -21q-19 -21 -41 -41q-13 -11 -25 -19q-13 -9 -24 -12z" />
    <glyph glyph-name="Racute" unicode="&#x154;" horiz-adv-x="550" 
d="M251 774q8 -67 0 -133q-9 -66 -17 -110q-5 -24 -6 -38q-3 -15 0 -18q6 5 32 61q28 56 67 115q25 39 54 70q28 31 56 40q34 9 67 -10q33 -20 50 -54q9 -18 13 -38q2 -16 0 -32l-1 -7q-9 -34 -31 -67q-22 -34 -53 -65q-25 -25 -55 -47q-28 -23 -57 -42q-37 -25 -72 -43
q26 -19 44 -56q23 -47 43 -96q10 -26 22 -50q11 -24 24 -41q17 -22 39 -30q20 -8 49 5q26 9 22 -16v-1q-5 -26 -42 -32q-16 -3 -30 -3q-27 0 -48 12q-32 17 -56 49q-30 38 -52 87q-23 48 -47 87q-13 20 -28 35q-10 10 -23 16q-7 -2 -12 -1q-13 -75 -12 -154q1 -78 -20 -138
q-4 -19 -26 -19t-44 12q-19 9 -31 24q-14 14 -12 30q1 85 12 168q3 26 7 51q9 55 20 107q31 141 64 243t34 132q7 23 20 23q4 0 10 -2q20 -9 26 -24zM210 352h8q12 0 26 5q19 7 28 14q32 24 66 67q34 44 62 92q44 72 64 137q6 16 8 29q5 39 -17 48q-2 1 -3 1q-8 0 -22 -12
q-19 -15 -43 -43q-45 -53 -97 -143q-52 -91 -80 -195zM406 795h-2q-14 0 -14 16q0 5 1 9q3 12 7 23q21 29 39 53q17 24 44 42h6q16 0 29 -14q11 -12 10 -27q-1 -4 -3 -9q-8 -1 -27 -21q-19 -21 -41 -41q-13 -11 -25 -19q-13 -9 -24 -12z" />
    <glyph glyph-name="Abreve" unicode="&#x102;" horiz-adv-x="450" 
d="M167 783q8 12 19 12q7 0 17 -5q21 -13 20 -28q2 -16 -1 -49q-2 -32 -6 -69q-6 -57 -11 -106q-6 -50 -3 -51q1 5 7 18t13 30q15 33 36 77q22 43 48 83q25 40 52 68t52 27q49 -2 67 -63q17 -61 16 -150q-1 -48 -6 -101q-6 -53 -13 -107q-6 -42 -12 -83l-12 -73
q-14 -75 -23 -126l-7 -48q-3 -20 -3 -28q-14 -20 -46 -20q-7 0 -15 1q-43 5 -53 35q-1 53 15 145q6 38 13 78q-5 0 -10 -1q-51 -6 -104 -19q-22 -5 -41 -10v-6q-4 -83 -16 -184q-10 -20 -55 -12q-44 8 -47 41q-3 96 5 187q7 75 18 142l5 30q27 151 57 252t24 113zM228 255
q52 10 105 16h1q9 46 18 94q11 52 20 104q10 52 18 99q15 87 20 145q7 58 -8 60q-16 1 -44 -38t-59 -94q-37 -66 -68 -134q-32 -69 -37 -93q-11 -97 -16 -171q24 6 50 12zM335 914q6 -18 17 -30q10 -12 25 -10q33 5 47 47q13 19 33 10q-7 -27 -32 -56q-14 -14 -32 -24
q-18 -9 -41 -11h-1q-17 -1 -30 6q-15 6 -23 17q-18 23 -8 48t45 3z" />
    <glyph glyph-name="Lacute" unicode="&#x139;" horiz-adv-x="342" 
d="M217 779q10 13 23 13q11 0 26 -9q30 -20 31 -72q4 -51 -4 -121q-7 -70 -21 -145q-10 -48 -19 -97q-11 -48 -22 -93q-20 -83 -38 -145q-17 -61 -22 -78q43 6 91 11q49 5 64 -1q6 -5 5 -11t-6 -9q-10 0 -39 -1t-59 -4q-17 -1 -30 -4q-15 -2 -24 -6q-14 -7 -31 -11
q-17 -5 -33 -7q-10 -1 -19 -1q-19 0 -36 5q-23 7 -24 27q73 279 128 473q55 195 59 286zM288 797h-2q-14 0 -14 16q0 5 1 9q3 12 7 23q21 29 39 53q17 24 44 42h6q16 0 29 -14q11 -12 10 -27q-1 -4 -3 -9q-8 -1 -27 -21q-19 -21 -41 -41q-13 -11 -25 -19q-13 -9 -24 -12z
" />
    <glyph glyph-name="Cacute" unicode="&#x106;" horiz-adv-x="386" 
d="M445 583q-7 -13 -22 -19q-16 -6 -17 10q11 32 16 75q6 42 -6 72q-7 17 -18 27q-12 10 -32 12q-32 1 -61 -64q-30 -65 -51 -147q-12 -45 -20 -88q-9 -44 -15 -80q-5 -30 -6 -70q-1 -39 1 -80q4 -76 23 -137q19 -62 52 -62q17 0 32 28t26 64q8 23 13 47q4 24 6 42q6 8 16 6
q12 -3 12 -14q-4 -25 -16 -80q-11 -55 -39 -93q-12 -16 -29 -26q-15 -11 -35 -11h-6q-40 0 -71 15q-32 16 -57 45q-43 55 -57 144q-13 90 0 186l2 11q12 74 45 163q37 96 93 158q30 34 66 52q29 15 60 15q8 0 16 -1q71 -8 84 -64q15 -55 -5 -136zM341 810h-2q-14 0 -14 16
q0 5 1 9q3 12 7 23q21 29 39 53q17 24 44 42h6q16 0 29 -14q11 -12 10 -27q-1 -4 -3 -9q-8 -1 -27 -21q-19 -21 -41 -41q-13 -11 -25 -19q-13 -9 -24 -12z" />
    <glyph glyph-name="Ccaron" unicode="&#x10c;" horiz-adv-x="386" 
d="M445 583q-7 -13 -22 -19q-16 -6 -17 10q11 32 16 75q6 42 -6 72q-7 17 -18 27q-12 10 -32 12q-32 1 -61 -64q-30 -65 -51 -147q-12 -45 -20 -88q-9 -44 -15 -80q-5 -30 -6 -70q-1 -39 1 -80q4 -76 23 -137q19 -62 52 -62q17 0 32 28t26 64q8 23 13 47q4 24 6 42q6 8 16 6
q12 -3 12 -14q-4 -25 -16 -80q-11 -55 -39 -93q-12 -16 -29 -26q-15 -11 -35 -11h-6q-40 0 -71 15q-32 16 -57 45q-43 55 -57 144q-13 90 0 186l2 11q12 74 45 163q37 96 93 158q30 34 66 52q29 15 60 15q8 0 16 -1q71 -8 84 -64q15 -55 -5 -136zM482 930q-8 -3 -23 -18
t-31 -34q-21 -23 -38 -44q-17 -20 -23 -20q-4 0 -14 12q-11 14 -23 33q-18 22 -32 43q-16 22 -23 27q0 9 16 10q18 1 27 -3q17 -24 28 -49q10 -24 18 -29q6 4 15 37q12 33 37 61q3 1 6 1q15 2 39 -3t24 -17q0 -4 -3 -7z" />
    <glyph glyph-name="Ecaron" unicode="&#x11a;" horiz-adv-x="364" 
d="M244 784q14 10 27 10q6 0 11 -2q18 -5 29 -16q16 -7 64 -6q49 1 88 6q7 0 9 -5l-1 -3q0 -3 -3 -6q-41 -17 -86 -20q-46 -2 -65 -7q-3 -4 -8 -21q-6 -16 -13 -40q-12 -46 -29 -114t-32 -137q-19 -86 -33 -155q-13 -69 -11 -79q7 -7 51 1q43 9 75 26q11 0 10 -11t-9 -19
q-35 -21 -73 -25q-39 -5 -52 -8q-5 -5 -6 -27q1 -22 4 -46q2 -19 8 -33q5 -15 11 -16q13 -1 58 14q44 15 76 29q2 -3 2 -8t-5 -11q-35 -19 -80 -36q-45 -18 -61 -21q-12 -2 -25 -2q-23 0 -49 6q-43 10 -53 34q-8 61 -7 128q2 66 12 135l3 20q19 117 58 233q44 126 105 232z
M492 918q-8 -3 -23 -18t-31 -34q-21 -23 -38 -44q-17 -20 -23 -20q-4 0 -14 12q-11 14 -23 33q-18 22 -32 43q-16 22 -23 27q0 9 16 10q18 1 27 -3q17 -24 28 -49q10 -24 18 -29q6 4 15 37q12 33 37 61q3 1 6 1q15 2 39 -3t24 -17q0 -4 -3 -7z" />
    <glyph glyph-name="Dcaron" unicode="&#x10e;" horiz-adv-x="506" 
d="M176 784q9 12 21 12q8 0 16 -5q23 -13 22 -28q3 -16 2 -49q-2 -33 -4 -72q-3 -57 -5 -108q-3 -51 -1 -52q6 13 29 67q24 54 58 112q18 31 38 58q20 28 41 46q15 13 30 20t29 6q61 -6 84 -60q24 -54 26 -131q0 -42 -4 -87q-5 -45 -12 -90v-5q-7 -44 -25 -106
q-17 -65 -47 -125q-16 -32 -35 -60q-20 -28 -42 -48q-28 -25 -60 -34q-33 -10 -70 2q-16 5 -17 25q-1 19 7 32q4 1 8 0q3 -1 6 -4q-3 -8 1 -18q5 -11 13 -12q38 -9 68 47q30 55 50 127q14 47 23 92q8 45 11 74q4 33 7 75q4 41 6 83q7 78 7 141t-13 64q-16 2 -46 -37
q-29 -39 -62 -94q-40 -66 -74 -134q-34 -69 -39 -93q-5 -116 -10 -212q-7 -97 -25 -197q-7 -14 -33 -14q-6 0 -12 1q-37 3 -58 23l-8 10q-3 6 -3 13q3 95 12 177q8 83 18 155l8 49q16 103 34 185q21 101 30 179zM563 940q-8 -3 -23 -18t-31 -34q-21 -23 -38 -44
q-17 -20 -23 -20q-4 0 -14 12q-11 14 -23 33q-18 22 -32 43q-16 22 -23 27q0 9 16 10q18 1 27 -3q17 -24 28 -49q10 -24 18 -29q6 4 15 37q12 33 37 61q3 1 6 1q15 2 39 -3t24 -17q0 -4 -3 -7z" />
    <glyph glyph-name="Nacute" unicode="&#x143;" horiz-adv-x="465" 
d="M170 775q17 23 39 23q5 0 9 -1q28 -5 35 -32q-6 -106 -20 -200q-14 -93 -27 -143q4 6 13 23t23 42q26 46 70 109q45 64 111 126q13 11 25 15q14 3 25 1q24 -5 39 -26q16 -21 15 -46q-1 -36 -6 -77q-6 -40 -14 -83q-16 -79 -37 -160q-20 -80 -33 -146q-10 -54 -11 -93
q0 -40 17 -55q1 -6 0 -11t-4 -10q-3 -9 -10 -15q-17 -17 -46 -17h-9q-35 3 -47 26q-21 42 -12 123q10 81 32 172q22 90 48 175t41 139q8 29 10 46t-3 17q-23 4 -72 -57q-48 -60 -92 -133q-31 -49 -53 -93q-23 -45 -31 -70q-4 -20 -8 -48q-4 -29 -7 -61q-8 -60 -16 -118
q-7 -59 -19 -81q-16 -24 -57 -20t-47 40q-5 49 8 133l1 3q14 86 35 181q10 50 22 100q12 49 23 94q20 84 33 142q12 59 7 66zM403 770h-2q-14 0 -14 16q0 5 1 9q3 12 7 23q21 29 39 53q17 24 44 42h6q16 0 29 -14q11 -12 10 -27q-1 -4 -3 -9q-8 -1 -27 -21q-19 -21 -41 -41
q-13 -11 -25 -19q-13 -9 -24 -12z" />
    <glyph glyph-name="Ncaron" unicode="&#x147;" horiz-adv-x="465" 
d="M170 775q17 23 39 23q5 0 9 -1q28 -5 35 -32q-6 -106 -20 -200q-14 -93 -27 -143q4 6 13 23t23 42q26 46 70 109q45 64 111 126q13 11 25 15q14 3 25 1q24 -5 39 -26q16 -21 15 -46q-1 -36 -6 -77q-6 -40 -14 -83q-16 -79 -37 -160q-20 -80 -33 -146q-10 -54 -11 -93
q0 -40 17 -55q1 -6 0 -11t-4 -10q-3 -9 -10 -15q-17 -17 -46 -17h-9q-35 3 -47 26q-21 42 -12 123q10 81 32 172q22 90 48 175t41 139q8 29 10 46t-3 17q-23 4 -72 -57q-48 -60 -92 -133q-31 -49 -53 -93q-23 -45 -31 -70q-4 -20 -8 -48q-4 -29 -7 -61q-8 -60 -16 -118
q-7 -59 -19 -81q-16 -24 -57 -20t-47 40q-5 49 8 133l1 3q14 86 35 181q10 50 22 100q12 49 23 94q20 84 33 142q12 59 7 66zM560 884q-8 -3 -23 -18t-31 -34q-21 -23 -38 -44q-17 -20 -23 -20q-4 0 -14 12q-11 14 -23 33q-18 22 -32 43q-16 22 -23 27q0 9 16 10q18 1 27 -3
q17 -24 28 -49q10 -24 18 -29q6 4 15 37q12 33 37 61q3 1 6 1q15 2 39 -3t24 -17q0 -4 -3 -7z" />
    <glyph glyph-name="Ohungarumlaut" unicode="&#x150;" horiz-adv-x="481" 
d="M251 -2h-5q-57 0 -91 21q-38 22 -57 58q-14 24 -19 53q-6 28 -8 60q-3 58 7 121v11q10 57 21 106q11 51 27 100q16 48 36 90q39 78 99 125q51 38 122 38q16 0 32 -1q22 -3 40 -21q19 -18 32 -47q27 -55 35 -140q10 -85 -3 -173l-1 -7q-7 -44 -21 -90q-14 -50 -33 -96
q-36 -86 -91 -146q-55 -61 -122 -62zM469 402q1 1 2 3q4 34 6 73q3 41 0 83q-3 76 -18 136q-17 60 -45 63h-4q-33 0 -72 -53q-40 -57 -72 -134q-17 -42 -30 -85q-14 -43 -21 -82q-3 -14 -6 -30q-3 -22 -6 -47q-5 -43 -7 -88q-3 -82 9 -149q13 -67 55 -70h8q53 -1 92 59
q41 64 69 148q14 45 24 90t16 83zM319.798 800.524h-1.59961q-7.2002 0 -7.2002 13.9863q0 5.24512 0.799805 8.74121q2.40039 10.4902 5.60059 20.9795q12.7988 25.3506 23.999 47.2041q10.4004 20.9795 27.2002 37.5879h3.19922q9.59961 0 16.7998 -12.2383
q5.60059 -11.3633 4 -24.4756q0 -4.37109 -2.39941 -8.74121q-4 -0.874023 -16 -19.2314t-25.5996 -36.7139q-7.2002 -8.74219 -14.4004 -16.6094q-7.99902 -7.86719 -14.3994 -10.4893zM401.396 800.524h-1.59961q-7.2002 0 -7.2002 13.9863q0 5.24512 0.799805 8.74121
q2.40039 10.4902 5.60059 20.9795q12.7998 25.3506 23.999 47.2041q11.2002 20.9795 27.2002 37.5879h4q8.7998 0 15.999 -12.2383q5.60059 -11.3633 4 -24.4756q0 -4.37109 -2.39941 -8.74121q-4 -0.874023 -16 -19.2314t-24.7998 -36.7139q-8 -8.74219 -15.1992 -16.6094
q-8 -7.86719 -14.4004 -10.4893z" />
    <glyph glyph-name="Rcaron" unicode="&#x158;" horiz-adv-x="550" 
d="M251 774q8 -67 0 -133q-9 -66 -17 -110q-5 -24 -6 -38q-3 -15 0 -18q6 5 32 61q28 56 67 115q25 39 54 70q28 31 56 40q34 9 67 -10q33 -20 50 -54q9 -18 13 -38q2 -16 0 -32l-1 -7q-9 -34 -31 -67q-22 -34 -53 -65q-25 -25 -55 -47q-28 -23 -57 -42q-37 -25 -72 -43
q26 -19 44 -56q23 -47 43 -96q10 -26 22 -50q11 -24 24 -41q17 -22 39 -30q20 -8 49 5q26 9 22 -16v-1q-5 -26 -42 -32q-16 -3 -30 -3q-27 0 -48 12q-32 17 -56 49q-30 38 -52 87q-23 48 -47 87q-13 20 -28 35q-10 10 -23 16q-7 -2 -12 -1q-13 -75 -12 -154q1 -78 -20 -138
q-4 -19 -26 -19t-44 12q-19 9 -31 24q-14 14 -12 30q1 85 12 168q3 26 7 51q9 55 20 107q31 141 64 243t34 132q7 23 20 23q4 0 10 -2q20 -9 26 -24zM210 352h8q12 0 26 5q19 7 28 14q32 24 66 67q34 44 62 92q44 72 64 137q6 16 8 29q5 39 -17 48q-2 1 -3 1q-8 0 -22 -12
q-19 -15 -43 -43q-45 -53 -97 -143q-52 -91 -80 -195zM549 913q-8 -3 -23 -18t-31 -34q-21 -23 -38 -44q-17 -20 -23 -20q-4 0 -14 12q-11 14 -23 33q-18 22 -32 43q-16 22 -23 27q0 9 16 10q18 1 27 -3q17 -24 28 -49q10 -24 18 -29q6 4 15 37q12 33 37 61q3 1 6 1
q15 2 39 -3t24 -17q0 -4 -3 -7z" />
    <glyph glyph-name="Uring" unicode="&#x16e;" horiz-adv-x="515" 
d="M478 -4q-10 -12 -25 -12q-9 0 -21 5q-30 14 -25 29q-1 14 -2 33q-2 20 -3 42q-1 41 0 85q0 45 5 75q-8 -15 -37 -66q-30 -52 -69 -98q-26 -31 -54 -52q-27 -21 -53 -19q-22 1 -40 14q-17 13 -30 35q-21 41 -28 108q-5 67 -2 143q3 51 8 103t12 101q11 90 23 159
q11 69 10 88q12 23 35 28q8 1 16 1q14 0 27 -5q14 -5 25 -15q11 -11 15 -24q3 -57 -7 -147q-10 -89 -26 -184q-13 -92 -27 -178q-13 -85 -16 -138q-1 -28 1 -45q3 -16 11 -17q24 -1 68 48q45 49 82 108q26 39 44 75q18 35 21 56q3 12 8 37q5 26 12 58q13 62 31 138
q18 77 42 140q10 23 41 23q31 1 42 -28q-48 -182 -81 -312t-43 -224q-5 -50 -3 -92q2 -41 13 -76zM416 897q7 1 11 -10l1 4q2 13 9 12h7q42 0 49 -39q2 -14 -1 -27q-4 -25 -24 -45q-11 -11 -25 -18q-15 -8 -33 -10h-9q-11 0 -21 3q-12 5 -21 14q-16 17 -16 43q0 6 1 12
q3 19 17 34q8 10 22 18q15 7 33 9zM422 857q-24 1 -20 -31q5 -32 29 -27q20 4 30 30t0 41q-4 5 -10 7q-7 3 -16 1q-3 -1 -5 0q2 -15 -8 -21z" />
    <glyph glyph-name="Uhungarumlaut" unicode="&#x170;" horiz-adv-x="515" 
d="M478 -4q-10 -12 -25 -12q-9 0 -21 5q-30 14 -25 29q-1 14 -2 33q-2 20 -3 42q-1 41 0 85q0 45 5 75q-8 -15 -37 -66q-30 -52 -69 -98q-26 -31 -54 -52q-27 -21 -53 -19q-22 1 -40 14q-17 13 -30 35q-21 41 -28 108q-5 67 -2 143q3 51 8 103t12 101q11 90 23 159
q11 69 10 88q12 23 35 28q8 1 16 1q14 0 27 -5q14 -5 25 -15q11 -11 15 -24q3 -57 -7 -147q-10 -89 -26 -184q-13 -92 -27 -178q-13 -85 -16 -138q-1 -28 1 -45q3 -16 11 -17q24 -1 68 48q45 49 82 108q26 39 44 75q18 35 21 56q3 12 8 37q5 26 12 58q13 62 31 138
q18 77 42 140q10 23 41 23q31 1 42 -28q-48 -182 -81 -312t-43 -224q-5 -50 -3 -92q2 -41 13 -76zM340 778h-2q-9 0 -9 16q0 6 1 10q3 12 7 24q16 29 30 54q13 24 34 43h4q12 0 21 -14q7 -13 5 -28q0 -5 -3 -10q-5 -1 -20 -22t-32 -42q-9 -10 -18 -19q-10 -9 -18 -12z
M442 778h-2q-9 0 -9 16q0 6 1 10q3 12 7 24q16 29 30 54q14 24 34 43h5q11 0 20 -14q7 -13 5 -28q0 -5 -3 -10q-5 -1 -20 -22t-31 -42l-19 -19q-10 -9 -18 -12z" />
    <glyph glyph-name="racute" unicode="&#x155;" 
d="M209 420q28 1 57 -1q17 -1 30 -4q15 -3 24 -8q6 -4 10 -10q5 -5 4 -13q0 -5 -17 -38q-16 -34 -37 -80q-12 -25 -24 -52q-11 -28 -21 -54q-23 -63 -30 -112q-6 -49 28 -53q18 -3 61 47t85 107q27 38 51 72q22 33 32 49q9 3 16 3q8 0 15 -7q-12 -18 -35 -54t-52 -76
q-43 -60 -93 -112q-46 -47 -81 -48q-2 0 -5 1q-56 5 -72 69q-15 64 -2 140q10 51 31 100q20 48 48 80q-37 9 -62 23q-3 -7 -7 -13q-24 -40 -48 -77q-24 -36 -37 -58q-9 -3 -17 -4q-8 0 -15 7q15 22 37 57q23 35 46 73q9 17 19 33q-17 17 -23 37q-14 44 18 81q24 27 52 27
q9 0 19 -3q27 -8 6 -61q-13 -33 -33 -69q6 0 22 1zM205 532q-8 2 -17 -11t-16 -32q-9 -23 -10 -45q-1 -8 0 -14q15 26 28 50q25 49 15 52zM296 575h-2q-14 0 -14 16q0 5 1 9q3 12 7 23q21 29 39 53q17 24 44 42h6q16 0 29 -14q11 -12 10 -27q-1 -4 -3 -9q-8 -1 -27 -21
q-19 -21 -41 -41q-13 -11 -25 -19q-13 -9 -24 -12z" />
    <glyph glyph-name="abreve" unicode="&#x103;" horiz-adv-x="528" 
d="M395 443q2 -4 0 -9q-1 -4 -7 -6q-15 18 -33 19t-37 -10q-34 -20 -70 -73q-34 -52 -60 -111q-33 -75 -44 -138q-10 -62 19 -62q13 0 39 42q25 43 53 98q35 68 63 132t31 71q9 15 42 20q35 6 47 -7q4 -3 4 -8q1 -4 -1 -10q-6 2 -27 -52q-20 -53 -42 -123q-18 -55 -34 -111
q-17 -55 -24 -91q-4 -19 -5 -30t2 -12q15 -2 51 45q38 48 76 105q31 47 58 89q25 41 36 56q7 2 15 1t15 -6q-9 -13 -36 -58q-26 -45 -61 -96q-43 -63 -88 -116q-43 -50 -69 -50h-3q-23 3 -35 17t-15 36q-3 18 -2 40q2 22 6 45q9 43 23 85l20 65q-5 -11 -14 -32
q-11 -24 -27 -53q-23 -43 -50 -82t-46 -41q-54 -5 -97 21t-35 83l2 11q11 70 43 134q35 68 78 117q23 26 46 45t44 29q9 5 23 8t30 4h12q23 0 45 -6q29 -7 39 -25zM303 593q6 -18 17 -30q10 -12 25 -10q33 5 47 47q13 19 33 10q-7 -27 -32 -56q-14 -14 -32 -24
q-18 -9 -41 -11h-1q-17 -1 -30 6q-15 6 -23 17q-18 23 -8 48t45 3z" />
    <glyph glyph-name="lacute" unicode="&#x13a;" horiz-adv-x="391" 
d="M177 291q-11 -41 -19 -79t-13 -73q-11 -63 -11 -106t16 -48q19 -7 62 38q43 44 86 99q29 37 53 71q25 35 38 56q9 4 17 4q7 -1 14 -7q-15 -25 -41 -63q-25 -39 -55 -79q-46 -60 -96 -106q-42 -37 -78 -37q-8 -1 -17 1q-27 7 -45 27q-17 20 -26 51q-16 56 -7 139l5 35
q11 66 31 136q27 90 65 173t78 137q19 20 47 27q24 6 38 6h6q44 -4 39 -69q-4 -66 -40 -142q-20 -42 -47 -81t-59 -68q-18 -17 -39 -30zM196 349q23 22 44 52q21 29 38 61q14 26 24 53q11 26 18 50q14 45 16 76t-10 33q-14 2 -40 -53q-26 -56 -54 -139q-14 -44 -29 -93
q-7 -23 -13 -45q2 2 6 5zM325 735h-2q-14 0 -14 16q0 5 1 9q3 12 7 23q21 29 39 53q17 24 44 42h6q16 0 29 -14q11 -12 10 -27q-1 -4 -3 -9q-8 -1 -27 -21q-19 -21 -41 -41q-13 -11 -25 -19q-13 -9 -24 -12z" />
    <glyph glyph-name="cacute" unicode="&#x107;" horiz-adv-x="467" 
d="M285 360q7 21 9 46q1 26 -15 28q-18 2 -46 -51q-27 -53 -49 -125q-17 -56 -25 -114t0 -97q3 -22 13 -36t26 -18q33 -8 85 40q50 47 98 107q26 33 47 64q22 32 38 56q8 5 16 5q8 -1 14 -8q-16 -27 -39 -62q-23 -34 -51 -70q-50 -65 -110 -116q-50 -42 -97 -42q-9 0 -18 1
q-46 8 -77 35q-31 28 -46 67q-27 68 -12 159l2 12q17 98 71 177q19 28 41 45q23 17 45 24q19 7 37 7q30 0 55 -19q39 -29 31 -89q-2 -11 -5 -21q-2 -10 -6 -20q-9 -8 -21 -2q-12 7 -11 17zM248 543h-2q-14 0 -14 16q0 5 1 9q3 12 7 23q21 29 39 53q17 24 44 42h6
q16 0 29 -14q11 -12 10 -27q-1 -4 -3 -9q-8 -1 -27 -21q-19 -21 -41 -41q-13 -11 -25 -19q-13 -9 -24 -12z" />
    <glyph glyph-name="ccaron" unicode="&#x10d;" horiz-adv-x="467" 
d="M285 360q7 21 9 46q1 26 -15 28q-18 2 -46 -51q-27 -53 -49 -125q-17 -56 -25 -114t0 -97q3 -22 13 -36t26 -18q33 -8 85 40q50 47 98 107q26 33 47 64q22 32 38 56q8 5 16 5q8 -1 14 -8q-16 -27 -39 -62q-23 -34 -51 -70q-50 -65 -110 -116q-50 -42 -97 -42q-9 0 -18 1
q-46 8 -77 35q-31 28 -46 67q-27 68 -12 159l2 12q17 98 71 177q19 28 41 45q23 17 45 24q19 7 37 7q30 0 55 -19q39 -29 31 -89q-2 -11 -5 -21q-2 -10 -6 -20q-9 -8 -21 -2q-12 7 -11 17zM401 645q-8 -3 -23 -18t-31 -34q-21 -23 -38 -44q-17 -20 -23 -20q-4 0 -14 12
q-11 14 -23 33q-18 22 -32 43q-16 22 -23 27q0 9 16 10q18 1 27 -3q17 -24 28 -49q10 -24 18 -29q6 4 15 37q12 33 37 61q3 1 6 1q15 2 39 -3t24 -17q0 -4 -3 -7z" />
    <glyph glyph-name="ecaron" unicode="&#x11b;" 
d="M157 155q-6 -51 2 -90q9 -39 39 -46q32 -8 83 33q50 40 97 95q25 30 46 59q22 30 37 54q9 7 17 6q7 -1 14 -9q-17 -27 -39 -60q-23 -32 -50 -64q-50 -61 -109 -105q-49 -36 -95 -36q-9 0 -19 1q-47 9 -77 35t-45 64q-26 63 -13 146l3 15q18 93 70 165q23 32 49 50
q24 18 48 23q11 2 21 2q30 0 52 -22q29 -30 22 -85q-13 -87 -77 -134q-29 -22 -66 -38v-1q-6 -29 -10 -58zM228 282q48 47 57 97q8 50 -11 55q-17 4 -44 -45q-27 -50 -47 -117q-5 -15 -9 -30q32 18 54 40zM358 658q-8 -3 -23 -18t-31 -34q-21 -23 -38 -44q-17 -20 -23 -20
q-4 0 -14 12q-11 14 -23 33q-18 22 -32 43q-16 22 -23 27q0 9 16 10q18 1 27 -3q17 -24 28 -49q10 -24 18 -29q6 4 15 37q12 33 37 61q3 1 6 1q15 2 39 -3t24 -17q0 -4 -3 -7z" />
    <glyph glyph-name="nacute" unicode="&#x144;" horiz-adv-x="527" 
d="M164 493q10 -1 16 -10t7 -23q4 -27 -1 -67l-10 -78q10 23 36 62q26 38 59 66q17 15 35 24t35 8q41 -3 41 -67q0 -63 -17 -144q-7 -35 -16 -70q-8 -35 -17 -68q-16 -60 -26 -102q-9 -42 -2 -44q19 -6 59 39q39 45 78 100q26 37 49 71t35 54q9 4 17 4q8 1 16 -7
q-14 -21 -37 -58q-24 -38 -52 -79q-44 -61 -93 -111q-40 -42 -72 -42q-5 0 -11 1q-22 6 -33 23q-13 17 -18 43q-7 41 2 97q8 56 22 114q21 85 42 153q22 68 12 69q-17 1 -45 -28t-54 -67q-14 -20 -26 -40q-13 -21 -22 -39q-4 -19 -7 -41q-5 -22 -9 -43q-8 -40 -16 -72
q-9 -33 -14 -42q-30 -27 -62 -37q-31 -10 -46 35q1 22 5 45q3 21 8 42q11 45 23 88q24 79 43 140q18 62 3 76q12 16 29 22q13 4 25 4q5 0 9 -1zM267 500h-2q-14 0 -14 16q0 5 1 9q3 12 7 23q21 29 39 53q17 24 44 42h6q16 0 29 -14q11 -12 10 -27q-1 -4 -3 -9q-8 -1 -27 -21
q-19 -21 -41 -41q-13 -11 -25 -19q-13 -9 -24 -12z" />
    <glyph glyph-name="ncaron" unicode="&#x148;" horiz-adv-x="527" 
d="M164 493q10 -1 16 -10t7 -23q4 -27 -1 -67l-10 -78q10 23 36 62q26 38 59 66q17 15 35 24t35 8q41 -3 41 -67q0 -63 -17 -144q-7 -35 -16 -70q-8 -35 -17 -68q-16 -60 -26 -102q-9 -42 -2 -44q19 -6 59 39q39 45 78 100q26 37 49 71t35 54q9 4 17 4q8 1 16 -7
q-14 -21 -37 -58q-24 -38 -52 -79q-44 -61 -93 -111q-40 -42 -72 -42q-5 0 -11 1q-22 6 -33 23q-13 17 -18 43q-7 41 2 97q8 56 22 114q21 85 42 153q22 68 12 69q-17 1 -45 -28t-54 -67q-14 -20 -26 -40q-13 -21 -22 -39q-4 -19 -7 -41q-5 -22 -9 -43q-8 -40 -16 -72
q-9 -33 -14 -42q-30 -27 -62 -37q-31 -10 -46 35q1 22 5 45q3 21 8 42q11 45 23 88q24 79 43 140q18 62 3 76q12 16 29 22q13 4 25 4q5 0 9 -1zM439 610q-8 -3 -23 -18t-31 -34q-21 -23 -38 -44q-17 -20 -23 -20q-4 0 -14 12q-11 14 -23 33q-18 22 -32 43q-16 22 -23 27
q0 9 16 10q18 1 27 -3q17 -24 28 -49q10 -24 18 -29q6 4 15 37q12 33 37 61q3 1 6 1q15 2 39 -3t24 -17q0 -4 -3 -7z" />
    <glyph glyph-name="ohungarumlaut" unicode="&#x151;" horiz-adv-x="507" 
d="M311 453q11 -4 3 -9t-15 -3q-40 14 -74 -21q-34 -36 -56 -90q-13 -29 -21 -60q-9 -31 -12 -60q-4 -21 -5 -46q0 -24 2 -47q4 -44 20 -76q17 -32 51 -31q15 1 32 11q16 10 32 27q24 25 45 65q-27 9 -51 36q-26 29 -43 65q-25 56 -23 114q3 58 45 81q72 38 109 -5
q38 -42 28 -165q-4 -54 -22 -102q6 0 12 1q19 4 36 13q34 16 62 45t40 50q10 3 18 2q8 0 15 -3q-19 -33 -54 -69q-33 -35 -74 -54q-23 -11 -45 -14q-12 -2 -23 -1q-22 -48 -54 -79q-20 -19 -44 -29q-22 -11 -47 -11h-1q-93 0 -132 61q-37 61 -20 171l1 1q13 87 55 149t95 86
q28 12 58 12q29 0 57 -15zM348 235q2 67 -31 97q-33 29 -66 12q-17 -8 -10 -49q7 -40 26 -81q13 -27 30 -47q15 -19 30 -25q18 44 21 93zM185 484h-2q-9 0 -9 16q0 6 1 10q3 12 7 24q16 29 30 54q13 24 34 43h4q12 0 21 -14q7 -13 5 -28q0 -5 -3 -10q-5 -1 -20 -22t-32 -42
q-9 -10 -18 -19q-10 -9 -18 -12zM287 484h-2q-9 0 -9 16q0 6 1 10q3 12 7 24q16 29 30 54q14 24 34 43h5q11 0 20 -14q7 -13 5 -28q0 -5 -3 -10q-5 -1 -20 -22t-31 -42l-19 -19q-10 -9 -18 -12z" />
    <glyph glyph-name="rcaron" unicode="&#x159;" 
d="M209 420q28 1 57 -1q17 -1 30 -4q15 -3 24 -8q6 -4 10 -10q5 -5 4 -13q0 -5 -17 -38q-16 -34 -37 -80q-12 -25 -24 -52q-11 -28 -21 -54q-23 -63 -30 -112q-6 -49 28 -53q18 -3 61 47t85 107q27 38 51 72q22 33 32 49q9 3 16 3q8 0 15 -7q-12 -18 -35 -54t-52 -76
q-43 -60 -93 -112q-46 -47 -81 -48q-2 0 -5 1q-56 5 -72 69q-15 64 -2 140q10 51 31 100q20 48 48 80q-37 9 -62 23q-3 -7 -7 -13q-24 -40 -48 -77q-24 -36 -37 -58q-9 -3 -17 -4q-8 0 -15 7q15 22 37 57q23 35 46 73q9 17 19 33q-17 17 -23 37q-14 44 18 81q24 27 52 27
q9 0 19 -3q27 -8 6 -61q-13 -33 -33 -69q6 0 22 1zM205 532q-8 2 -17 -11t-16 -32q-9 -23 -10 -45q-1 -8 0 -14q15 26 28 50q25 49 15 52zM410 664q-8 -3 -23 -18t-31 -34q-21 -23 -38 -44q-17 -20 -23 -20q-4 0 -14 12q-11 14 -23 33q-18 22 -32 43q-16 22 -23 27
q0 9 16 10q18 1 27 -3q17 -24 28 -49q10 -24 18 -29q6 4 15 37q12 33 37 61q3 1 6 1q15 2 39 -3t24 -17q0 -4 -3 -7z" />
    <glyph glyph-name="uring" unicode="&#x16f;" horiz-adv-x="555" 
d="M80 436q12 25 32 25h3q22 -3 41 -26q10 -12 18 -30t11 -40q-3 -26 -12 -67q-10 -41 -20 -85q-15 -65 -22 -120q-7 -54 17 -55q25 0 63 62t69 142q17 43 28 86q12 42 17 78q8 22 45 16q37 -7 34 -37q-6 -27 -19 -74q-14 -48 -28 -101q-8 -27 -14 -55q-6 -27 -11 -52
q-10 -47 -11 -79q0 -32 15 -36q17 -3 57 43q41 47 81 102q25 37 47 69q23 33 32 50q9 2 17 1q8 0 15 -6q-4 -7 -13 -20q-8 -13 -19 -31q-21 -33 -50 -76t-61 -80q-32 -38 -63 -62q-25 -20 -45 -20q-5 0 -9 1q-23 6 -35 23q-13 17 -18 39q-11 42 -3 90q7 48 10 71
q-7 -13 -24 -49q-19 -37 -44 -69q-18 -22 -36 -37q-18 -14 -35 -14q-36 1 -57 17q-19 16 -29 43q-10 28 -10 64q0 37 5 76q9 71 25 137q15 65 6 86zM279 598q7 1 11 -10l1 4q2 13 9 12h7q42 0 49 -39q2 -14 -1 -27q-4 -25 -24 -45q-11 -11 -25 -18q-15 -8 -33 -10h-9
q-11 0 -21 3q-12 5 -21 14q-16 17 -16 43q0 6 1 12q3 19 17 34q8 10 22 18q15 7 33 9zM285 558q-24 1 -20 -31q5 -32 29 -27q20 4 30 30t0 41q-4 5 -10 7q-7 3 -16 1q-3 -1 -5 0q2 -15 -8 -21z" />
    <glyph glyph-name="uhungarumlaut" unicode="&#x171;" horiz-adv-x="555" 
d="M80 436q12 25 32 25h3q22 -3 41 -26q10 -12 18 -30t11 -40q-3 -26 -12 -67q-10 -41 -20 -85q-15 -65 -22 -120q-7 -54 17 -55q25 0 63 62t69 142q17 43 28 86q12 42 17 78q8 22 45 16q37 -7 34 -37q-6 -27 -19 -74q-14 -48 -28 -101q-8 -27 -14 -55q-6 -27 -11 -52
q-10 -47 -11 -79q0 -32 15 -36q17 -3 57 43q41 47 81 102q25 37 47 69q23 33 32 50q9 2 17 1q8 0 15 -6q-4 -7 -13 -20q-8 -13 -19 -31q-21 -33 -50 -76t-61 -80q-32 -38 -63 -62q-25 -20 -45 -20q-5 0 -9 1q-23 6 -35 23q-13 17 -18 39q-11 42 -3 90q7 48 10 71
q-7 -13 -24 -49q-19 -37 -44 -69q-18 -22 -36 -37q-18 -14 -35 -14q-36 1 -57 17q-19 16 -29 43q-10 28 -10 64q0 37 5 76q9 71 25 137q15 65 6 86zM199 456h-2q-9 0 -9 16q0 6 1 10q3 12 7 24q16 29 30 54q13 24 34 43h4q12 0 21 -14q7 -13 5 -28q0 -5 -3 -10
q-5 -1 -20 -22t-32 -42q-9 -10 -18 -19q-10 -9 -18 -12zM301 456h-2q-9 0 -9 16q0 6 1 10q3 12 7 24q16 29 30 54q14 24 34 43h5q11 0 20 -14q7 -13 5 -28q0 -5 -3 -10q-5 -1 -20 -22t-31 -42l-19 -19q-10 -9 -18 -12z" />
    <glyph glyph-name="Ccircumflex" unicode="&#x108;" horiz-adv-x="386" 
d="M445 583q-7 -13 -22 -19q-16 -6 -17 10q11 32 16 75q6 42 -6 72q-7 17 -18 27q-12 10 -32 12q-32 1 -61 -64q-30 -65 -51 -147q-12 -45 -20 -88q-9 -44 -15 -80q-5 -30 -6 -70q-1 -39 1 -80q4 -76 23 -137q19 -62 52 -62q17 0 32 28t26 64q8 23 13 47q4 24 6 42q6 8 16 6
q12 -3 12 -14q-4 -25 -16 -80q-11 -55 -39 -93q-12 -16 -29 -26q-15 -11 -35 -11h-6q-40 0 -71 15q-32 16 -57 45q-43 55 -57 144q-13 90 0 186l2 11q12 74 45 163q37 96 93 158q30 34 66 52q29 15 60 15q8 0 16 -1q71 -8 84 -64q15 -55 -5 -136zM244 819q8 2 24 16
q17 14 34 31q23 22 42 41t25 18q4 0 12 -14q10 -15 20 -35q14 -24 26 -47q14 -24 20 -29v-1q-2 -8 -18 -8q-16 1 -25 6q-15 26 -22 52q-9 25 -15 31q-6 -3 -19 -36q-14 -32 -42 -58h-6q-15 -1 -37 7q-24 7 -22 19q0 4 3 7z" />
    <glyph glyph-name="ccircumflex" unicode="&#x109;" horiz-adv-x="467" 
d="M285 360q7 21 9 46q1 26 -15 28q-18 2 -46 -51q-27 -53 -49 -125q-17 -56 -25 -114t0 -97q3 -22 13 -36t26 -18q33 -8 85 40q50 47 98 107q26 33 47 64q22 32 38 56q8 5 16 5q8 -1 14 -8q-16 -27 -39 -62q-23 -34 -51 -70q-50 -65 -110 -116q-50 -42 -97 -42q-9 0 -18 1
q-46 8 -77 35q-31 28 -46 67q-27 68 -12 159l2 12q17 98 71 177q19 28 41 45q23 17 45 24q19 7 37 7q30 0 55 -19q39 -29 31 -89q-2 -11 -5 -21q-2 -10 -6 -20q-9 -8 -21 -2q-12 7 -11 17zM138 557q8 2 24 16q17 14 34 31q23 22 42 41t25 18q4 0 12 -14q10 -15 20 -35
q14 -24 26 -47q14 -24 20 -29v-1q-2 -8 -18 -8q-16 1 -25 6q-15 26 -22 52q-9 25 -15 31q-6 -3 -19 -36q-14 -32 -42 -58h-6q-15 -1 -37 7q-24 7 -22 19q0 4 3 7z" />
    <glyph glyph-name="Cdotaccent" unicode="&#x10a;" horiz-adv-x="386" 
d="M445 583q-7 -13 -22 -19q-16 -6 -17 10q11 32 16 75q6 42 -6 72q-7 17 -18 27q-12 10 -32 12q-32 1 -61 -64q-30 -65 -51 -147q-12 -45 -20 -88q-9 -44 -15 -80q-5 -30 -6 -70q-1 -39 1 -80q4 -76 23 -137q19 -62 52 -62q17 0 32 28t26 64q8 23 13 47q4 24 6 42q6 8 16 6
q12 -3 12 -14q-4 -25 -16 -80q-11 -55 -39 -93q-12 -16 -29 -26q-15 -11 -35 -11h-6q-40 0 -71 15q-32 16 -57 45q-43 55 -57 144q-13 90 0 186l2 11q12 74 45 163q37 96 93 158q30 34 66 52q29 15 60 15q8 0 16 -1q71 -8 84 -64q15 -55 -5 -136zM420 847q-8 -18 -26 -26
q-15 -7 -27 -7q-3 0 -6 1q-16 2 -15 19q2 17 -4 25q6 20 24 37q16 14 29 14h4q18 -3 23 -24q3 -13 1 -25q0 -7 -3 -14z" />
    <glyph glyph-name="cdotaccent" unicode="&#x10b;" horiz-adv-x="467" 
d="M285 360q7 21 9 46q1 26 -15 28q-18 2 -46 -51q-27 -53 -49 -125q-17 -56 -25 -114t0 -97q3 -22 13 -36t26 -18q33 -8 85 40q50 47 98 107q26 33 47 64q22 32 38 56q8 5 16 5q8 -1 14 -8q-16 -27 -39 -62q-23 -34 -51 -70q-50 -65 -110 -116q-50 -42 -97 -42q-9 0 -18 1
q-46 8 -77 35q-31 28 -46 67q-27 68 -12 159l2 12q17 98 71 177q19 28 41 45q23 17 45 24q19 7 37 7q30 0 55 -19q39 -29 31 -89q-2 -11 -5 -21q-2 -10 -6 -20q-9 -8 -21 -2q-12 7 -11 17zM325.347 566.403q-10.1465 -17.0625 -32.9756 -24.6465
q-19.0254 -6.63477 -34.2451 -6.63477q-3.80469 0 -7.60938 0.947266q-20.293 1.89648 -19.0244 18.0107q2.53613 16.1152 -5.07422 23.6992q7.61035 18.958 30.4395 35.0732q20.293 13.2715 36.7812 13.2715h5.07324q22.8301 -2.84375 29.1709 -22.751
q3.80566 -12.3232 1.26855 -23.6982q0 -6.63574 -3.80469 -13.2715z" />
    <glyph glyph-name="Ebreve" unicode="&#x114;" horiz-adv-x="364" 
d="M244 784q14 10 27 10q6 0 11 -2q18 -5 29 -16q16 -7 64 -6q49 1 88 6q7 0 9 -5l-1 -3q0 -3 -3 -6q-41 -17 -86 -20q-46 -2 -65 -7q-3 -4 -8 -21q-6 -16 -13 -40q-12 -46 -29 -114t-32 -137q-19 -86 -33 -155q-13 -69 -11 -79q7 -7 51 1q43 9 75 26q11 0 10 -11t-9 -19
q-35 -21 -73 -25q-39 -5 -52 -8q-5 -5 -6 -27q1 -22 4 -46q2 -19 8 -33q5 -15 11 -16q13 -1 58 14q44 15 76 29q2 -3 2 -8t-5 -11q-35 -19 -80 -36q-45 -18 -61 -21q-12 -2 -25 -2q-23 0 -49 6q-43 10 -53 34q-8 61 -7 128q2 66 12 135l3 20q19 117 58 233q44 126 105 232z
M342 898q6 -18 17 -30q10 -12 25 -10q33 5 47 47q13 19 33 10q-7 -27 -32 -56q-14 -14 -32 -24q-18 -9 -41 -11h-1q-17 -1 -30 6q-15 6 -23 17q-18 23 -8 48t45 3z" />
    <glyph glyph-name="ebreve" unicode="&#x115;" 
d="M157 155q-6 -51 2 -90q9 -39 39 -46q32 -8 83 33q50 40 97 95q25 30 46 59q22 30 37 54q9 7 17 6q7 -1 14 -9q-17 -27 -39 -60q-23 -32 -50 -64q-50 -61 -109 -105q-49 -36 -95 -36q-9 0 -19 1q-47 9 -77 35t-45 64q-26 63 -13 146l3 15q18 93 70 165q23 32 49 50
q24 18 48 23q11 2 21 2q30 0 52 -22q29 -30 22 -85q-13 -87 -77 -134q-29 -22 -66 -38v-1q-6 -29 -10 -58zM228 282q48 47 57 97q8 50 -11 55q-17 4 -44 -45q-27 -50 -47 -117q-5 -15 -9 -30q32 18 54 40zM238 592q6 -18 17 -30q10 -12 25 -10q33 5 47 47q13 19 33 10
q-7 -27 -32 -56q-14 -14 -32 -24q-18 -9 -41 -11h-1q-17 -1 -30 6q-15 6 -23 17q-18 23 -8 48t45 3z" />
    <glyph glyph-name="Edotaccent" unicode="&#x116;" horiz-adv-x="364" 
d="M244 784q14 10 27 10q6 0 11 -2q18 -5 29 -16q16 -7 64 -6q49 1 88 6q7 0 9 -5l-1 -3q0 -3 -3 -6q-41 -17 -86 -20q-46 -2 -65 -7q-3 -4 -8 -21q-6 -16 -13 -40q-12 -46 -29 -114t-32 -137q-19 -86 -33 -155q-13 -69 -11 -79q7 -7 51 1q43 9 75 26q11 0 10 -11t-9 -19
q-35 -21 -73 -25q-39 -5 -52 -8q-5 -5 -6 -27q1 -22 4 -46q2 -19 8 -33q5 -15 11 -16q13 -1 58 14q44 15 76 29q2 -3 2 -8t-5 -11q-35 -19 -80 -36q-45 -18 -61 -21q-12 -2 -25 -2q-23 0 -49 6q-43 10 -53 34q-8 61 -7 128q2 66 12 135l3 20q19 117 58 233q44 126 105 232z
M402 851q-8 -18 -26 -26q-15 -7 -27 -7q-3 0 -6 1q-16 2 -15 19q2 17 -4 25q6 20 24 37q16 14 29 14h4q18 -3 23 -24q3 -13 1 -25q0 -7 -3 -14z" />
    <glyph glyph-name="edotaccent" unicode="&#x117;" 
d="M157 155q-6 -51 2 -90q9 -39 39 -46q32 -8 83 33q50 40 97 95q25 30 46 59q22 30 37 54q9 7 17 6q7 -1 14 -9q-17 -27 -39 -60q-23 -32 -50 -64q-50 -61 -109 -105q-49 -36 -95 -36q-9 0 -19 1q-47 9 -77 35t-45 64q-26 63 -13 146l3 15q18 93 70 165q23 32 49 50
q24 18 48 23q11 2 21 2q30 0 52 -22q29 -30 22 -85q-13 -87 -77 -134q-29 -22 -66 -38v-1q-6 -29 -10 -58zM228 282q48 47 57 97q8 50 -11 55q-17 4 -44 -45q-27 -50 -47 -117q-5 -15 -9 -30q32 18 54 40zM298 554q-8 -18 -26 -26q-15 -7 -27 -7q-3 0 -6 1q-16 2 -15 19
q2 17 -4 25q6 20 24 37q16 14 29 14h4q18 -3 23 -24q3 -13 1 -25q0 -7 -3 -14z" />
    <glyph glyph-name="Gcircumflex" unicode="&#x11c;" horiz-adv-x="455" 
d="M480 601q-2 -12 -14 -19q-12 -6 -17 7l8 72q6 48 -7 80q-6 15 -16 23q-11 9 -28 10q-33 1 -62 -43q-30 -43 -53 -112q-13 -37 -24 -80q-11 -42 -19 -86q-18 -101 -22 -201q-3 -99 13 -163q7 -34 22 -53t37 -19q13 1 29 40q15 40 28 92q16 63 26 121q11 58 10 61
q-9 2 -26 0t-31 -2q-25 -3 -21 13q2 17 25 22q35 6 68 3q32 -3 66 0q21 1 18 -15v-1q-3 -17 -22 -18q-13 -1 -31 0q-17 0 -23 -2q-1 -17 -8 -55q-8 -39 -18 -84q-17 -67 -38 -129q-19 -61 -36 -68q-11 -7 -33 -7q-4 0 -7 1q-28 1 -56 10q-14 4 -26 11q-13 7 -21 15
q-65 72 -79 173q-13 87 1 176q2 13 5 27q11 54 30 105q19 52 44 97q46 84 108 137q58 51 118 51h5q66 -2 78 -55q13 -52 -1 -135zM270 840q8 2 24 16q17 14 34 31q23 22 42 41t25 18q4 0 12 -14q10 -15 20 -35q14 -24 26 -47q14 -24 20 -29v-1q-2 -8 -18 -8q-16 1 -25 6
q-15 26 -22 52q-9 25 -15 31q-6 -3 -19 -36q-14 -32 -42 -58h-6q-15 -1 -37 7q-24 7 -22 19q0 4 3 7z" />
    <glyph glyph-name="gcircumflex" unicode="&#x11d;" horiz-adv-x="510" 
d="M506 253q7 5 15 4t16 -8q-65 -93 -127 -151q-51 -48 -92 -80l-1 -6q-13 -68 -32 -133q-18 -64 -43 -114q-24 -47 -57 -76q-31 -28 -71 -27h-2q-16 0 -26 8q-10 7 -14 20q-10 34 11 94q21 59 56 112q19 28 40 51q17 18 33 29q4 21 8 41q9 54 17 90q-12 -32 -30 -51
q-17 -19 -36 -25q-35 -13 -68 10q-34 24 -49 73q-7 26 -8 57q0 20 3 42q2 12 5 25q15 62 41 109t57 79q56 60 115 71q14 2 25 2q39 0 56 -29q0 -6 -4 -11t-11 -2q-20 15 -38 13q-18 -1 -35 -14q-31 -24 -57 -80q-25 -56 -39 -117q-20 -78 -19 -143q0 -64 28 -65q19 -1 40 47
q22 49 39 109q13 40 22 78q10 39 15 64q4 9 10 15q6 5 13 9q21 10 45 0q22 -9 23 -28q-5 -1 -9 -16q-5 -14 -10 -40q-8 -47 -18 -122q-9 -54 -18 -111q36 29 77 69q57 56 104 128zM181 -103q-21 -38 -36 -79q-21 -52 -29 -94q-9 -42 2 -42q26 1 46 70q20 68 35 153
q3 15 5 29q-11 -14 -23 -37zM182 561q8 2 24 16q17 14 34 31q23 22 42 41t25 18q4 0 12 -14q10 -15 20 -35q14 -24 26 -47q14 -24 20 -29v-1q-2 -8 -18 -8q-16 1 -25 6q-15 26 -22 52q-9 25 -15 31q-6 -3 -19 -36q-14 -32 -42 -58h-6q-15 -1 -37 7q-24 7 -22 19q0 4 3 7z
" />
    <glyph glyph-name="Gbreve" unicode="&#x11e;" horiz-adv-x="455" 
d="M480 601q-2 -12 -14 -19q-12 -6 -17 7l8 72q6 48 -7 80q-6 15 -16 23q-11 9 -28 10q-33 1 -62 -43q-30 -43 -53 -112q-13 -37 -24 -80q-11 -42 -19 -86q-18 -101 -22 -201q-3 -99 13 -163q7 -34 22 -53t37 -19q13 1 29 40q15 40 28 92q16 63 26 121q11 58 10 61
q-9 2 -26 0t-31 -2q-25 -3 -21 13q2 17 25 22q35 6 68 3q32 -3 66 0q21 1 18 -15v-1q-3 -17 -22 -18q-13 -1 -31 0q-17 0 -23 -2q-1 -17 -8 -55q-8 -39 -18 -84q-17 -67 -38 -129q-19 -61 -36 -68q-11 -7 -33 -7q-4 0 -7 1q-28 1 -56 10q-14 4 -26 11q-13 7 -21 15
q-65 72 -79 173q-13 87 1 176q2 13 5 27q11 54 30 105q19 52 44 97q46 84 108 137q58 51 118 51h5q66 -2 78 -55q13 -52 -1 -135zM364 896q6 -18 17 -30q10 -12 25 -10q33 5 47 47q13 19 33 10q-7 -27 -32 -56q-14 -14 -32 -24q-18 -9 -41 -11h-1q-17 -1 -30 6q-15 6 -23 17
q-18 23 -8 48t45 3z" />
    <glyph glyph-name="gbreve" unicode="&#x11f;" horiz-adv-x="510" 
d="M506 253q7 5 15 4t16 -8q-65 -93 -127 -151q-51 -48 -92 -80l-1 -6q-13 -68 -32 -133q-18 -64 -43 -114q-24 -47 -57 -76q-31 -28 -71 -27h-2q-16 0 -26 8q-10 7 -14 20q-10 34 11 94q21 59 56 112q19 28 40 51q17 18 33 29q4 21 8 41q9 54 17 90q-12 -32 -30 -51
q-17 -19 -36 -25q-35 -13 -68 10q-34 24 -49 73q-7 26 -8 57q0 20 3 42q2 12 5 25q15 62 41 109t57 79q56 60 115 71q14 2 25 2q39 0 56 -29q0 -6 -4 -11t-11 -2q-20 15 -38 13q-18 -1 -35 -14q-31 -24 -57 -80q-25 -56 -39 -117q-20 -78 -19 -143q0 -64 28 -65q19 -1 40 47
q22 49 39 109q13 40 22 78q10 39 15 64q4 9 10 15q6 5 13 9q21 10 45 0q22 -9 23 -28q-5 -1 -9 -16q-5 -14 -10 -40q-8 -47 -18 -122q-9 -54 -18 -111q36 29 77 69q57 56 104 128zM181 -103q-21 -38 -36 -79q-21 -52 -29 -94q-9 -42 2 -42q26 1 46 70q20 68 35 153
q3 15 5 29q-11 -14 -23 -37zM261 609q6 -18 17 -30q10 -12 25 -10q33 5 47 47q13 19 33 10q-7 -27 -32 -56q-14 -14 -32 -24q-18 -9 -41 -11h-1q-17 -1 -30 6q-15 6 -23 17q-18 23 -8 48t45 3z" />
    <glyph glyph-name="Gdotaccent" unicode="&#x120;" horiz-adv-x="455" 
d="M480 601q-2 -12 -14 -19q-12 -6 -17 7l8 72q6 48 -7 80q-6 15 -16 23q-11 9 -28 10q-33 1 -62 -43q-30 -43 -53 -112q-13 -37 -24 -80q-11 -42 -19 -86q-18 -101 -22 -201q-3 -99 13 -163q7 -34 22 -53t37 -19q13 1 29 40q15 40 28 92q16 63 26 121q11 58 10 61
q-9 2 -26 0t-31 -2q-25 -3 -21 13q2 17 25 22q35 6 68 3q32 -3 66 0q21 1 18 -15v-1q-3 -17 -22 -18q-13 -1 -31 0q-17 0 -23 -2q-1 -17 -8 -55q-8 -39 -18 -84q-17 -67 -38 -129q-19 -61 -36 -68q-11 -7 -33 -7q-4 0 -7 1q-28 1 -56 10q-14 4 -26 11q-13 7 -21 15
q-65 72 -79 173q-13 87 1 176q2 13 5 27q11 54 30 105q19 52 44 97q46 84 108 137q58 51 118 51h5q66 -2 78 -55q13 -52 -1 -135zM432 869q-8 -18 -26 -26q-15 -7 -27 -7q-3 0 -6 1q-16 2 -15 19q2 17 -4 25q6 20 24 37q16 14 29 14h4q18 -3 23 -24q3 -13 1 -25q0 -7 -3 -14
z" />
    <glyph glyph-name="gdotaccent" unicode="&#x121;" horiz-adv-x="510" 
d="M506 253q7 5 15 4t16 -8q-65 -93 -127 -151q-51 -48 -92 -80l-1 -6q-13 -68 -32 -133q-18 -64 -43 -114q-24 -47 -57 -76q-31 -28 -71 -27h-2q-16 0 -26 8q-10 7 -14 20q-10 34 11 94q21 59 56 112q19 28 40 51q17 18 33 29q4 21 8 41q9 54 17 90q-12 -32 -30 -51
q-17 -19 -36 -25q-35 -13 -68 10q-34 24 -49 73q-7 26 -8 57q0 20 3 42q2 12 5 25q15 62 41 109t57 79q56 60 115 71q14 2 25 2q39 0 56 -29q0 -6 -4 -11t-11 -2q-20 15 -38 13q-18 -1 -35 -14q-31 -24 -57 -80q-25 -56 -39 -117q-20 -78 -19 -143q0 -64 28 -65q19 -1 40 47
q22 49 39 109q13 40 22 78q10 39 15 64q4 9 10 15q6 5 13 9q21 10 45 0q22 -9 23 -28q-5 -1 -9 -16q-5 -14 -10 -40q-8 -47 -18 -122q-9 -54 -18 -111q36 29 77 69q57 56 104 128zM181 -103q-21 -38 -36 -79q-21 -52 -29 -94q-9 -42 2 -42q26 1 46 70q20 68 35 153
q3 15 5 29q-11 -14 -23 -37zM325 559q-8 -18 -26 -26q-15 -7 -27 -7q-3 0 -6 1q-16 2 -15 19q2 17 -4 25q6 20 24 37q16 14 29 14h4q18 -3 23 -24q3 -13 1 -25q0 -7 -3 -14z" />
    <glyph glyph-name="Hcircumflex" unicode="&#x124;" horiz-adv-x="435" 
d="M483 775q9 11 23 10q6 0 13 -1q21 -6 18 -22v-4q-22 -69 -43 -151q-21 -81 -39 -162q-21 -98 -36 -187q-15 -88 -21 -147q-4 -32 -4 -53q-2 -21 1 -27q-9 -14 -29 -17h-4q-17 0 -25 21q4 64 12 125q3 29 8 59l2 14q-42 -10 -84 -11q-37 -2 -73 -5q-5 -94 -1 -180
q-2 -17 -37 -34q-23 -11 -42 -11q-10 0 -19 3t-15 10q-7 7 -9 19q-11 55 -12 111t5 109q2 27 7 53q11 71 31 137q28 89 56 158q24 57 42 96q19 40 22 56q11 13 26 13q9 0 20 -6q26 -15 23 -46q-66 -184 -85 -353q-7 -59 -11 -114q36 3 72 5q44 2 88 10l5 28q22 113 52 232
q30 118 63 262zM289 841q8 2 24 16q17 14 34 31q23 22 42 41t25 18q4 0 12 -14q10 -15 20 -35q14 -24 26 -47q14 -24 20 -29v-1q-2 -8 -18 -8q-16 1 -25 6q-15 26 -22 52q-9 25 -15 31q-6 -3 -19 -36q-14 -32 -42 -58h-6q-15 -1 -37 7q-24 7 -22 19q0 4 3 7z" />
    <glyph glyph-name="hcircumflex" unicode="&#x125;" horiz-adv-x="518" 
d="M199 732q10 -6 13 -41q1 -35 -2 -85q-1 -27 -3 -56q-3 -30 -7 -59q-5 -55 -11 -104q-7 -48 -9 -72q9 23 36 62q26 38 59 66q17 15 34 24q19 9 35 8q18 -1 26 -15q9 -13 12 -36q4 -41 -8 -105t-28 -129q-22 -81 -40 -145q-18 -63 -8 -66q19 -6 57 39q39 45 78 101
q25 37 48 71q21 34 33 54q9 5 17 4q7 -2 16 -7q-14 -21 -37 -58q-22 -37 -50 -78q-43 -61 -89 -110q-41 -41 -72 -41q-6 0 -11 1q-49 12 -50 78q-3 67 15 147q7 34 17 68q9 35 19 66q17 58 30 97q12 39 5 40q-17 1 -46 -28q-27 -29 -53 -66q-14 -21 -27 -41q-13 -21 -20 -38
q-7 -37 -16 -81q-8 -44 -17 -78q-4 -17 -8 -30t-7 -18q-24 -32 -55 -31t-45 47q2 25 7 58q5 29 13 65q15 75 33 156l20 84q8 42 16 79q15 70 22 120q7 49 -3 58q13 26 30 29q4 1 9 1q12 -1 22 -5zM231 790q8 2 24 16q17 14 34 31q23 22 42 41t25 18q4 0 12 -14
q10 -15 20 -35q14 -24 26 -47q14 -24 20 -29v-1q-2 -8 -18 -8q-16 1 -25 6q-15 26 -22 52q-9 25 -15 31q-6 -3 -19 -36q-14 -32 -42 -58h-6q-15 -1 -37 7q-24 7 -22 19q0 4 3 7z" />
    <glyph glyph-name="Itilde" unicode="&#x128;" horiz-adv-x="304" 
d="M340 779q12 0 8 -7t-10 -12q-29 -1 -47 1q-19 2 -24 0v-138q1 -66 1 -130q-2 -118 -12 -231t-41 -235q10 0 28 -3q20 -3 43 -6q6 -2 5 -7q0 -1 -1 -2q-3 -6 -10 -9q-94 6 -142 11q-49 5 -102 -1q-3 4 -2 10q0 5 5 9q16 0 32 2q17 2 33 0q8 75 19 152l25 154
q24 140 44 256q22 116 25 168q-14 -1 -35 0t-44 1q-5 3 -4 8t7 10q22 1 43 1q39 0 73 -1q53 -1 83 -1zM140 877l1 5q3 19 16 45q16 30 45 34q2 1 4 1q10 0 23 -7q16 -7 33 -18q25 -17 47 -34q23 -16 31 -12q13 6 4 20q-8 13 -14 18q-1 11 17 20q19 9 32 6q14 -8 21 -23
q6 -16 7 -34q1 -13 -2 -26q-2 -14 -7 -28q-10 -26 -32 -33q-12 -5 -23 -5q-7 0 -13 2q-18 3 -34 14q-22 15 -42 39q-18 24 -31 40q-8 9 -14 14q-5 5 -9 5q-13 -3 -23 -19q-11 -15 0 -22q-4 -16 -19 -16q-14 1 -18 14z" />
    <glyph glyph-name="itilde" unicode="&#x129;" horiz-adv-x="347" 
 />
    <glyph glyph-name="Ibreve" unicode="&#x12c;" horiz-adv-x="304" 
d="M340 779q12 0 8 -7t-10 -12q-29 -1 -47 1q-19 2 -24 0v-138q1 -66 1 -130q-2 -118 -12 -231t-41 -235q10 0 28 -3q20 -3 43 -6q6 -2 5 -7q0 -1 -1 -2q-3 -6 -10 -9q-94 6 -142 11q-49 5 -102 -1q-3 4 -2 10q0 5 5 9q16 0 32 2q17 2 33 0q8 75 19 152l25 154
q24 140 44 256q22 116 25 168q-14 -1 -35 0t-44 1q-5 3 -4 8t7 10q22 1 43 1q39 0 73 -1q53 -1 83 -1zM218 882q6 -18 17 -30q10 -12 25 -10q33 5 47 47q13 19 33 10q-7 -27 -32 -56q-14 -14 -32 -24q-18 -9 -41 -11h-1q-17 -1 -30 6q-15 6 -23 17q-18 23 -8 48t45 3z" />
    <glyph glyph-name="ibreve" unicode="&#x12d;" horiz-adv-x="347" 
 />
    <glyph glyph-name="Idotaccent" unicode="&#x130;" horiz-adv-x="304" 
d="M340 779q12 0 8 -7t-10 -12q-29 -1 -47 1q-19 2 -24 0v-138q1 -66 1 -130q-2 -118 -12 -231t-41 -235q10 0 28 -3q20 -3 43 -6q6 -2 5 -7q0 -1 -1 -2q-3 -6 -10 -9q-94 6 -142 11q-49 5 -102 -1q-3 4 -2 10q0 5 5 9q16 0 32 2q17 2 33 0q8 75 19 152l25 154
q24 140 44 256q22 116 25 168q-14 -1 -35 0t-44 1q-5 3 -4 8t7 10q22 1 43 1q39 0 73 -1q53 -1 83 -1zM332 895q-8 -18 -26 -26q-15 -7 -27 -7q-3 0 -6 1q-16 2 -15 19q2 17 -4 25q6 20 24 37q16 14 29 14h4q18 -3 23 -24q3 -13 1 -25q0 -7 -3 -14z" />
    <glyph glyph-name="Jcircumflex" unicode="&#x134;" horiz-adv-x="427" 
d="M79 322q4 17 20 9q16 -7 15 -25q-5 -14 -19 -57q-14 -44 -20 -90q-5 -32 -4 -60q2 -29 14 -46q10 -15 28 -20q19 -5 49 5q12 4 25 24t26 52q22 59 42 150q21 91 39 190q15 82 30 162q14 80 27 145q-18 1 -60 -1q-42 -1 -63 -4q-4 4 -7 13q-2 9 14 11q36 1 73 1
q43 0 88 -1q83 -2 118 -4q16 1 14 -6v-1q-2 -9 -14 -13q-33 1 -66 3q-34 2 -52 2q4 -47 5 -107q2 -60 -1 -126q-5 -124 -31 -250q-27 -127 -93 -208q-14 -18 -33 -30q-20 -13 -40 -21q-41 -16 -79 -18h-13q-27 0 -39 7q-13 9 -20 27q-6 19 -8 45q-3 45 7 106l1 8
q12 65 27 128zM283 837q8 2 24 16q17 14 34 31q23 22 42 41t25 18q4 0 12 -14q10 -15 20 -35q14 -24 26 -47q14 -24 20 -29v-1q-2 -8 -18 -8q-16 1 -25 6q-15 26 -22 52q-9 25 -15 31q-6 -3 -19 -36q-14 -32 -42 -58h-6q-15 -1 -37 7q-24 7 -22 19q0 4 3 7z" />
    <glyph glyph-name="jcircumflex" unicode="&#x135;" horiz-adv-x="425" 
 />
    <glyph glyph-name="Obreve" unicode="&#x14e;" horiz-adv-x="481" 
d="M251 -2h-5q-57 0 -91 21q-38 22 -57 58q-14 24 -19 53q-6 28 -8 60q-3 58 7 121v11q10 57 21 106q11 51 27 100q16 48 36 90q39 78 99 125q51 38 122 38q16 0 32 -1q22 -3 40 -21q19 -18 32 -47q27 -55 35 -140q10 -85 -3 -173l-1 -7q-7 -44 -21 -90q-14 -50 -33 -96
q-36 -86 -91 -146q-55 -61 -122 -62zM469 402q1 1 2 3q4 34 6 73q3 41 0 83q-3 76 -18 136q-17 60 -45 63h-4q-33 0 -72 -53q-40 -57 -72 -134q-17 -42 -30 -85q-14 -43 -21 -82q-3 -14 -6 -30q-3 -22 -6 -47q-5 -43 -7 -88q-3 -82 9 -149q13 -67 55 -70h8q53 -1 92 59
q41 64 69 148q14 45 24 90t16 83zM380 876q6 -18 17 -30q10 -12 25 -10q33 5 47 47q13 19 33 10q-7 -27 -32 -56q-14 -14 -32 -24q-18 -9 -41 -11h-1q-17 -1 -30 6q-15 6 -23 17q-18 23 -8 48t45 3z" />
    <glyph glyph-name="obreve" unicode="&#x14f;" horiz-adv-x="507" 
d="M311 453q11 -4 3 -9t-15 -3q-40 14 -74 -21q-34 -36 -56 -90q-13 -29 -21 -60q-9 -31 -12 -60q-4 -21 -5 -46q0 -24 2 -47q4 -44 20 -76q17 -32 51 -31q15 1 32 11q16 10 32 27q24 25 45 65q-27 9 -51 36q-26 29 -43 65q-25 56 -23 114q3 58 45 81q72 38 109 -5
q38 -42 28 -165q-4 -54 -22 -102q6 0 12 1q19 4 36 13q34 16 62 45t40 50q10 3 18 2q8 0 15 -3q-19 -33 -54 -69q-33 -35 -74 -54q-23 -11 -45 -14q-12 -2 -23 -1q-22 -48 -54 -79q-20 -19 -44 -29q-22 -11 -47 -11h-1q-93 0 -132 61q-37 61 -20 171l1 1q13 87 55 149t95 86
q28 12 58 12q29 0 57 -15zM348 235q2 67 -31 97q-33 29 -66 12q-17 -8 -10 -49q7 -40 26 -81q13 -27 30 -47q15 -19 30 -25q18 44 21 93zM233 576q6 -18 17 -30q10 -12 25 -10q33 5 47 47q13 19 33 10q-7 -27 -32 -56q-14 -14 -32 -24q-18 -9 -41 -11h-1q-17 -1 -30 6
q-15 6 -23 17q-18 23 -8 48t45 3z" />
    <glyph glyph-name="Scircumflex" unicode="&#x15c;" horiz-adv-x="436" 
d="M518 618q-14 -21 -32 -21q-18 -1 -18 22q10 25 12 58q2 34 -12 57q-7 13 -21 20q-13 8 -33 7q-21 0 -39 -8q-20 -9 -36 -23q-30 -25 -50 -62t-26 -66q-3 -21 0 -42q5 -21 15 -42q18 -40 48 -84q31 -43 56 -92q19 -41 29 -86q9 -46 -2 -98q-6 -28 -21 -52t-34 -44
q-37 -36 -85 -55q-47 -18 -88 -19q-2 0 -3 1q-82 1 -113 59q-21 38 -12 97q5 31 18 67q34 30 56 15q23 -16 4 -48q-18 -32 -21 -71q-4 -39 13 -66q9 -15 24 -24q16 -8 38 -9q19 0 37 8q17 8 32 22q29 25 46 62q19 37 26 66q6 24 1 47q-3 24 -13 47q-18 44 -50 88t-57 91
q-22 39 -32 81t1 88q21 87 94 131q72 43 147 43q68 0 94 -53q21 -41 13 -86q-2 -13 -6 -26zM291 835q8 2 24 16q17 14 34 31q23 22 42 41t25 18q4 0 12 -14q10 -15 20 -35q14 -24 26 -47q14 -24 20 -29v-1q-2 -8 -18 -8q-16 1 -25 6q-15 26 -22 52q-9 25 -15 31
q-6 -3 -19 -36q-14 -32 -42 -58h-6q-15 -1 -37 7q-24 7 -22 19q0 4 3 7z" />
    <glyph glyph-name="scircumflex" unicode="&#x15d;" horiz-adv-x="428" 
d="M249 396q-5 -9 -23 -14q-19 -5 -22 10q3 24 1 39q-3 15 -10 22q-15 17 -41 -2q-25 -18 -28 -59q-1 -16 6 -30t18 -27q22 -23 56 -44q32 -21 63 -48q25 -22 41 -50q6 -9 9 -20l14 8q57 30 91 81q9 3 16 3t15 -6q-13 -22 -31 -40q-17 -17 -37 -32q-30 -23 -60 -41
q1 -10 1 -21q1 -35 -11 -67q-11 -32 -31 -59q-15 -22 -34 -40q-20 -18 -41 -30q-39 -24 -77 -26h-6q-35 0 -57 25q-19 23 3 54q20 30 61 64q22 18 46 36l22 15v19q-3 36 -40 75q-36 38 -67 82q-17 23 -27 49q-10 25 -7 53l1 6q3 17 11 31q10 18 26 31q28 25 65 32q10 3 20 3
q23 0 41 -13q12 -10 19 -27q6 -16 4 -42zM160 28q-39 -31 -60 -54q-11 -12 -15 -22q-5 -9 1 -14q11 -12 37 10q27 23 49 60q12 21 20 46zM69 547q8 2 24 16q17 14 34 31q23 22 42 41t25 18q4 0 12 -14q10 -15 20 -35q14 -24 26 -47q14 -24 20 -29v-1q-2 -8 -18 -8
q-16 1 -25 6q-15 26 -22 52q-9 25 -15 31q-6 -3 -19 -36q-14 -32 -42 -58h-6q-15 -1 -37 7q-24 7 -22 19q0 4 3 7z" />
    <glyph glyph-name="Utilde" unicode="&#x168;" horiz-adv-x="515" 
d="M478 -4q-10 -12 -25 -12q-9 0 -21 5q-30 14 -25 29q-1 14 -2 33q-2 20 -3 42q-1 41 0 85q0 45 5 75q-8 -15 -37 -66q-30 -52 -69 -98q-26 -31 -54 -52q-27 -21 -53 -19q-22 1 -40 14q-17 13 -30 35q-21 41 -28 108q-5 67 -2 143q3 51 8 103t12 101q11 90 23 159
q11 69 10 88q12 23 35 28q8 1 16 1q14 0 27 -5q14 -5 25 -15q11 -11 15 -24q3 -57 -7 -147q-10 -89 -26 -184q-13 -92 -27 -178q-13 -85 -16 -138q-1 -28 1 -45q3 -16 11 -17q24 -1 68 48q45 49 82 108q26 39 44 75q18 35 21 56q3 12 8 37q5 26 12 58q13 62 31 138
q18 77 42 140q10 23 41 23q31 1 42 -28q-48 -182 -81 -312t-43 -224q-5 -50 -3 -92q2 -41 13 -76zM261 830l1 5q3 19 16 45q16 30 45 34q2 1 4 1q10 0 23 -7q16 -7 33 -18q25 -17 47 -34q23 -16 31 -12q13 6 4 20q-8 13 -14 18q-1 11 17 20q19 9 32 6q14 -8 21 -23
q6 -16 7 -34q1 -13 -2 -26q-2 -14 -7 -28q-10 -26 -32 -33q-12 -5 -23 -5q-7 0 -13 2q-18 3 -34 14q-22 15 -42 39q-18 24 -31 40q-8 9 -14 14q-5 5 -9 5q-13 -3 -23 -19q-11 -15 0 -22q-4 -16 -19 -16q-14 1 -18 14z" />
    <glyph glyph-name="utilde" unicode="&#x169;" horiz-adv-x="555" 
d="M80 436q12 25 32 25h3q22 -3 41 -26q10 -12 18 -30t11 -40q-3 -26 -12 -67q-10 -41 -20 -85q-15 -65 -22 -120q-7 -54 17 -55q25 0 63 62t69 142q17 43 28 86q12 42 17 78q8 22 45 16q37 -7 34 -37q-6 -27 -19 -74q-14 -48 -28 -101q-8 -27 -14 -55q-6 -27 -11 -52
q-10 -47 -11 -79q0 -32 15 -36q17 -3 57 43q41 47 81 102q25 37 47 69q23 33 32 50q9 2 17 1q8 0 15 -6q-4 -7 -13 -20q-8 -13 -19 -31q-21 -33 -50 -76t-61 -80q-32 -38 -63 -62q-25 -20 -45 -20q-5 0 -9 1q-23 6 -35 23q-13 17 -18 39q-11 42 -3 90q7 48 10 71
q-7 -13 -24 -49q-19 -37 -44 -69q-18 -22 -36 -37q-18 -14 -35 -14q-36 1 -57 17q-19 16 -29 43q-10 28 -10 64q0 37 5 76q9 71 25 137q15 65 6 86zM102 544l1 5q3 19 16 45q16 30 45 34q2 1 4 1q10 0 23 -7q16 -7 33 -18q25 -17 47 -34q23 -16 31 -12q13 6 4 20
q-8 13 -14 18q-1 11 17 20q19 9 32 6q14 -8 21 -23q6 -16 7 -34q1 -13 -2 -26q-2 -14 -7 -28q-10 -26 -32 -33q-12 -5 -23 -5q-7 0 -13 2q-18 3 -34 14q-22 15 -42 39q-18 24 -31 40q-8 9 -14 14q-5 5 -9 5q-13 -3 -23 -19q-11 -15 0 -22q-4 -16 -19 -16q-14 1 -18 14z" />
    <glyph glyph-name="Ubreve" unicode="&#x16c;" horiz-adv-x="515" 
d="M478 -4q-10 -12 -25 -12q-9 0 -21 5q-30 14 -25 29q-1 14 -2 33q-2 20 -3 42q-1 41 0 85q0 45 5 75q-8 -15 -37 -66q-30 -52 -69 -98q-26 -31 -54 -52q-27 -21 -53 -19q-22 1 -40 14q-17 13 -30 35q-21 41 -28 108q-5 67 -2 143q3 51 8 103t12 101q11 90 23 159
q11 69 10 88q12 23 35 28q8 1 16 1q14 0 27 -5q14 -5 25 -15q11 -11 15 -24q3 -57 -7 -147q-10 -89 -26 -184q-13 -92 -27 -178q-13 -85 -16 -138q-1 -28 1 -45q3 -16 11 -17q24 -1 68 48q45 49 82 108q26 39 44 75q18 35 21 56q3 12 8 37q5 26 12 58q13 62 31 138
q18 77 42 140q10 23 41 23q31 1 42 -28q-48 -182 -81 -312t-43 -224q-5 -50 -3 -92q2 -41 13 -76zM348 840q6 -18 17 -30q10 -12 25 -10q33 5 47 47q13 19 33 10q-7 -27 -32 -56q-14 -14 -32 -24q-18 -9 -41 -11h-1q-17 -1 -30 6q-15 6 -23 17q-18 23 -8 48t45 3z" />
    <glyph glyph-name="ubreve" unicode="&#x16d;" horiz-adv-x="555" 
d="M80 436q12 25 32 25h3q22 -3 41 -26q10 -12 18 -30t11 -40q-3 -26 -12 -67q-10 -41 -20 -85q-15 -65 -22 -120q-7 -54 17 -55q25 0 63 62t69 142q17 43 28 86q12 42 17 78q8 22 45 16q37 -7 34 -37q-6 -27 -19 -74q-14 -48 -28 -101q-8 -27 -14 -55q-6 -27 -11 -52
q-10 -47 -11 -79q0 -32 15 -36q17 -3 57 43q41 47 81 102q25 37 47 69q23 33 32 50q9 2 17 1q8 0 15 -6q-4 -7 -13 -20q-8 -13 -19 -31q-21 -33 -50 -76t-61 -80q-32 -38 -63 -62q-25 -20 -45 -20q-5 0 -9 1q-23 6 -35 23q-13 17 -18 39q-11 42 -3 90q7 48 10 71
q-7 -13 -24 -49q-19 -37 -44 -69q-18 -22 -36 -37q-18 -14 -35 -14q-36 1 -57 17q-19 16 -29 43q-10 28 -10 64q0 37 5 76q9 71 25 137q15 65 6 86zM256 566q6 -18 17 -30q10 -12 25 -10q33 5 47 47q13 19 33 10q-7 -27 -32 -56q-14 -14 -32 -24q-18 -9 -41 -11h-1
q-17 -1 -30 6q-15 6 -23 17q-18 23 -8 48t45 3z" />
    <glyph glyph-name="Wcircumflex" unicode="&#x174;" horiz-adv-x="686" 
d="M141 785q15 28 52 28h1q37 0 58 -22q8 -8 11 -18t2 -22q-28 -82 -45 -163q-18 -81 -28 -155q-19 -136 -20 -228q0 -92 1 -92q5 0 11 10t13 29q12 34 30 91t40 119q22 65 48 127q27 63 57 106q12 18 38 23q28 6 45 -8q8 -6 11 -17q5 -10 2 -25q-9 -48 -18 -119
q-9 -70 -15 -143q-2 -38 -4 -74q-1 -37 0 -70q1 -60 9 -99q9 -40 28 -39q5 1 10 26q4 25 13 70q15 84 52 229q36 145 119 327q4 9 12 16q7 8 16 13q35 21 73 12q32 -8 28 -28q-1 -5 -4 -10q-18 -26 -42 -88q-23 -62 -49 -138q-14 -42 -28 -85t-29 -85q-27 -81 -52 -149
t-46 -101q-22 -30 -55 -38q-10 -2 -18 -3q-20 0 -30 15q-28 39 -35 104q-7 66 -4 136q3 69 12 133t14 106l6 35q1 13 0 15q-1 0 -5 -11q-6 -11 -14 -30q-14 -34 -37 -88q-22 -54 -45 -111q-24 -58 -45 -109t-32 -76q-6 -12 -15 -21q-10 -10 -22 -17q-36 -23 -76 -23
q-40 -1 -44 24q-7 37 -3 119q4 83 13 178q5 51 10 101q6 51 11 97q9 87 14 148t0 68zM364 835q8 2 24 16q17 14 34 31q23 22 42 41t25 18q4 0 12 -14q10 -15 20 -35q14 -24 26 -47q14 -24 20 -29v-1q-2 -8 -18 -8q-16 1 -25 6q-15 26 -22 52q-9 25 -15 31q-6 -3 -19 -36
q-14 -32 -42 -58h-6q-15 -1 -37 7q-24 7 -22 19q0 4 3 7z" />
    <glyph glyph-name="wcircumflex" unicode="&#x175;" horiz-adv-x="720" 
d="M325 -24q-16 3 -29 12t-22 23q-17 24 -23 57q-7 32 -2 56q-20 -35 -71 -72q-50 -36 -92 -30q-35 6 -39 62q-3 55 7 127l3 17q7 47 17 94q12 56 20 94l6 33q2 12 -1 15q4 9 11 14q7 6 14 8q9 4 18 4q14 -1 29 -8q24 -12 28 -30q-4 -39 -16 -86q-11 -47 -25 -94
q-26 -88 -46 -157q-21 -70 -4 -72q26 -4 73 37q49 41 72 95q15 42 26 85q11 42 21 63q13 18 50 13t42 -31q-9 -28 -20 -68t-22 -81q-15 -61 -23 -111q-8 -49 6 -52q16 -3 30 5t27 24q24 29 41 79q18 50 32 104q17 69 26 128q11 60 15 78q13 42 44 29q30 -13 24 -61
q-4 -32 8 -70q13 -39 35 -66q11 -14 24 -24q14 -9 28 -10q12 -1 26 7q13 8 26 27q9 3 18 3q11 1 14 -5q-25 -35 -48 -50t-44 -15q-14 -1 -27 5q-12 5 -24 14q-25 20 -41 49q-15 26 -16 34q-3 -31 -13 -68q-10 -38 -26 -75q-29 -69 -77 -119q-39 -41 -88 -41q-11 0 -22 1z
M260 522q8 2 24 16q17 14 34 31q23 22 42 41t25 18q4 0 12 -14q10 -15 20 -35q14 -24 26 -47q14 -24 20 -29v-1q-2 -8 -18 -8q-16 1 -25 6q-15 26 -22 52q-9 25 -15 31q-6 -3 -19 -36q-14 -32 -42 -58h-6q-15 -1 -37 7q-24 7 -22 19q0 4 3 7z" />
    <glyph glyph-name="ycircumflex" unicode="&#x177;" horiz-adv-x="506" 
d="M513 252q8 4 17 5q8 1 15 -9q-35 -50 -69 -90q-35 -39 -67 -70q-48 -45 -87 -74q-13 -63 -30 -127q-26 -96 -65 -156q-22 -33 -48 -51t-57 -18h-2q-16 1 -26 8q-9 8 -13 21q-11 34 10 94q22 59 56 111q20 29 40 51q22 23 42 35q3 2 6 5l14 70q10 59 15 94
q-19 -55 -51 -91t-66 -36q-72 0 -85 96q-11 72 11 214q8 48 19 104q11 30 47 38q5 1 10 1q29 1 40 -36q-13 -37 -27 -89q-15 -52 -25 -105q-16 -79 -15 -141t41 -61q24 1 56 57t57 126q16 47 27 92q12 46 15 78q4 13 9 21q6 8 14 11q16 8 33 -3q17 -12 18 -29q-9 -2 -17 -45
q-8 -44 -17 -111q-5 -36 -10 -77l-14 -85q-2 -14 -5 -28q38 31 81 73q57 55 103 127zM189 -103q-20 -37 -36 -79q-20 -51 -29 -93t3 -42q9 0 18 11q10 11 19 30q16 35 33 93q15 57 28 118l4 15l-2 -1q-18 -14 -38 -52zM188 536q8 2 24 16q17 14 34 31q23 22 42 41t25 18
q4 0 12 -14q10 -15 20 -35q14 -24 26 -47q14 -24 20 -29v-1q-2 -8 -18 -8q-16 1 -25 6q-15 26 -22 52q-9 25 -15 31q-6 -3 -19 -36q-14 -32 -42 -58h-6q-15 -1 -37 7q-24 7 -22 19q0 4 3 7z" />
    <glyph glyph-name="Ycircumflex" unicode="&#x176;" horiz-adv-x="419" 
d="M274 -29q-6 -6 -20 -6q-16 0 -43 8q-47 16 -37 45q24 -4 49 42t49 109q18 50 33 101q15 52 26 90q5 20 9 35q3 14 4 20q-8 -16 -30 -47t-65 -31q-37 1 -60 38q-24 37 -38 91q-12 53 -17 113q-4 60 -3 109q2 26 4 46l2 14q2 12 4 20q18 29 51 39q10 3 18 3q16 0 18 -14
q-3 -41 -5 -97q-2 -57 -2 -114q0 -87 8 -155t28 -69q28 -1 59 39q30 39 38 71q6 16 20 56q15 40 34 86q10 25 19 49q11 25 21 46q14 30 44 34q29 3 29 -24q-22 -42 -45 -121q-23 -80 -46 -173q-12 -49 -25 -98q-13 -50 -26 -97q-24 -88 -50 -158t-55 -100zM255 846
q8 2 24 16q17 14 34 31q23 22 42 41t25 18q4 0 12 -14q10 -15 20 -35q14 -24 26 -47q14 -24 20 -29v-1q-2 -8 -18 -8q-16 1 -25 6q-15 26 -22 52q-9 25 -15 31q-6 -3 -19 -36q-14 -32 -42 -58h-6q-15 -1 -37 7q-24 7 -22 19q0 4 3 7z" />
    <glyph glyph-name="Ydieresis" unicode="&#x178;" horiz-adv-x="419" 
d="M274 -29q-6 -6 -20 -6q-16 0 -43 8q-47 16 -37 45q24 -4 49 42t49 109q18 50 33 101q15 52 26 90q5 20 9 35q3 14 4 20q-8 -16 -30 -47t-65 -31q-37 1 -60 38q-24 37 -38 91q-12 53 -17 113q-4 60 -3 109q2 26 4 46l2 14q2 12 4 20q18 29 51 39q10 3 18 3q16 0 18 -14
q-3 -41 -5 -97q-2 -57 -2 -114q0 -87 8 -155t28 -69q28 -1 59 39q30 39 38 71q6 16 20 56q15 40 34 86q10 25 19 49q11 25 21 46q14 30 44 34q29 3 29 -24q-22 -42 -45 -121q-23 -80 -46 -173q-12 -49 -25 -98q-13 -50 -26 -97q-24 -88 -50 -158t-55 -100zM420 905h4
q13 0 23 -14q14 -17 14 -37q-9 -8 -12 -25q-4 -17 -21 -19q-4 -1 -7 -1q-12 0 -24 7q-16 8 -18 26q-1 7 0 14q2 12 10 25q12 21 31 24zM257 846l1 3q2 13 17 28q17 18 36 17q2 -13 17 -17q15 -5 14 -21v-2q-3 -14 -13 -29q-12 -17 -29 -19h-4q-16 0 -27 13q-12 14 -12 27z
" />
    </font>
</defs>
</svg>
