<?xml version="1.0" encoding="utf-8"?>
<!-- Generator: Adobe Illustrator 19.1.0, SVG Export Plug-In . SVG Version: 6.00 Build 0)  -->
<!DOCTYPE svg PUBLIC "-//W3C//DTD SVG 1.1//EN" "http://www.w3.org/Graphics/SVG/1.1/DTD/svg11.dtd">
<svg version="1.1" id="Layer_1" xmlns="http://www.w3.org/2000/svg" xmlns:xlink="http://www.w3.org/1999/xlink" x="0px" y="0px"
	 viewBox="0 0 100 100" style="enable-background:new 0 0 100 100;" xml:space="preserve">
<style type="text/css">
	.st0{clip-path:url(#SVGID_2_);}
	.st1{fill:#98D2C3;}
	.st2{fill:#FFFFFF;}
</style>
<g>
	<defs>
		<rect id="SVGID_1_" x="-271.7" y="-1576.3" width="650" height="2399.2"/>
	</defs>
	<clipPath id="SVGID_2_">
		<use xlink:href="#SVGID_1_"  style="overflow:visible;"/>
	</clipPath>
	<g class="st0">
		<path class="st1" d="M93,50.6c0,23.8-19.3,43-43,43c-23.8,0-43-19.3-43-43c0-23.8,19.3-43,43-43C73.8,7.6,93,26.8,93,50.6"/>
	</g>
</g>
<g>
	<path class="st2" d="M33.2,64.7V49c0-4.3,1-7.9,3-10.6c2-2.8,4.8-4.5,8.4-5.3V40c-1.2,0.4-2.2,0.8-2.9,1.4s-1.3,1.2-1.7,1.9
		s-0.7,1.6-0.8,2.5c-0.1,0.9-0.2,2-0.2,3.2v1.6h5.7v14.1H33.2z M52.3,64.7V49c0-4.3,1-7.8,3-10.6c2-2.8,4.8-4.6,8.3-5.3V40
		c-1.2,0.4-2.2,0.8-2.9,1.4s-1.3,1.2-1.7,1.9s-0.7,1.6-0.8,2.5c-0.1,0.9-0.2,2-0.2,3.2v1.6h5.7v14.1H52.3z"/>
</g>
</svg>
