<?xml version="1.0" encoding="utf-8"?>
<!-- Generator: Adobe Illustrator 19.1.0, SVG Export Plug-In . SVG Version: 6.00 Build 0)  -->
<!DOCTYPE svg PUBLIC "-//W3C//DTD SVG 1.1//EN" "http://www.w3.org/Graphics/SVG/1.1/DTD/svg11.dtd">
<svg version="1.1" id="Layer_1" xmlns="http://www.w3.org/2000/svg" xmlns:xlink="http://www.w3.org/1999/xlink" x="0px" y="0px"
	 viewBox="0 0 100 100" style="enable-background:new 0 0 100 100;" xml:space="preserve">
<style type="text/css">
	.st0{fill:#87C1B0;}
	.st1{fill:none;stroke:#FFFFFF;stroke-width:2;stroke-miterlimit:10;}
	.st2{fill:#FFFFFF;}
	.st3{fill:#98D2C3;}
</style>
<ellipse class="st0" cx="2.6" cy="208.3" rx="75" ry="71.8"/>
<g>
</g>
<circle class="st1" cx="49.2" cy="49.9" r="43.3"/>
<g>
	<path class="st2" d="M231.9,40.7c4.9,0,9.7,0,14.7,0c0,0.2,0,0.3,0,0.4c0,7.5-0.1,15.1,0,22.6c0,4.1-2.9,8.1-7.1,9.3
		c-0.7,0.2-1.4,0.3-2.2,0.3c-10.8,0-21.6,0-32.4,0c-1.5,0-2.9-0.6-4.1-1.3c-2.4-1.4-4-3.6-4.6-6.3c-0.3-1.2-0.2-2.4-0.3-3.6
		c0-6.7,0-13.5-0.1-20.2c0-1.2,0-1.2,1.2-1.2c4.4,0,8.8,0,13.2,0c0.1,0,0.1,0,0.3,0c-0.1,0.3-0.2,0.5-0.4,0.7
		c-0.8,1.4-1.5,2.8-1.7,4.4c-1.1,7.7,3.4,13.5,9.9,15c7.1,1.6,13.3-2.6,15.2-8.8c1.1-3.7,0.7-7.2-1.3-10.5c-0.1-0.2-0.3-0.5-0.4-0.7
		C231.9,40.8,231.9,40.8,231.9,40.7z"/>
	<path class="st2" d="M202.9,23.1c1.6-0.4,3.2-0.5,4.9-0.6c0.5,0,1,0,1.5,0c0.1,0,26.3,0.1,27.6,0.1c1.9-0.1,3.5,0.6,5,1.5
		c2.4,1.4,3.8,3.5,4.5,6.2c0.3,1.1,0.3,2.2,0.3,3.4c0,1.8,0,3.7,0,5.5c-0.1,0-0.3,0-0.5,0c-5.1,0-10.2,0-15.3,0
		c-0.2,0-0.5-0.1-0.7-0.3c-2.3-2.1-5-3.4-8.2-3.5c-3.6-0.2-6.7,0.9-9.3,3.2c-0.5,0.4-1,0.6-1.7,0.6c-4.9,0-9.7,0-14.6,0
		c-0.2,0-0.4,0-0.6,0c0-1,0-2,0-2.9c0-1.2,0.1-2.5,0.1-3.7c0-3,1.2-5.5,3.4-7.5C200.4,24,201.6,23.4,202.9,23.1z M233.6,31.2
		C233.5,31.2,233.5,31.2,233.6,31.2c-0.1,0.9-0.1,1.8-0.1,2.7c0,0.9,0.4,1.4,1.3,1.4c1.9,0.1,3.8,0.1,5.7,0c1,0,1.4-0.4,1.4-1.4
		c0.1-1.9,0.1-3.9,0-5.8c0-0.8-0.4-1.2-1.3-1.3c-2,0-4,0-6,0c-0.7,0-1,0.3-1.1,1C233.5,29,233.6,30.1,233.6,31.2z"/>
	<path class="st2" d="M221.4,58.2c-5.7,0-10.1-4.4-10.2-10.1c0-5.3,4.6-9.9,9.8-9.9c5.7,0,10.1,4.4,10.1,10.1
		C231.2,53.7,226.7,58.2,221.4,58.2z M221,40.9c-3.7-0.1-7.1,3.3-7.1,7.2c-0.1,4,3.2,7.5,7.3,7.5c3.9,0,7.2-2.9,7.4-7.2
		C228.7,44.8,225.7,40.8,221,40.9z"/>
</g>
<ellipse class="st3" cx="133.4" cy="19.7" rx="15.2" ry="14.5"/>
<g>
	<path class="st2" d="M134.2,241c0-2.3,0-4.5,0-6.8c0-1.6-0.5-2.1-2-2.5c-0.3-0.1-0.7-0.3-0.5-0.6c0.1-0.2,0.4-0.4,0.7-0.4
		c2.7,0,5.4,0.1,8.1,0.1c2.1,0,4.2-0.3,6.3-0.4c0.7-0.1,1,0.2,0.9,0.9c-0.1,0.9-0.1,1.8-0.1,2.7c0,0.2,0.1,0.5,0,0.6
		c-0.2,0.2-0.4,0.3-0.7,0.5c-0.1-0.2-0.3-0.4-0.3-0.5c0.1-1.1-0.3-1.8-1.8-2c-1.8-0.3-3.6-0.3-5.4-0.4c-0.6,0-1.2,0.1-1.8,0.2
		c-0.6,0.1-1,0.5-1,1.2c0,1.8,0,3.6,0,5.4c0,0.6,0.2,0.9,0.8,0.9c1.6,0,3.2,0,4.8,0c1.2,0,1.9-0.7,2.1-1.9c0-0.4,0.1-0.7,0.6-0.7
		c0.5,0.1,0.6,0.4,0.5,0.8c0,0.5-0.1,1-0.1,1.5c0,1,0.1,2,0.1,3c0,0.1,0,0.3,0,0.4c0,0.4,0,0.8-0.4,0.8c-0.2,0-0.5-0.3-0.6-0.6
		c-0.5-1.4-1.1-1.9-2.5-1.9c-1.4,0-2.9,0-4.3,0c-0.7,0-1,0.2-1,1c0,2,0,4,0,6c0,1,0.5,1.6,1.5,1.7c2.3,0.2,4.5,0.2,6.7-0.3
		c1.4-0.4,2.2-1.3,2.4-2.7c0-0.2,0-0.5,0.2-0.7c0.1-0.1,0.4-0.3,0.5-0.3c0.3,0.1,0.6,0.3,0.7,0.5c0.1,0.3,0.1,0.7,0,1.1
		c-0.3,1.2-0.7,2.3-0.6,3.5c0,0.4-0.2,0.6-0.6,0.6c-2-0.1-4-0.2-6-0.3c-3.2,0-6.4,0-9.6,0c-0.3,0-0.7,0-0.7-0.4
		c0-0.5,0.3-0.6,0.7-0.6c1.6-0.1,2.3-0.9,2.3-2.4C134.2,245.6,134.2,243.3,134.2,241C134.2,241,134.2,241,134.2,241z"/>
	<path class="st2" d="M172.7,237.8c2.1,0,4.2,0,6.3,0c0.2,0.7,0.1,0.8-0.6,0.9c-0.8,0.1-1.2,0.5-1,1.3c0.2,0.7,0.5,1.5,0.8,2.2
		c0.7,1.6,1.4,3.2,2.1,4.9c0.1,0.2,0.2,0.4,0.3,0.7c0.2-0.3,0.3-0.6,0.4-0.8c0.7-1.4,1.4-2.7,2-4.1c0.4-0.8,0.6-1.6,0.8-2.4
		c0.2-0.9-0.1-1.4-1-1.7c-0.2-0.1-0.4,0-0.5-0.2c-0.1-0.1-0.2-0.4-0.2-0.6c0-0.1,0.3-0.2,0.4-0.2c1.7,0,3.5,0,5.2,0
		c0.2,0,0.3,0.2,0.5,0.3c-0.1,0.2-0.2,0.5-0.4,0.6c-1.4,0.3-2.2,1.4-2.7,2.5c-1.4,3-2.8,5.9-4.2,8.9c-0.7,1.5-1.4,2.9-2.2,4.4
		c-0.6,1.2-1.4,2.3-2.5,3c-0.6,0.4-1.3,0.7-2,0.9c-0.5,0.2-1.1,0-1.4-0.5c-0.2-0.3-0.3-0.9-0.2-1.2c0.1-0.3,0.6-0.5,0.9-0.6
		c0.3-0.1,0.7-0.1,1,0.1c0.7,0.4,1.3,0.1,1.8-0.4c1.2-1.2,1.9-2.7,2.2-4.3c0.1-0.6,0.1-1.3-0.1-1.9c-1.2-3.2-2.4-6.3-3.7-9.5
		c-0.3-0.7-0.9-1.1-1.6-1.3C172.6,238.6,172.5,238.3,172.7,237.8z"/>
	<path class="st2" d="M166.5,237.3c0.7,0.1,1.5,0.2,2.2,0.4c0.5,0.1,0.9,0.1,1.3-0.2c0.2-0.1,0.5-0.2,0.6-0.1
		c0.1,0.1,0.2,0.4,0.2,0.6c0,1-0.1,2-0.2,3c0,0.2-0.3,0.5-0.5,0.6c-0.5,0.1-0.5-0.3-0.6-0.6c-0.5-1.8-2.1-2.7-3.9-2.2
		c-0.7,0.2-1.3,0.7-1.4,1.4c-0.2,0.8,0.2,1.5,0.9,1.9c0.9,0.5,1.8,0.9,2.7,1.3c0.8,0.4,1.7,0.8,2.4,1.3c2.1,1.6,1.9,4.7-0.3,6.1
		c-1.5,1-3.2,1-4.9,0.7c-0.4-0.1-0.9-0.2-1.3-0.2c-0.4,0-0.9,0.2-1.3,0.2c-0.2,0-0.6,0.2-0.7,0c-0.2-0.2-0.2-0.5-0.2-0.7
		c0.4-0.9,0.3-1.8,0.2-2.7c-0.1-0.4,0-0.8,0.1-1.2c0.1-0.2,0.5-0.4,0.8-0.5c0.1,0.2,0.4,0.4,0.4,0.7c0.2,2.6,2.9,4.1,5.3,2.9
		c1.5-0.8,1.7-2.6,0.3-3.6c-0.8-0.5-1.7-0.9-2.5-1.3c-0.8-0.4-1.7-0.8-2.5-1.3c-2.1-1.5-2-4.3,0.2-5.7
		C164.4,237.5,165.4,237.3,166.5,237.3z"/>
	<path class="st2" d="M154.4,239.2c0,0.8,0,1.5,0,2.1c0,1.9,0,3.9,0,5.8c0.1,2.2,1.6,3,3.5,2c0.1,0,0.1-0.1,0.2-0.1
		c0.3,0,0.6,0,0.7,0.1c0.1,0.1,0.1,0.6,0,0.7c-1,1.2-2.3,1.9-4,1.8c-1.6-0.2-2.7-1.6-2.7-3.6c0-2.2,0.1-4.4,0.1-6.7
		c0-1-0.4-1.6-1.5-1.8c-0.4-0.1-0.8-0.1-0.8-0.6c0-0.3,0.4-0.6,0.7-0.7c0.9-0.4,1.5-1,2-1.8c0.4-0.7,0.7-1.4,1-2.1
		c0.2-0.4,0.4-0.7,0.8-0.5c0.2,0.1,0.3,0.6,0.3,0.9c0,0.8-0.1,1.6-0.2,2.4c0,0.4,0.1,0.6,0.5,0.6c1.1,0,2.2,0,3.3,0
		c0.6,0,0.7,0.3,0.7,0.8c0,0.5-0.1,0.8-0.7,0.7C157,239.2,155.8,239.2,154.4,239.2z"/>
</g>
<g>
	<path class="st2" d="M193.3,102.6c2.1,0,4.3,0,6.5,0c0,0.1,0,0.1,0,0.2c0,3.3,0,6.6,0,10c0,1.8-1.3,3.6-3.1,4.1
		c-0.3,0.1-0.6,0.1-0.9,0.1c-4.8,0-9.5,0-14.3,0c-0.7,0-1.3-0.3-1.8-0.6c-1.1-0.6-1.7-1.6-2-2.8c-0.1-0.5-0.1-1.1-0.1-1.6
		c0-3,0-5.9,0-8.9c0-0.5,0-0.5,0.5-0.5c1.9,0,3.9,0,5.8,0c0,0,0.1,0,0.1,0c-0.1,0.1-0.1,0.2-0.2,0.3c-0.3,0.6-0.6,1.2-0.7,1.9
		c-0.5,3.4,1.5,6,4.4,6.6c3.1,0.7,5.8-1.1,6.7-3.9c0.5-1.6,0.3-3.2-0.6-4.6C193.4,102.9,193.3,102.8,193.3,102.6
		C193.3,102.7,193.3,102.6,193.3,102.6z"/>
	<path class="st2" d="M180.5,94.8c0.7-0.2,1.4-0.2,2.1-0.3c0.2,0,0.4,0,0.6,0c0.1,0,0.1,0,0.2,0c3.4,0,6.9,0,10.3,0
		c0.6,0,1.1,0,1.7,0c0.8,0,1.5,0.3,2.2,0.7c1,0.6,1.7,1.6,2,2.7c0.1,0.5,0.1,1,0.1,1.5c0,0.8,0,1.6,0,2.4c-0.1,0-0.1,0-0.2,0
		c-2.3,0-4.5,0-6.8,0c-0.1,0-0.2,0-0.3-0.1c-1-0.9-2.2-1.5-3.6-1.6c-1.6-0.1-2.9,0.4-4.1,1.4c-0.2,0.2-0.4,0.3-0.7,0.3
		c-2.1,0-4.3,0-6.4,0c-0.1,0-0.2,0-0.3,0c0-0.4,0-0.9,0-1.3c0-0.5,0-1.1,0-1.6c0-1.3,0.5-2.4,1.5-3.3
		C179.4,95.2,179.9,95,180.5,94.8z M194,98.4C194,98.4,194,98.4,194,98.4c0,0.4,0,0.8,0,1.2c0,0.4,0.2,0.6,0.6,0.6
		c0.8,0,1.7,0,2.5,0c0.4,0,0.6-0.2,0.6-0.6c0-0.8,0-1.7,0-2.5c0-0.4-0.2-0.6-0.6-0.6c-0.9,0-1.8,0-2.7,0c-0.3,0-0.5,0.1-0.5,0.4
		C194,97.4,194,97.9,194,98.4z"/>
	<path class="st2" d="M188.6,110.3c-2.5,0-4.5-1.9-4.5-4.4c0-2.3,2-4.4,4.3-4.4c2.5,0,4.5,1.9,4.5,4.5
		C193,108.3,191,110.3,188.6,110.3z M188.5,102.7c-1.6,0-3.1,1.5-3.1,3.2c0,1.8,1.4,3.3,3.2,3.3c1.7,0,3.2-1.3,3.3-3.2
		C191.9,104.4,190.6,102.6,188.5,102.7z"/>
</g>
<path class="st2" d="M39.9,50c-2.7,0-5.5,0-8.2,0c-0.4,0-0.3,0-0.3-0.3c0-1,0-1.9,0-2.9c0-2.2,0-4.5,0-6.7c0-0.2,0.1-0.3,0.3-0.3
	c2.7,0,5.4,0,8.1,0c0.1,0,0.1,0,0.2,0c0-0.1,0-0.2,0-0.3c0-2,0-4,0-6c0-0.2,0-0.3,0.1-0.5c0,0,0-0.1,0-0.1c0.1-0.2,0-0.3,0-0.5
	c0-0.2,0-0.3,0.1-0.4c0,0,0-0.1,0-0.1c0-0.2,0-0.3,0.1-0.5c0-0.2,0.1-0.3,0.1-0.5c0-0.3,0.1-0.6,0.2-0.9c0.1-0.4,0.2-0.8,0.5-1.2
	l0,0c0.1-0.3,0.2-0.6,0.4-0.9c0.3-0.5,0.6-1,0.9-1.5c0.1-0.1,0.1-0.2,0.2-0.2c0.1-0.1,0.2-0.2,0.3-0.4c0.2-0.2,0.4-0.5,0.6-0.7
	c0.7-0.7,1.4-1.2,2.2-1.8c0.6-0.4,1.2-0.7,1.9-0.9c0.3-0.1,0.6-0.2,0.9-0.3c0.1,0,0.2-0.1,0.4-0.1c0,0,0,0,0,0
	c0.2-0.1,0.5-0.2,0.8-0.2c0,0,0.1,0,0.1,0c0.2-0.1,0.5-0.2,0.8-0.2c0.1,0,0.2,0,0.4,0c0.9-0.1,1.8-0.1,2.7-0.1c3.1,0,6.1,0,9.2,0
	c0.2,0,0.2,0.1,0.2,0.3c0,3.3,0,6.5,0,9.8c0,0.2-0.1,0.3-0.3,0.3c-1.5,0-3,0-4.5,0c-0.1,0-0.2,0-0.3,0c-0.2,0-0.4,0-0.6,0
	c-0.1,0-0.1,0.1-0.2,0.1c-0.4,0.1-0.8,0.2-1.2,0.3c-0.1,0-0.1,0.1-0.2,0.1c-0.1,0.1-0.2,0.1-0.3,0.2c-0.4,0.2-0.6,0.5-0.9,0.8
	c-0.1,0.2-0.3,0.3-0.4,0.5c-0.1,0.1-0.1,0.2-0.2,0.4c-0.1,0.3-0.3,0.5-0.3,0.8c-0.1,0.2-0.1,0.4-0.2,0.6c0,0,0,0,0,0
	c-0.1,0.2,0,0.4,0,0.6c0,1,0,2,0,3c0,0.2,0,0.3,0.2,0.4c1.4,0,2.8,0,4.2,0c1.6,0,3.3,0,4.9,0c0.2,0,0.3,0.1,0.3,0.3c0,1.5,0,3,0,4.6
	c0,1.7,0,3.4,0,5.2c0,0.2-0.1,0.3-0.3,0.3c-0.4,0-0.9,0-1.3,0c-1.8,0-3.7,0-5.5,0c-0.8,0-1.5,0-2.3,0c-0.2,0-0.3,0.1-0.3,0.3
	c0,4.8,0,9.6,0,14.4c0,3.5,0,7.1,0,10.6c0,2,0,4,0,6c0,0.2,0,0.3-0.3,0.3c-4.3,0-8.6,0-12.8,0c-0.1,0-0.3,0-0.4,0c0-0.1,0-0.2,0-0.3
	c0-4.2,0-8.3,0-12.5c0-1.4,0-2.7,0-4.1c-0.1-4.8,0-9.6,0-14.3C39.9,50.2,40,50.1,39.9,50z"/>
</svg>
