<?xml version="1.0" encoding="utf-8"?>
<!-- Generator: Adobe Illustrator 19.1.0, SVG Export Plug-In . SVG Version: 6.00 Build 0)  -->
<!DOCTYPE svg PUBLIC "-//W3C//DTD SVG 1.1//EN" "http://www.w3.org/Graphics/SVG/1.1/DTD/svg11.dtd">
<svg version="1.1" id="Layer_1" xmlns="http://www.w3.org/2000/svg" xmlns:xlink="http://www.w3.org/1999/xlink" x="0px" y="0px"
	 viewBox="0 0 100 100" style="enable-background:new 0 0 100 100;" xml:space="preserve">
<style type="text/css">
	.st0{fill:#87C1B0;}
	.st1{fill:none;stroke:#FFFFFF;stroke-width:2;stroke-miterlimit:10;}
	.st2{fill:#FFFFFF;}
	.st3{fill:#98D2C3;}
</style>
<ellipse class="st0" cx="208.4" cy="137.6" rx="75" ry="71.8"/>
<g>
</g>
<circle class="st1" cx="49.2" cy="49.9" r="43.3"/>
<g>
	<path class="st2" d="M60.3,43.8c4.9,0,9.7,0,14.7,0c0,0.2,0,0.3,0,0.4c0,7.5-0.1,15.1,0,22.6c0,4.1-2.9,8.1-7.1,9.3
		c-0.7,0.2-1.4,0.3-2.2,0.3c-10.8,0-21.6,0-32.4,0c-1.5,0-2.9-0.6-4.1-1.3c-2.4-1.4-4-3.6-4.6-6.3c-0.3-1.2-0.2-2.4-0.3-3.6
		c0-6.7,0-13.5-0.1-20.2c0-1.2,0-1.2,1.2-1.2c4.4,0,8.8,0,13.2,0c0.1,0,0.1,0,0.3,0c-0.1,0.3-0.2,0.5-0.4,0.7
		c-0.8,1.4-1.5,2.8-1.7,4.4c-1.1,7.7,3.4,13.5,9.9,15c7.1,1.6,13.3-2.6,15.2-8.8c1.1-3.7,0.7-7.2-1.3-10.5c-0.1-0.2-0.3-0.5-0.4-0.7
		C60.3,43.9,60.3,43.9,60.3,43.8z"/>
	<path class="st2" d="M31.3,26.2c1.6-0.4,3.2-0.5,4.9-0.6c0.5,0,1,0,1.5,0c0.1,0,26.3,0.1,27.6,0.1c1.9-0.1,3.5,0.6,5,1.5
		c2.4,1.4,3.8,3.5,4.5,6.2c0.3,1.1,0.3,2.2,0.3,3.4c0,1.8,0,3.7,0,5.5c-0.1,0-0.3,0-0.5,0c-5.1,0-10.2,0-15.3,0
		c-0.2,0-0.5-0.1-0.7-0.3c-2.3-2.1-5-3.4-8.2-3.5c-3.6-0.2-6.7,0.9-9.3,3.2c-0.5,0.4-1,0.6-1.7,0.6c-4.9,0-9.7,0-14.6,0
		c-0.2,0-0.4,0-0.6,0c0-1,0-2,0-2.9c0-1.2,0.1-2.5,0.1-3.7c0-3,1.2-5.5,3.4-7.5C28.7,27.1,30,26.5,31.3,26.2z M61.9,34.3
		C61.9,34.3,61.9,34.3,61.9,34.3c-0.1,0.9-0.1,1.8-0.1,2.7c0,0.9,0.4,1.4,1.3,1.4c1.9,0.1,3.8,0.1,5.7,0c1,0,1.4-0.4,1.4-1.4
		c0.1-1.9,0.1-3.9,0-5.8c0-0.8-0.4-1.2-1.3-1.3c-2,0-4,0-6,0c-0.7,0-1,0.3-1.1,1C61.9,32.1,61.9,33.2,61.9,34.3z"/>
	<path class="st2" d="M49.7,61.3c-5.7,0-10.1-4.4-10.2-10.1c0-5.3,4.6-9.9,9.8-9.9c5.7,0,10.1,4.4,10.1,10.1
		C59.6,56.8,55.1,61.3,49.7,61.3z M49.4,44c-3.7-0.1-7.1,3.3-7.1,7.2c-0.1,4,3.2,7.5,7.3,7.5c3.9,0,7.2-2.9,7.4-7.2
		C57.1,47.9,54.1,43.9,49.4,44z"/>
</g>
<ellipse class="st3" cx="133.4" cy="19.7" rx="15.2" ry="14.5"/>
</svg>
