<?xml version="1.0" encoding="utf-8"?>
<!-- Generator: Adobe Illustrator 19.1.0, SVG Export Plug-In . SVG Version: 6.00 Build 0)  -->
<!DOCTYPE svg PUBLIC "-//W3C//DTD SVG 1.1//EN" "http://www.w3.org/Graphics/SVG/1.1/DTD/svg11.dtd">
<svg version="1.1" id="Layer_1" xmlns="http://www.w3.org/2000/svg" xmlns:xlink="http://www.w3.org/1999/xlink" x="0px" y="0px"
	 viewBox="0 0 100 100" style="enable-background:new 0 0 100 100;" xml:space="preserve">
<style type="text/css">
	.st0{fill:none;stroke:#87C1B0;stroke-width:2;stroke-miterlimit:10;}
	.st1{fill:#98D2C3;}
	.st2{fill:#87C1B0;}
</style>
<g>
</g>
<circle class="st0" cx="49.2" cy="49.9" r="43.3"/>
<g>
	<path class="st1" d="M171.2,94.8c4.9,0,9.7,0,14.7,0c0,0.2,0,0.3,0,0.4c0,7.5-0.1,15.1,0,22.6c0,4.1-2.9,8.1-7.1,9.3
		c-0.7,0.2-1.4,0.3-2.2,0.3c-10.8,0-21.6,0-32.4,0c-1.5,0-2.9-0.6-4.1-1.3c-2.4-1.4-4-3.6-4.6-6.3c-0.3-1.2-0.2-2.4-0.3-3.6
		c0-6.7,0-13.5-0.1-20.2c0-1.2,0-1.2,1.2-1.2c4.4,0,8.8,0,13.2,0c0.1,0,0.1,0,0.3,0c-0.1,0.3-0.2,0.5-0.4,0.7
		c-0.8,1.4-1.5,2.8-1.7,4.4c-1.1,7.7,3.4,13.5,9.9,15c7.1,1.6,13.3-2.6,15.2-8.8c1.1-3.7,0.7-7.2-1.3-10.5c-0.1-0.2-0.3-0.5-0.4-0.7
		C171.2,94.9,171.2,94.9,171.2,94.8z"/>
	<path class="st1" d="M142.2,77.1c1.6-0.4,3.2-0.5,4.9-0.6c0.5,0,1,0,1.5,0c0.1,0,26.3,0.1,27.6,0.1c1.9-0.1,3.5,0.6,5,1.5
		c2.4,1.4,3.8,3.5,4.5,6.2c0.3,1.1,0.3,2.2,0.3,3.4c0,1.8,0,3.7,0,5.5c-0.1,0-0.3,0-0.5,0c-5.1,0-10.2,0-15.3,0
		c-0.2,0-0.5-0.1-0.7-0.3c-2.3-2.1-5-3.4-8.2-3.5c-3.6-0.2-6.7,0.9-9.3,3.2c-0.5,0.4-1,0.6-1.7,0.6c-4.9,0-9.7,0-14.6,0
		c-0.2,0-0.4,0-0.6,0c0-1,0-2,0-2.9c0-1.2,0.1-2.5,0.1-3.7c0-3,1.2-5.5,3.4-7.5C139.7,78.1,140.9,77.5,142.2,77.1z M172.9,85.2
		C172.9,85.2,172.8,85.2,172.9,85.2c-0.1,0.9-0.1,1.8-0.1,2.7c0,0.9,0.4,1.4,1.3,1.4c1.9,0.1,3.8,0.1,5.7,0c1,0,1.4-0.4,1.4-1.4
		c0.1-1.9,0.1-3.9,0-5.8c0-0.8-0.4-1.2-1.3-1.3c-2,0-4,0-6,0c-0.7,0-1,0.3-1.1,1C172.8,83.1,172.9,84.2,172.9,85.2z"/>
	<path class="st1" d="M160.7,112.3c-5.7,0-10.1-4.4-10.2-10.1c0-5.3,4.6-9.9,9.8-9.9c5.7,0,10.1,4.4,10.1,10.1
		C170.6,107.7,166,112.3,160.7,112.3z M160.4,95c-3.7-0.1-7.1,3.3-7.1,7.2c-0.1,4,3.2,7.5,7.3,7.5c3.9,0,7.2-2.9,7.4-7.2
		C168.1,98.8,165,94.9,160.4,95z"/>
</g>
<ellipse class="st1" cx="133.4" cy="19.7" rx="15.2" ry="14.5"/>
<ellipse class="st2" cx="135.1" cy="38.5" rx="15.2" ry="14.5"/>
<g>
	<path class="st2" d="M23.1,49.1c0-2.4,0-4.9,0-7.3c0-1.7-0.5-2.3-2.1-2.7c-0.4-0.1-0.7-0.3-0.6-0.7c0.1-0.2,0.5-0.4,0.7-0.4
		c2.9,0,5.8,0.1,8.7,0.1c2.3,0,4.5-0.3,6.8-0.5c0.8-0.1,1,0.2,1,0.9c-0.1,1-0.1,1.9-0.1,2.9c0,0.2,0.1,0.5,0,0.7
		c-0.2,0.2-0.5,0.4-0.7,0.5c-0.1-0.2-0.3-0.4-0.3-0.6c0.1-1.2-0.4-1.9-1.9-2.1c-1.9-0.3-3.9-0.3-5.8-0.4c-0.6,0-1.3,0.1-1.9,0.2
		c-0.7,0.1-1,0.5-1,1.3c0,1.9,0,3.9,0,5.8c0,0.6,0.2,0.9,0.9,0.9c1.7,0,3.5,0,5.2,0c1.3,0,2.1-0.7,2.3-2c0.1-0.4,0.1-0.8,0.6-0.7
		c0.5,0.1,0.6,0.5,0.6,0.9c0,0.5-0.1,1.1-0.1,1.6c0,1.1,0.1,2.1,0.1,3.2c0,0.1,0,0.3,0,0.4c0,0.4,0,0.8-0.5,0.8
		c-0.2,0-0.6-0.4-0.7-0.6c-0.5-1.5-1.2-2-2.7-2c-1.6,0-3.1,0-4.7,0c-0.8,0-1.1,0.3-1.1,1c0,2.2,0,4.3,0,6.5c0,1,0.6,1.8,1.6,1.9
		c2.4,0.3,4.8,0.3,7.2-0.3c1.5-0.4,2.3-1.4,2.6-2.9c0-0.2,0.1-0.5,0.2-0.7c0.1-0.2,0.4-0.4,0.5-0.3c0.3,0.1,0.6,0.3,0.7,0.5
		c0.1,0.3,0.1,0.8,0,1.2c-0.4,1.2-0.7,2.5-0.6,3.8c0,0.4-0.2,0.7-0.7,0.7c-2.1-0.1-4.3-0.3-6.4-0.3c-3.4,0-6.9,0-10.3,0
		c-0.3,0-0.8,0.1-0.8-0.4c0-0.5,0.3-0.6,0.8-0.6c1.7-0.1,2.5-0.9,2.5-2.6C23.1,54,23.1,51.6,23.1,49.1
		C23.1,49.1,23.1,49.1,23.1,49.1z"/>
	<path class="st2" d="M64.4,45.6c2.3,0,4.5,0,6.8,0c0.2,0.8,0.2,0.9-0.6,1c-0.9,0.1-1.3,0.6-1.1,1.4c0.2,0.8,0.5,1.6,0.8,2.3
		c0.7,1.7,1.5,3.5,2.2,5.2c0.1,0.2,0.2,0.4,0.3,0.7c0.2-0.4,0.3-0.6,0.4-0.8c0.7-1.5,1.5-2.9,2.2-4.4c0.4-0.8,0.7-1.7,0.9-2.6
		c0.3-0.9-0.2-1.5-1.1-1.8c-0.2-0.1-0.5-0.1-0.6-0.2c-0.1-0.2-0.2-0.4-0.2-0.7c0-0.1,0.3-0.3,0.5-0.3c1.9,0,3.7,0,5.6,0
		c0.2,0,0.4,0.2,0.5,0.3c-0.1,0.2-0.2,0.6-0.4,0.6c-1.5,0.3-2.3,1.5-2.9,2.7c-1.5,3.2-3,6.4-4.6,9.6c-0.8,1.6-1.5,3.1-2.4,4.7
		c-0.7,1.3-1.5,2.4-2.7,3.2c-0.6,0.4-1.4,0.7-2.1,1c-0.6,0.2-1.2,0-1.5-0.5c-0.2-0.4-0.3-1-0.2-1.3c0.1-0.3,0.6-0.5,1-0.7
		c0.3-0.1,0.8-0.1,1.1,0.1c0.8,0.4,1.4,0.1,1.9-0.4c1.3-1.3,2-2.9,2.4-4.6c0.1-0.6,0.1-1.4-0.2-2c-1.3-3.4-2.6-6.8-4-10.2
		c-0.3-0.8-1-1.2-1.7-1.4C64.4,46.5,64.2,46.2,64.4,45.6z"/>
	<path class="st2" d="M57.8,45.1c0.8,0.1,1.6,0.2,2.4,0.4c0.5,0.1,0.9,0.1,1.4-0.2c0.2-0.1,0.5-0.2,0.7-0.1c0.2,0.1,0.3,0.4,0.3,0.6
		c0,1.1-0.1,2.2-0.2,3.2c0,0.2-0.3,0.6-0.6,0.6c-0.5,0.2-0.6-0.3-0.7-0.7c-0.6-2-2.3-2.9-4.2-2.4c-0.8,0.2-1.4,0.7-1.5,1.5
		c-0.2,0.9,0.2,1.6,0.9,2c0.9,0.5,2,0.9,2.9,1.4c0.9,0.4,1.8,0.8,2.5,1.4c2.3,1.8,2.1,5-0.4,6.6c-1.6,1-3.4,1.1-5.2,0.8
		c-0.5-0.1-1-0.2-1.4-0.2c-0.5,0-1,0.2-1.4,0.3c-0.3,0-0.6,0.2-0.8,0c-0.2-0.2-0.3-0.6-0.2-0.8c0.4-0.9,0.3-1.9,0.2-2.9
		c-0.1-0.4,0-0.9,0.1-1.3c0.1-0.3,0.5-0.4,0.8-0.6c0.2,0.2,0.4,0.5,0.5,0.7c0.2,2.8,3.1,4.4,5.7,3.1c1.6-0.8,1.8-2.8,0.3-3.9
		C59,54.3,58,54,57.1,53.5c-0.9-0.5-1.9-0.9-2.7-1.4c-2.2-1.6-2.1-4.6,0.2-6.1C55.6,45.4,56.7,45.1,57.8,45.1z"/>
	<path class="st2" d="M44.8,47.2c0,0.8,0,1.6,0,2.3c0,2.1,0,4.2,0,6.2c0.1,2.3,1.7,3.2,3.8,2.1c0.1,0,0.1-0.1,0.2-0.1
		c0.3,0,0.7,0,0.8,0.1c0.1,0.2,0.1,0.6,0,0.8c-1.1,1.3-2.5,2.1-4.3,1.9c-1.7-0.2-2.9-1.8-2.9-3.9c0-2.4,0.1-4.8,0.1-7.1
		c0-1.1-0.5-1.7-1.6-1.9c-0.4-0.1-0.9-0.1-0.9-0.6c0-0.3,0.4-0.6,0.7-0.8c0.9-0.4,1.6-1.1,2.1-1.9c0.4-0.7,0.8-1.5,1.1-2.2
		c0.2-0.4,0.4-0.8,0.8-0.6c0.2,0.1,0.3,0.6,0.3,0.9c0,0.9-0.1,1.7-0.2,2.6c-0.1,0.5,0.1,0.6,0.6,0.6c1.2,0,2.4,0,3.5,0
		c0.6,0,0.8,0.3,0.8,0.8c0,0.5-0.2,0.8-0.8,0.8C47.6,47.2,46.3,47.2,44.8,47.2z"/>
</g>
</svg>
